{"glyphs":{"0":{"ha":921,"x_min":75,"x_max":847,"o":"m 444 -14 q 172 99 268 -14 q 75 419 75 213 q 130 671 75 568 q 276 824 185 774 q 482 875 368 875 q 753 763 660 875 q 847 443 847 651 q 793 192 847 294 q 648 38 739 89 q 444 -14 557 -14 m 463 75 q 576 162 539 75 q 614 425 614 249 q 599 634 614 556 q 551 749 585 713 q 461 786 518 786 q 307 442 307 786 q 344 163 307 251 q 463 75 381 75 z "},"1":{"ha":647,"x_min":50,"x_max":624,"o":"m 242 664 q 156 644 215 656 q 65 631 96 632 l 50 736 q 213 792 128 751 q 349 876 297 833 l 350 876 l 471 860 l 471 104 l 624 89 l 624 0 l 79 0 l 79 89 l 242 103 l 242 664 z "},"2":{"ha":844,"x_min":47,"x_max":799,"o":"m 47 82 q 356 328 239 197 q 474 586 474 458 q 433 688 474 650 q 321 726 393 726 q 233 712 272 726 q 171 681 194 697 q 113 635 147 664 l 57 718 q 137 788 83 751 q 260 850 190 825 q 403 875 331 875 q 577 841 507 875 q 681 749 647 807 q 715 624 715 692 q 590 363 715 493 q 265 121 464 233 l 651 154 l 706 265 l 799 246 l 763 0 l 79 0 l 47 82 z "},"3":{"ha":790,"x_min":57,"x_max":739,"o":"m 243 -222 q 143 -215 196 -222 q 61 -197 90 -208 l 61 -86 q 193 -104 115 -104 q 352 -74 285 -104 q 455 8 419 -44 q 490 122 490 60 q 293 307 490 299 q 211 286 226 289 l 181 376 q 293 411 240 388 q 412 500 371 447 q 453 611 453 553 q 412 706 453 675 q 310 736 371 736 q 199 716 250 736 q 110 667 147 696 l 57 761 q 132 812 81 785 q 249 857 183 839 q 381 875 315 875 q 602 819 518 875 q 686 647 686 763 q 608 472 686 547 q 415 357 531 397 q 458 358 431 358 q 660 297 582 358 q 739 129 738 235 q 679 -50 739 31 q 507 -176 619 -131 q 243 -222 394 -222 z "},"4":{"ha":929,"x_min":36,"x_max":899,"o":"m 543 0 l 86 0 l 36 78 q 219 468 104 204 q 421 946 333 732 l 467 946 l 643 857 l 299 203 l 238 111 l 544 131 l 563 385 l 729 397 l 729 143 l 899 153 l 899 0 l 729 0 l 729 -222 l 543 -222 l 543 0 z "},"5":{"ha":861,"x_min":114,"x_max":782,"o":"m 122 -117 q 203 -119 175 -119 q 374 -81 296 -119 q 496 24 451 -42 q 540 168 540 90 q 492 308 540 267 q 353 350 444 350 q 253 338 307 350 q 164 310 199 326 l 114 344 l 181 863 l 625 863 l 639 889 l 739 889 l 708 701 l 322 701 l 267 429 q 485 483 375 483 q 706 410 631 483 q 782 206 782 338 q 709 -17 782 81 q 508 -169 636 -115 q 219 -224 381 -224 q 122 -214 167 -224 l 122 -117 z "},"6":{"ha":938,"x_min":90,"x_max":856,"o":"m 474 -17 q 267 41 354 -17 q 135 198 181 99 q 90 422 90 297 q 180 749 90 601 q 407 987 269 897 q 681 1092 544 1076 l 725 1011 q 487 865 582 969 q 351 621 392 761 q 560 693 432 693 q 776 608 696 693 q 856 374 856 522 q 810 181 856 269 q 679 38 765 92 q 474 -17 593 -17 m 481 578 q 392 558 432 578 q 329 513 351 539 q 324 406 324 446 q 479 74 324 74 q 590 146 551 74 q 629 332 629 218 q 590 519 629 460 q 481 578 550 578 z "},"7":{"ha":829,"x_min":49,"x_max":801,"o":"m 197 -193 q 363 162 281 -28 q 547 599 446 351 l 603 732 l 256 726 l 176 514 l 49 539 l 85 863 l 761 863 l 801 811 l 429 -256 l 197 -193 z "},"8":{"ha":897,"x_min":68,"x_max":832,"o":"m 68 253 q 120 399 68 332 q 274 507 172 465 q 156 622 199 557 q 113 778 113 688 q 158 924 113 863 q 283 1018 204 986 q 457 1050 361 1050 q 629 1020 557 1050 q 739 938 701 990 q 776 817 776 885 q 730 678 776 740 q 596 575 683 615 q 769 442 707 511 q 832 269 832 374 q 782 119 832 183 q 642 19 732 54 q 439 -15 553 -15 q 176 51 283 -15 q 68 253 68 118 m 307 828 q 335 747 307 783 q 404 683 363 711 q 517 617 446 654 q 588 694 561 649 q 614 788 614 739 q 573 918 614 872 q 456 964 532 964 q 351 928 394 964 q 307 828 307 892 m 611 231 q 584 311 611 276 q 517 372 557 346 q 403 435 476 397 l 346 465 q 274 387 301 433 q 247 286 247 340 q 299 134 247 192 q 444 76 351 76 q 524 95 486 76 q 587 149 563 114 q 611 231 611 185 z "},"9":{"ha":919,"x_min":74,"x_max":840,"o":"m 461 875 q 669 820 583 875 q 797 669 754 765 q 840 447 840 572 q 757 111 840 263 q 541 -131 674 -40 q 267 -237 408 -222 l 224 -156 q 456 -10 367 -114 q 581 239 544 93 q 497 187 549 207 q 383 167 446 167 q 223 208 293 167 q 113 324 153 249 q 74 500 74 400 q 119 688 74 601 q 253 824 165 774 q 461 875 342 875 m 454 281 q 541 301 501 281 q 601 347 581 321 q 607 465 607 422 q 449 785 607 785 q 338 714 376 785 q 300 538 300 643 q 341 343 300 406 q 454 281 382 281 z "},"\u0000":{"ha":0,"x_min":0,"x_max":0,"o":""},"\r":{"ha":360,"x_min":0,"x_max":0,"o":""}," ":{"ha":360,"x_min":0,"x_max":0,"o":""},"A":{"ha":981,"x_min":-26,"x_max":1000,"o":"m 56 104 l 368 1038 l 608 1038 l 921 104 l 1000 89 l 1000 0 l 569 0 l 569 89 l 669 104 l 619 274 l 281 274 l 232 103 l 342 89 l 342 0 l -25 0 l -26 89 l 56 104 m 590 378 l 469 796 l 447 897 l 425 794 l 308 378 l 590 378 z "},"Á":{"ha":981,"x_min":-26,"x_max":1000,"o":"m 56 104 l 368 1038 l 608 1038 l 921 104 l 1000 89 l 1000 0 l 569 0 l 569 89 l 669 104 l 619 274 l 281 274 l 232 103 l 342 89 l 342 0 l -25 0 l -26 89 l 56 104 m 590 378 l 469 796 l 447 897 l 425 794 l 308 378 l 590 378 m 392 1151 l 601 1364 l 739 1268 q 603 1160 689 1213 q 471 1092 518 1107 l 392 1151 z "},"Ă":{"ha":981,"x_min":-26,"x_max":1000,"o":"m 489 1104 q 347 1135 406 1104 q 260 1217 289 1165 q 231 1329 231 1268 q 232 1360 231 1350 l 338 1360 q 339 1344 338 1350 q 380 1272 344 1304 q 490 1240 415 1240 q 598 1272 565 1240 q 635 1344 631 1303 q 636 1360 636 1350 l 744 1360 q 746 1331 746 1350 q 716 1217 746 1269 q 628 1135 686 1165 q 489 1104 569 1104 m 56 104 l 368 1038 l 608 1038 l 921 104 l 1000 89 l 1000 0 l 569 0 l 569 89 l 669 104 l 619 274 l 281 274 l 232 103 l 342 89 l 342 0 l -25 0 l -26 89 l 56 104 m 590 378 l 469 796 l 447 897 l 425 794 l 308 378 l 590 378 z "},"Ắ":{"ha":981,"x_min":-26,"x_max":1000,"o":"m 56 104 l 368 1038 l 608 1038 l 921 104 l 1000 89 l 1000 0 l 569 0 l 569 89 l 669 104 l 619 274 l 281 274 l 232 103 l 342 89 l 342 0 l -25 0 l -26 89 l 56 104 m 590 378 l 469 796 l 447 897 l 425 794 l 308 378 l 590 378 m 492 1104 q 349 1135 407 1104 q 261 1217 290 1165 q 232 1329 232 1268 q 233 1360 232 1350 l 340 1360 q 342 1344 340 1350 q 382 1272 347 1304 q 492 1240 417 1240 q 600 1272 567 1240 q 638 1344 633 1303 q 639 1360 639 1350 l 746 1360 q 747 1331 747 1350 q 718 1217 747 1268 q 631 1135 689 1165 q 492 1104 572 1104 m 401 1425 l 611 1638 l 749 1542 q 613 1433 699 1486 q 481 1365 528 1381 l 401 1425 z "},"Ặ":{"ha":981,"x_min":-26,"x_max":1000,"o":"m 56 104 l 368 1038 l 608 1038 l 921 104 l 1000 89 l 1000 0 l 569 0 l 569 89 l 669 104 l 619 274 l 281 274 l 232 103 l 342 89 l 342 0 l -25 0 l -26 89 l 56 104 m 590 378 l 469 796 l 447 897 l 425 794 l 308 378 l 590 378 m 483 -271 q 417 -245 443 -271 q 390 -182 390 -219 q 419 -108 390 -137 q 494 -78 447 -78 q 566 -103 540 -78 q 592 -167 592 -128 q 564 -241 592 -211 q 485 -271 536 -271 l 483 -271 m 492 1101 q 349 1132 407 1101 q 261 1214 290 1163 q 232 1326 232 1265 q 233 1357 232 1347 l 340 1357 q 342 1342 340 1347 q 382 1269 347 1301 q 492 1238 417 1238 q 600 1269 567 1238 q 638 1342 633 1300 q 639 1357 639 1347 l 746 1357 q 747 1328 747 1347 q 718 1214 747 1265 q 631 1132 689 1163 q 492 1101 572 1101 z "},"Ằ":{"ha":981,"x_min":-26,"x_max":1000,"o":"m 56 104 l 368 1038 l 608 1038 l 921 104 l 1000 89 l 1000 0 l 569 0 l 569 89 l 669 104 l 619 274 l 281 274 l 232 103 l 342 89 l 342 0 l -25 0 l -26 89 l 56 104 m 590 378 l 469 796 l 447 897 l 425 794 l 308 378 l 590 378 m 492 1104 q 349 1135 407 1104 q 261 1217 290 1165 q 232 1329 232 1268 q 233 1360 232 1350 l 340 1360 q 342 1344 340 1350 q 382 1272 347 1304 q 492 1240 417 1240 q 600 1272 567 1240 q 638 1344 633 1303 q 639 1360 639 1350 l 746 1360 q 747 1331 747 1350 q 718 1217 747 1268 q 631 1135 689 1165 q 492 1104 572 1104 m 496 1369 q 358 1441 446 1386 q 231 1546 271 1496 l 368 1642 l 576 1429 l 496 1369 z "},"Ẳ":{"ha":981,"x_min":-26,"x_max":1000,"o":"m 56 104 l 368 1038 l 608 1038 l 921 104 l 1000 89 l 1000 0 l 569 0 l 569 89 l 669 104 l 619 274 l 281 274 l 232 103 l 342 89 l 342 0 l -25 0 l -26 89 l 56 104 m 590 378 l 469 796 l 447 897 l 425 794 l 308 378 l 590 378 m 492 1104 q 349 1135 407 1104 q 261 1217 290 1165 q 232 1329 232 1268 q 233 1360 232 1350 l 340 1360 q 342 1344 340 1350 q 382 1272 347 1304 q 492 1240 417 1240 q 600 1272 567 1240 q 638 1344 633 1303 q 639 1360 639 1350 l 746 1360 q 747 1331 747 1350 q 718 1217 747 1268 q 631 1135 689 1165 q 492 1104 572 1104 m 467 1358 q 444 1390 457 1368 q 432 1422 432 1413 q 440 1449 432 1439 q 467 1472 449 1458 q 492 1493 483 1485 q 503 1514 500 1501 l 503 1519 q 439 1575 503 1571 q 397 1572 403 1575 l 392 1694 q 413 1700 394 1697 q 446 1703 432 1703 q 539 1685 493 1703 q 615 1631 585 1667 q 646 1546 646 1596 q 628 1492 646 1514 q 576 1446 610 1471 l 553 1428 q 535 1390 535 1413 q 539 1367 535 1382 l 467 1358 z "},"Ẵ":{"ha":981,"x_min":-26,"x_max":1000,"o":"m 56 104 l 368 1038 l 608 1038 l 921 104 l 1000 89 l 1000 0 l 569 0 l 569 89 l 669 104 l 619 274 l 281 274 l 232 103 l 342 89 l 342 0 l -25 0 l -26 89 l 56 104 m 590 378 l 469 796 l 447 897 l 425 794 l 308 378 l 590 378 m 492 1104 q 349 1135 407 1104 q 261 1217 290 1165 q 232 1329 232 1268 q 233 1360 232 1350 l 340 1360 q 342 1344 340 1350 q 382 1272 347 1304 q 492 1240 417 1240 q 600 1272 567 1240 q 638 1344 633 1303 q 639 1360 639 1350 l 746 1360 q 747 1331 747 1350 q 718 1217 747 1268 q 631 1135 689 1165 q 492 1104 572 1104 m 613 1424 q 541 1438 572 1424 q 468 1482 510 1453 q 410 1519 435 1507 q 360 1531 386 1531 q 300 1511 322 1531 q 251 1458 278 1492 l 183 1519 q 263 1619 208 1575 q 393 1663 317 1663 q 467 1647 436 1663 q 538 1603 497 1632 q 590 1568 569 1579 q 636 1557 611 1557 q 693 1573 672 1557 q 726 1606 714 1589 q 743 1629 739 1624 l 811 1568 q 613 1424 742 1424 z "},"Â":{"ha":981,"x_min":-26,"x_max":1000,"o":"m 422 1361 l 551 1361 l 757 1160 l 683 1099 l 486 1232 l 288 1099 l 214 1158 l 422 1361 m 56 104 l 368 1038 l 608 1038 l 921 104 l 1000 89 l 1000 0 l 569 0 l 569 89 l 669 104 l 619 274 l 281 274 l 232 103 l 342 89 l 342 0 l -25 0 l -26 89 l 56 104 m 590 378 l 469 796 l 447 897 l 425 794 l 308 378 l 590 378 z "},"Ấ":{"ha":981,"x_min":-26,"x_max":1036,"o":"m 56 104 l 368 1038 l 608 1038 l 921 104 l 1000 89 l 1000 0 l 569 0 l 569 89 l 669 104 l 619 274 l 281 274 l 232 103 l 342 89 l 342 0 l -25 0 l -26 89 l 56 104 m 590 378 l 469 796 l 447 897 l 425 794 l 308 378 l 590 378 m 428 1361 l 557 1361 l 763 1160 l 689 1099 l 492 1232 l 293 1099 l 219 1158 l 428 1361 m 689 1326 l 899 1539 l 1036 1443 q 901 1335 986 1388 q 768 1267 815 1282 l 689 1326 z "},"Ậ":{"ha":981,"x_min":-26,"x_max":1000,"o":"m 56 104 l 368 1038 l 608 1038 l 921 104 l 1000 89 l 1000 0 l 569 0 l 569 89 l 669 104 l 619 274 l 281 274 l 232 103 l 342 89 l 342 0 l -25 0 l -26 89 l 56 104 m 590 378 l 469 796 l 447 897 l 425 794 l 308 378 l 590 378 m 483 -271 q 417 -245 443 -271 q 390 -182 390 -219 q 419 -108 390 -137 q 494 -78 447 -78 q 566 -103 540 -78 q 592 -167 592 -128 q 564 -241 592 -211 q 485 -271 536 -271 l 483 -271 m 426 1364 l 556 1364 l 761 1163 l 688 1101 l 490 1235 l 292 1101 l 218 1161 l 426 1364 z "},"Ầ":{"ha":981,"x_min":-26,"x_max":1000,"o":"m 56 104 l 368 1038 l 608 1038 l 921 104 l 1000 89 l 1000 0 l 569 0 l 569 89 l 669 104 l 619 274 l 281 274 l 232 103 l 342 89 l 342 0 l -25 0 l -26 89 l 56 104 m 590 378 l 469 796 l 447 897 l 425 794 l 308 378 l 590 378 m 426 1361 l 556 1361 l 761 1160 l 688 1099 l 490 1232 l 292 1099 l 218 1158 l 426 1361 m 750 1326 q 613 1398 700 1343 q 485 1503 525 1453 l 622 1599 l 831 1386 l 750 1326 z "},"Ẩ":{"ha":981,"x_min":-26,"x_max":1000,"o":"m 56 104 l 368 1038 l 608 1038 l 921 104 l 1000 89 l 1000 0 l 569 0 l 569 89 l 669 104 l 619 274 l 281 274 l 232 103 l 342 89 l 342 0 l -25 0 l -26 89 l 56 104 m 590 378 l 469 796 l 447 897 l 425 794 l 308 378 l 590 378 m 428 1361 l 557 1361 l 763 1160 l 689 1099 l 492 1232 l 293 1099 l 219 1158 l 428 1361 m 735 1267 q 713 1299 725 1276 q 700 1331 700 1321 q 708 1357 700 1347 q 735 1381 717 1367 q 760 1401 751 1393 q 771 1422 768 1410 l 771 1428 q 707 1483 771 1479 q 665 1481 671 1483 l 660 1603 q 681 1608 663 1606 q 714 1611 700 1611 q 807 1593 761 1611 q 883 1540 853 1575 q 914 1454 914 1504 q 896 1401 914 1422 q 844 1354 878 1379 l 821 1336 q 803 1299 803 1321 q 807 1275 803 1290 l 735 1267 z "},"Ẫ":{"ha":981,"x_min":-26,"x_max":1000,"o":"m 56 104 l 368 1038 l 608 1038 l 921 104 l 1000 89 l 1000 0 l 569 0 l 569 89 l 669 104 l 619 274 l 281 274 l 232 103 l 342 89 l 342 0 l -25 0 l -26 89 l 56 104 m 590 378 l 469 796 l 447 897 l 425 794 l 308 378 l 590 378 m 426 1361 l 556 1361 l 761 1160 l 688 1099 l 490 1232 l 292 1099 l 218 1158 l 426 1361 m 646 1407 q 574 1422 606 1407 q 501 1465 543 1436 q 444 1502 468 1490 q 393 1514 419 1514 q 333 1494 356 1514 q 285 1442 311 1475 l 217 1503 q 296 1602 242 1558 q 426 1646 350 1646 q 500 1631 469 1646 q 571 1586 531 1615 q 624 1551 603 1563 q 669 1540 644 1540 q 726 1556 706 1540 q 760 1590 747 1572 q 776 1613 772 1607 l 844 1551 q 646 1407 775 1407 z "},"Ä":{"ha":981,"x_min":-26,"x_max":1000,"o":"m 292 1121 q 222 1151 250 1121 q 194 1225 194 1182 q 224 1314 194 1279 q 311 1349 254 1349 l 313 1349 q 393 1319 365 1349 q 421 1244 421 1289 q 389 1155 421 1189 q 293 1121 357 1121 l 292 1121 m 651 1121 q 582 1153 610 1121 q 554 1225 554 1185 q 584 1314 554 1279 q 671 1349 614 1349 l 672 1349 q 752 1319 725 1349 q 779 1244 779 1289 q 747 1155 779 1189 q 651 1121 715 1121 m 56 104 l 368 1038 l 608 1038 l 921 104 l 1000 89 l 1000 0 l 569 0 l 569 89 l 669 104 l 619 274 l 281 274 l 232 103 l 342 89 l 342 0 l -25 0 l -26 89 l 56 104 m 590 378 l 469 796 l 447 897 l 425 794 l 308 378 l 590 378 z "},"Ạ":{"ha":981,"x_min":-26,"x_max":1000,"o":"m 56 104 l 368 1038 l 608 1038 l 921 104 l 1000 89 l 1000 0 l 569 0 l 569 89 l 669 104 l 619 274 l 281 274 l 232 103 l 342 89 l 342 0 l -25 0 l -26 89 l 56 104 m 590 378 l 469 796 l 447 897 l 425 794 l 308 378 l 590 378 m 483 -271 q 417 -245 443 -271 q 390 -182 390 -219 q 419 -108 390 -137 q 494 -78 447 -78 q 566 -103 540 -78 q 592 -167 592 -128 q 564 -241 592 -211 q 485 -271 536 -271 l 483 -271 z "},"À":{"ha":981,"x_min":-26,"x_max":1000,"o":"m 56 104 l 368 1038 l 608 1038 l 921 104 l 1000 89 l 1000 0 l 569 0 l 569 89 l 669 104 l 619 274 l 281 274 l 232 103 l 342 89 l 342 0 l -25 0 l -26 89 l 56 104 m 590 378 l 469 796 l 447 897 l 425 794 l 308 378 l 590 378 m 503 1092 q 365 1163 453 1108 q 238 1268 278 1218 l 375 1364 l 583 1151 l 503 1092 z "},"Ả":{"ha":981,"x_min":-26,"x_max":1000,"o":"m 56 104 l 368 1038 l 608 1038 l 921 104 l 1000 89 l 1000 0 l 569 0 l 569 89 l 669 104 l 619 274 l 281 274 l 232 103 l 342 89 l 342 0 l -25 0 l -26 89 l 56 104 m 590 378 l 469 796 l 447 897 l 425 794 l 308 378 l 590 378 m 457 1107 q 435 1139 447 1117 q 422 1171 422 1161 q 431 1197 422 1188 q 457 1221 439 1207 q 482 1242 474 1233 q 493 1263 490 1250 l 493 1268 q 429 1324 493 1319 q 388 1321 393 1324 l 382 1443 q 403 1449 385 1446 q 436 1451 422 1451 q 529 1433 483 1451 q 606 1380 575 1415 q 636 1294 636 1344 q 618 1241 636 1263 q 567 1194 600 1219 l 543 1176 q 525 1139 525 1161 q 529 1115 525 1131 l 457 1107 z "},"Ā":{"ha":981,"x_min":-26,"x_max":1000,"o":"m 707 1294 l 707 1164 l 268 1164 l 268 1294 l 707 1294 m 56 104 l 368 1038 l 608 1038 l 921 104 l 1000 89 l 1000 0 l 569 0 l 569 89 l 669 104 l 619 274 l 281 274 l 232 103 l 342 89 l 342 0 l -25 0 l -26 89 l 56 104 m 590 378 l 469 796 l 447 897 l 425 794 l 308 378 l 590 378 z "},"Ą":{"ha":976,"x_min":-26,"x_max":1000,"o":"m 368 1038 l 608 1038 l 921 104 l 1000 89 l 1000 0 l 917 0 q 810 -69 851 -25 q 768 -156 768 -114 q 796 -209 768 -190 q 869 -228 824 -228 q 957 -208 914 -228 l 957 -303 q 880 -335 929 -324 q 785 -347 831 -347 q 647 -310 700 -347 q 594 -210 594 -274 q 651 -88 594 -149 q 792 0 707 -28 l 569 0 l 569 89 l 669 104 l 619 274 l 281 274 l 232 103 l 342 89 l 342 0 l -25 0 l -26 89 l 56 104 l 368 1038 m 590 378 l 469 796 l 447 897 l 425 794 l 308 378 l 590 378 z "},"Å":{"ha":981,"x_min":-26,"x_max":1000,"o":"m 1000 89 l 1000 0 l 569 0 l 569 89 l 669 104 l 619 274 l 281 274 l 232 103 l 342 89 l 342 0 l -25 0 l -26 89 l 56 104 l 363 1022 q 247 1183 247 1063 q 317 1317 247 1268 q 497 1365 386 1365 q 675 1317 618 1365 q 732 1188 732 1268 q 701 1089 732 1131 q 613 1026 669 1047 l 921 104 l 1000 89 m 490 1288 q 378 1188 378 1288 q 405 1114 378 1144 q 489 1083 432 1083 q 576 1108 550 1083 q 601 1179 601 1133 q 575 1258 601 1228 q 490 1288 549 1288 m 308 378 l 590 378 l 469 796 l 447 897 l 425 794 l 308 378 z "},"Ã":{"ha":981,"x_min":-26,"x_max":1000,"o":"m 603 1121 q 531 1135 563 1121 q 458 1179 500 1150 q 401 1216 425 1204 q 350 1228 376 1228 q 289 1208 313 1228 q 242 1156 265 1188 l 174 1217 q 252 1316 199 1272 q 383 1360 306 1360 q 457 1344 426 1360 q 528 1300 488 1329 q 581 1265 561 1275 q 625 1254 600 1254 q 683 1270 663 1254 q 717 1303 704 1286 q 733 1326 729 1321 l 801 1265 q 603 1121 729 1121 m 56 104 l 368 1038 l 608 1038 l 921 104 l 1000 89 l 1000 0 l 569 0 l 569 89 l 669 104 l 619 274 l 281 274 l 232 103 l 342 89 l 342 0 l -25 0 l -26 89 l 56 104 m 590 378 l 469 796 l 447 897 l 425 794 l 308 378 l 590 378 z "},"Æ":{"ha":1311,"x_min":-114,"x_max":1311,"o":"m 556 104 l 556 286 l 235 286 l 165 104 l 269 88 l 269 0 l -114 0 l -114 88 l -15 104 l 328 919 l 150 939 l 150 1032 l 1200 1032 l 1221 789 l 1114 789 l 1065 929 l 783 943 l 783 578 l 958 583 l 981 696 l 1075 696 l 1075 350 l 982 350 l 960 471 l 783 475 l 783 94 l 1097 113 l 1185 292 l 1311 257 l 1264 0 l 446 0 l 446 88 l 556 104 m 556 393 l 556 933 l 474 933 l 403 740 l 274 393 l 556 393 z "},"Ǽ":{"ha":1311,"x_min":-114,"x_max":1311,"o":"m 556 104 l 556 286 l 235 286 l 165 104 l 269 88 l 269 0 l -114 0 l -114 88 l -15 104 l 328 919 l 150 939 l 150 1032 l 1200 1032 l 1221 789 l 1114 789 l 1065 929 l 783 943 l 783 578 l 958 583 l 981 696 l 1075 696 l 1075 350 l 982 350 l 960 471 l 783 475 l 783 94 l 1097 113 l 1185 292 l 1311 257 l 1264 0 l 446 0 l 446 88 l 556 104 m 556 393 l 556 933 l 474 933 l 403 740 l 274 393 l 556 393 m 557 1151 l 767 1364 l 904 1268 q 769 1160 854 1213 q 636 1092 683 1107 l 557 1151 z "},"B":{"ha":992,"x_min":50,"x_max":950,"o":"m 157 919 l 51 938 l 51 1032 l 268 1032 q 393 1038 315 1032 q 434 1040 410 1039 q 492 1042 458 1042 q 726 1014 642 1042 q 845 935 811 986 q 879 806 879 883 q 816 633 879 701 q 653 551 753 565 q 871 489 792 551 q 950 313 950 426 q 848 78 950 165 q 503 -8 746 -8 q 430 -6 465 -8 q 381 -4 394 -4 q 269 0 331 0 l 50 0 l 50 89 l 157 104 l 157 919 m 383 585 q 439 583 397 583 l 500 583 q 615 635 578 583 q 653 782 653 688 q 613 911 653 871 q 482 951 572 951 q 431 949 460 951 q 383 944 403 947 l 383 585 m 383 97 q 496 85 410 85 q 651 140 603 85 q 699 299 699 194 q 655 439 699 397 q 514 481 611 481 q 383 478 436 481 l 383 97 z "},"Ḃ":{"ha":992,"x_min":50,"x_max":950,"o":"m 157 919 l 51 938 l 51 1032 l 268 1032 q 393 1038 315 1032 q 434 1040 410 1039 q 492 1042 458 1042 q 726 1014 642 1042 q 845 935 811 986 q 879 806 879 883 q 816 633 879 701 q 653 551 753 565 q 871 489 792 551 q 950 313 950 426 q 848 78 950 165 q 503 -8 746 -8 q 430 -6 465 -8 q 381 -4 394 -4 q 269 0 331 0 l 50 0 l 50 89 l 157 104 l 157 919 m 383 585 q 439 583 397 583 l 500 583 q 615 635 578 583 q 653 782 653 688 q 613 911 653 871 q 482 951 572 951 q 431 949 460 951 q 383 944 403 947 l 383 585 m 383 97 q 496 85 410 85 q 651 140 603 85 q 699 299 699 194 q 655 439 699 397 q 514 481 611 481 q 383 478 436 481 l 383 97 m 485 1126 q 405 1156 436 1126 q 374 1229 374 1185 q 406 1317 374 1285 q 497 1349 438 1349 q 585 1320 553 1349 q 617 1247 617 1292 q 583 1159 617 1192 q 485 1126 550 1126 z "},"C":{"ha":918,"x_min":36,"x_max":875,"o":"m 526 -15 q 162 124 288 -15 q 36 507 36 264 q 103 792 36 671 q 286 978 169 914 q 550 1043 403 1043 q 663 1037 608 1043 q 793 1019 717 1031 q 872 1008 849 1010 l 856 704 l 714 704 l 668 914 q 619 938 653 928 q 533 947 586 947 q 360 840 425 947 q 294 526 294 732 q 358 204 294 326 q 540 82 421 82 q 628 93 597 82 q 681 125 658 104 l 743 274 l 875 261 l 849 38 q 749 17 810 35 q 647 -7 696 1 q 526 -15 597 -15 z "},"Ć":{"ha":918,"x_min":36,"x_max":875,"o":"m 526 -15 q 162 124 288 -15 q 36 507 36 264 q 103 792 36 671 q 286 978 169 914 q 550 1043 403 1043 q 663 1037 608 1043 q 793 1019 717 1031 q 872 1008 849 1010 l 856 704 l 714 704 l 668 914 q 619 938 653 928 q 533 947 586 947 q 360 840 425 947 q 294 526 294 732 q 358 204 294 326 q 540 82 421 82 q 628 93 597 82 q 681 125 658 104 l 743 274 l 875 261 l 849 38 q 749 17 810 35 q 647 -7 696 1 q 526 -15 597 -15 m 425 1151 l 635 1364 l 772 1268 q 637 1160 722 1213 q 504 1092 551 1107 l 425 1151 z "},"Č":{"ha":918,"x_min":36,"x_max":875,"o":"m 351 1365 l 536 1240 l 732 1365 l 804 1306 l 601 1113 l 471 1113 l 276 1306 l 351 1365 m 526 -15 q 162 124 288 -15 q 36 507 36 264 q 103 792 36 671 q 286 978 169 914 q 550 1043 403 1043 q 663 1037 608 1043 q 793 1019 717 1031 q 872 1008 849 1010 l 856 704 l 714 704 l 668 914 q 619 938 653 928 q 533 947 586 947 q 360 840 425 947 q 294 526 294 732 q 358 204 294 326 q 540 82 421 82 q 628 93 597 82 q 681 125 658 104 l 743 274 l 875 261 l 849 38 q 749 17 810 35 q 647 -7 696 1 q 526 -15 597 -15 z "},"Ç":{"ha":918,"x_min":36,"x_max":875,"o":"m 849 38 q 750 17 811 35 q 665 -3 703 4 q 572 -14 626 -11 q 626 -94 603 -49 q 650 -190 650 -140 q 599 -317 650 -281 q 446 -354 547 -354 q 395 -349 424 -354 q 347 -335 367 -343 l 347 -210 q 406 -218 376 -218 q 481 -200 458 -218 q 503 -122 503 -182 q 492 -66 503 -96 q 468 -12 482 -36 q 147 143 257 6 q 36 507 36 281 q 103 792 36 671 q 286 978 169 914 q 550 1043 403 1043 q 663 1037 608 1043 q 793 1019 717 1031 q 872 1008 849 1010 l 856 704 l 714 704 l 668 914 q 619 938 653 928 q 533 947 586 947 q 360 840 425 947 q 294 526 294 732 q 358 204 294 326 q 540 82 421 82 q 628 93 597 82 q 681 125 658 104 l 743 274 l 875 261 l 849 38 z "},"Ĉ":{"ha":918,"x_min":36,"x_max":875,"o":"m 472 1361 l 601 1361 l 807 1160 l 733 1099 l 536 1232 l 336 1099 l 264 1158 l 472 1361 m 526 -15 q 162 124 288 -15 q 36 507 36 264 q 103 792 36 671 q 286 978 169 914 q 550 1043 403 1043 q 663 1037 608 1043 q 793 1019 717 1031 q 872 1008 849 1010 l 856 704 l 714 704 l 668 914 q 619 938 653 928 q 533 947 586 947 q 360 840 425 947 q 294 526 294 732 q 358 204 294 326 q 540 82 421 82 q 628 93 597 82 q 681 125 658 104 l 743 274 l 875 261 l 849 38 q 749 17 810 35 q 647 -7 696 1 q 526 -15 597 -15 z "},"Ċ":{"ha":918,"x_min":36,"x_max":875,"o":"m 526 -15 q 162 124 288 -15 q 36 507 36 264 q 103 792 36 671 q 286 978 169 914 q 550 1043 403 1043 q 663 1037 608 1043 q 793 1019 717 1031 q 872 1008 849 1010 l 856 704 l 714 704 l 668 914 q 619 938 653 928 q 533 947 586 947 q 360 840 425 947 q 294 526 294 732 q 358 204 294 326 q 540 82 421 82 q 628 93 597 82 q 681 125 658 104 l 743 274 l 875 261 l 849 38 q 749 17 810 35 q 647 -7 696 1 q 526 -15 597 -15 m 513 1126 q 433 1156 464 1126 q 401 1229 401 1185 q 433 1317 401 1285 q 525 1349 465 1349 q 613 1320 581 1349 q 644 1247 644 1292 q 611 1159 644 1192 q 513 1126 578 1126 z "},"D":{"ha":1060,"x_min":50,"x_max":1021,"o":"m 157 919 l 54 938 l 54 1032 l 268 1032 q 392 1038 314 1032 q 447 1040 411 1039 q 511 1042 482 1042 q 894 915 767 1042 q 1021 551 1021 788 q 958 261 1021 389 q 778 61 896 133 q 504 -11 661 -11 q 375 -6 464 -11 q 269 0 297 0 l 50 0 l 50 89 l 157 104 l 157 919 m 383 100 q 500 88 426 88 q 699 195 628 89 q 771 518 771 301 q 701 834 771 721 q 482 947 631 947 q 421 942 449 947 q 383 936 393 938 l 383 100 z "},"Ð":{"ha":1060,"x_min":50,"x_max":1021,"o":"m 157 919 l 54 938 l 54 1032 l 268 1032 q 392 1038 314 1032 q 447 1040 411 1039 q 511 1042 482 1042 q 894 915 767 1042 q 1021 551 1021 788 q 958 261 1021 389 q 778 61 896 133 q 504 -11 661 -11 q 375 -6 464 -11 q 269 0 297 0 l 50 0 l 50 89 l 157 104 l 157 488 l 60 488 l 60 582 l 157 582 l 157 919 m 581 488 l 383 488 l 383 100 q 500 88 426 88 q 699 195 628 89 q 771 518 771 301 q 701 834 771 721 q 482 947 631 947 q 421 942 449 947 q 383 936 393 938 l 383 582 l 581 582 l 581 488 z "},"Ď":{"ha":1060,"x_min":50,"x_max":1021,"o":"m 351 1365 l 536 1240 l 732 1365 l 804 1306 l 601 1113 l 471 1113 l 276 1306 l 351 1365 m 157 919 l 54 938 l 54 1032 l 268 1032 q 392 1038 314 1032 q 447 1040 411 1039 q 511 1042 482 1042 q 894 915 767 1042 q 1021 551 1021 788 q 958 261 1021 389 q 778 61 896 133 q 504 -11 661 -11 q 375 -6 464 -11 q 269 0 297 0 l 50 0 l 50 89 l 157 104 l 157 919 m 383 100 q 500 88 426 88 q 699 195 628 89 q 771 518 771 301 q 701 834 771 721 q 482 947 631 947 q 421 942 449 947 q 383 936 393 938 l 383 100 z "},"Đ":{"ha":1060,"x_min":50,"x_max":1021,"o":"m 157 919 l 54 938 l 54 1032 l 268 1032 q 392 1038 314 1032 q 447 1040 411 1039 q 511 1042 482 1042 q 894 915 767 1042 q 1021 551 1021 788 q 958 261 1021 389 q 778 61 896 133 q 504 -11 661 -11 q 375 -6 464 -11 q 269 0 297 0 l 50 0 l 50 89 l 157 104 l 157 481 l 50 481 l 50 579 l 157 579 l 157 919 m 571 481 l 383 481 l 383 100 q 500 88 426 88 q 699 195 628 89 q 771 518 771 301 q 701 834 771 721 q 482 947 631 947 q 421 942 449 947 q 383 936 393 938 l 383 579 l 571 579 l 571 481 z "},"Ḋ":{"ha":1060,"x_min":50,"x_max":1021,"o":"m 157 919 l 54 938 l 54 1032 l 268 1032 q 392 1038 314 1032 q 447 1040 411 1039 q 511 1042 482 1042 q 894 915 767 1042 q 1021 551 1021 788 q 958 261 1021 389 q 778 61 896 133 q 504 -11 661 -11 q 375 -6 464 -11 q 269 0 297 0 l 50 0 l 50 89 l 157 104 l 157 919 m 383 100 q 500 88 426 88 q 699 195 628 89 q 771 518 771 301 q 701 834 771 721 q 482 947 631 947 q 421 942 449 947 q 383 936 393 938 l 383 100 m 518 1126 q 438 1156 469 1126 q 407 1229 407 1185 q 439 1317 407 1285 q 531 1349 471 1349 q 618 1320 586 1349 q 650 1247 650 1292 q 617 1159 650 1192 q 518 1126 583 1126 z "},"E":{"ha":913,"x_min":47,"x_max":896,"o":"m 157 104 l 157 919 l 47 938 l 47 1032 l 801 1032 l 819 790 l 714 790 l 667 929 l 386 942 l 386 578 l 561 582 l 585 696 l 679 696 l 679 350 l 585 350 l 563 472 l 386 475 l 386 94 l 699 113 l 782 292 l 896 260 l 863 0 l 50 0 l 50 89 l 157 104 z "},"É":{"ha":913,"x_min":47,"x_max":896,"o":"m 157 104 l 157 919 l 47 938 l 47 1032 l 801 1032 l 819 790 l 714 790 l 667 929 l 386 942 l 386 578 l 561 582 l 585 696 l 679 696 l 679 350 l 585 350 l 563 472 l 386 475 l 386 94 l 699 113 l 782 292 l 896 260 l 863 0 l 50 0 l 50 89 l 157 104 m 385 1151 l 594 1364 l 732 1268 q 597 1160 682 1213 q 464 1092 511 1107 l 385 1151 z "},"Ĕ":{"ha":913,"x_min":47,"x_max":896,"o":"m 476 1104 q 334 1135 393 1104 q 246 1217 275 1165 q 217 1329 217 1268 q 218 1360 217 1350 l 325 1360 q 326 1344 325 1350 q 367 1272 332 1304 q 478 1240 403 1240 q 585 1272 553 1240 q 622 1344 618 1303 q 624 1360 624 1350 l 732 1360 q 733 1331 733 1350 q 703 1217 733 1269 q 615 1135 674 1165 q 476 1104 557 1104 m 157 104 l 157 919 l 47 938 l 47 1032 l 801 1032 l 819 790 l 714 790 l 667 929 l 386 942 l 386 578 l 561 582 l 585 696 l 679 696 l 679 350 l 585 350 l 563 472 l 386 475 l 386 94 l 699 113 l 782 292 l 896 260 l 863 0 l 50 0 l 50 89 l 157 104 z "},"Ě":{"ha":913,"x_min":47,"x_max":896,"o":"m 289 1365 l 474 1240 l 669 1365 l 742 1306 l 539 1113 l 408 1113 l 214 1306 l 289 1365 m 157 104 l 157 919 l 47 938 l 47 1032 l 801 1032 l 819 790 l 714 790 l 667 929 l 386 942 l 386 578 l 561 582 l 585 696 l 679 696 l 679 350 l 585 350 l 563 472 l 386 475 l 386 94 l 699 113 l 782 292 l 896 260 l 863 0 l 50 0 l 50 89 l 157 104 z "},"Ê":{"ha":913,"x_min":47,"x_max":896,"o":"m 408 1361 l 539 1361 l 744 1160 l 671 1099 l 474 1232 l 274 1099 l 201 1158 l 408 1361 m 157 104 l 157 919 l 47 938 l 47 1032 l 801 1032 l 819 790 l 714 790 l 667 929 l 386 942 l 386 578 l 561 582 l 585 696 l 679 696 l 679 350 l 585 350 l 563 472 l 386 475 l 386 94 l 699 113 l 782 292 l 896 260 l 863 0 l 50 0 l 50 89 l 157 104 z "},"Ế":{"ha":913,"x_min":47,"x_max":1029,"o":"m 157 104 l 157 919 l 47 938 l 47 1032 l 801 1032 l 819 790 l 714 790 l 667 929 l 386 942 l 386 578 l 561 582 l 585 696 l 679 696 l 679 350 l 585 350 l 563 472 l 386 475 l 386 94 l 699 113 l 782 292 l 896 260 l 863 0 l 50 0 l 50 89 l 157 104 m 421 1361 l 550 1361 l 756 1160 l 682 1099 l 485 1232 l 286 1099 l 213 1158 l 421 1361 m 682 1326 l 892 1539 l 1029 1443 q 894 1335 979 1388 q 761 1267 808 1282 l 682 1326 z "},"Ệ":{"ha":913,"x_min":47,"x_max":896,"o":"m 157 104 l 157 919 l 47 938 l 47 1032 l 801 1032 l 819 790 l 714 790 l 667 929 l 386 942 l 386 578 l 561 582 l 585 696 l 679 696 l 679 350 l 585 350 l 563 472 l 386 475 l 386 94 l 699 113 l 782 292 l 896 260 l 863 0 l 50 0 l 50 89 l 157 104 m 449 -271 q 382 -245 408 -271 q 356 -182 356 -219 q 384 -108 356 -137 q 460 -78 413 -78 q 531 -103 506 -78 q 557 -167 557 -128 q 529 -241 557 -211 q 450 -271 501 -271 l 449 -271 m 393 1364 l 522 1364 l 728 1163 l 654 1101 l 457 1235 l 258 1101 l 185 1161 l 393 1364 z "},"Ề":{"ha":913,"x_min":47,"x_max":896,"o":"m 157 104 l 157 919 l 47 938 l 47 1032 l 801 1032 l 819 790 l 714 790 l 667 929 l 386 942 l 386 578 l 561 582 l 585 696 l 679 696 l 679 350 l 585 350 l 563 472 l 386 475 l 386 94 l 699 113 l 782 292 l 896 260 l 863 0 l 50 0 l 50 89 l 157 104 m 419 1361 l 549 1361 l 754 1160 l 681 1099 l 483 1232 l 285 1099 l 211 1158 l 419 1361 m 743 1326 q 606 1398 693 1343 q 478 1503 518 1453 l 615 1599 l 824 1386 l 743 1326 z "},"Ể":{"ha":913,"x_min":47,"x_max":907,"o":"m 157 104 l 157 919 l 47 938 l 47 1032 l 801 1032 l 819 790 l 714 790 l 667 929 l 386 942 l 386 578 l 561 582 l 585 696 l 679 696 l 679 350 l 585 350 l 563 472 l 386 475 l 386 94 l 699 113 l 782 292 l 896 260 l 863 0 l 50 0 l 50 89 l 157 104 m 421 1361 l 550 1361 l 756 1160 l 682 1099 l 485 1232 l 286 1099 l 213 1158 l 421 1361 m 728 1267 q 706 1299 718 1276 q 693 1331 693 1321 q 701 1357 693 1347 q 728 1381 710 1367 q 753 1401 744 1393 q 764 1422 761 1410 l 764 1428 q 700 1483 764 1479 q 658 1481 664 1483 l 653 1603 q 674 1608 656 1606 q 707 1611 693 1611 q 800 1593 754 1611 q 876 1540 846 1575 q 907 1454 907 1504 q 889 1401 907 1422 q 838 1354 871 1379 l 814 1336 q 796 1299 796 1321 q 800 1275 796 1290 l 728 1267 z "},"Ễ":{"ha":913,"x_min":47,"x_max":896,"o":"m 157 104 l 157 919 l 47 938 l 47 1032 l 801 1032 l 819 790 l 714 790 l 667 929 l 386 942 l 386 578 l 561 582 l 585 696 l 679 696 l 679 350 l 585 350 l 563 472 l 386 475 l 386 94 l 699 113 l 782 292 l 896 260 l 863 0 l 50 0 l 50 89 l 157 104 m 419 1361 l 549 1361 l 754 1160 l 681 1099 l 483 1232 l 285 1099 l 211 1158 l 419 1361 m 639 1407 q 567 1422 599 1407 q 494 1465 536 1436 q 437 1502 461 1490 q 386 1514 413 1514 q 326 1494 349 1514 q 278 1442 304 1475 l 210 1503 q 289 1602 235 1558 q 419 1646 343 1646 q 493 1631 463 1646 q 564 1586 524 1615 q 617 1551 596 1563 q 663 1540 638 1540 q 719 1556 699 1540 q 753 1590 740 1572 q 769 1613 765 1607 l 838 1551 q 639 1407 768 1407 z "},"Ë":{"ha":913,"x_min":47,"x_max":896,"o":"m 279 1121 q 210 1151 238 1121 q 182 1225 182 1182 q 212 1314 182 1279 q 299 1349 242 1349 l 300 1349 q 381 1319 353 1349 q 408 1244 408 1289 q 376 1155 408 1189 q 281 1121 344 1121 l 279 1121 m 639 1121 q 569 1153 597 1121 q 542 1225 542 1185 q 572 1314 542 1279 q 658 1349 601 1349 l 660 1349 q 740 1319 713 1349 q 767 1244 767 1289 q 735 1155 767 1189 q 639 1121 703 1121 m 157 104 l 157 919 l 47 938 l 47 1032 l 801 1032 l 819 790 l 714 790 l 667 929 l 386 942 l 386 578 l 561 582 l 585 696 l 679 696 l 679 350 l 585 350 l 563 472 l 386 475 l 386 94 l 699 113 l 782 292 l 896 260 l 863 0 l 50 0 l 50 89 l 157 104 z "},"Ė":{"ha":913,"x_min":47,"x_max":896,"o":"m 157 104 l 157 919 l 47 938 l 47 1032 l 801 1032 l 819 790 l 714 790 l 667 929 l 386 942 l 386 578 l 561 582 l 585 696 l 679 696 l 679 350 l 585 350 l 563 472 l 386 475 l 386 94 l 699 113 l 782 292 l 896 260 l 863 0 l 50 0 l 50 89 l 157 104 m 472 1126 q 392 1156 424 1126 q 361 1229 361 1185 q 393 1317 361 1285 q 485 1349 425 1349 q 572 1320 540 1349 q 604 1247 604 1292 q 571 1159 604 1192 q 472 1126 538 1126 z "},"Ẹ":{"ha":913,"x_min":47,"x_max":896,"o":"m 157 104 l 157 919 l 47 938 l 47 1032 l 801 1032 l 819 790 l 714 790 l 667 929 l 386 942 l 386 578 l 561 582 l 585 696 l 679 696 l 679 350 l 585 350 l 563 472 l 386 475 l 386 94 l 699 113 l 782 292 l 896 260 l 863 0 l 50 0 l 50 89 l 157 104 m 449 -271 q 382 -245 408 -271 q 356 -182 356 -219 q 384 -108 356 -137 q 460 -78 413 -78 q 531 -103 506 -78 q 557 -167 557 -128 q 529 -241 557 -211 q 450 -271 501 -271 l 449 -271 z "},"È":{"ha":913,"x_min":47,"x_max":896,"o":"m 157 104 l 157 919 l 47 938 l 47 1032 l 801 1032 l 819 790 l 714 790 l 667 929 l 386 942 l 386 578 l 561 582 l 585 696 l 679 696 l 679 350 l 585 350 l 563 472 l 386 475 l 386 94 l 699 113 l 782 292 l 896 260 l 863 0 l 50 0 l 50 89 l 157 104 m 496 1092 q 358 1163 446 1108 q 231 1268 271 1218 l 368 1364 l 576 1151 l 496 1092 z "},"Ẻ":{"ha":913,"x_min":47,"x_max":896,"o":"m 157 104 l 157 919 l 47 938 l 47 1032 l 801 1032 l 819 790 l 714 790 l 667 929 l 386 942 l 386 578 l 561 582 l 585 696 l 679 696 l 679 350 l 585 350 l 563 472 l 386 475 l 386 94 l 699 113 l 782 292 l 896 260 l 863 0 l 50 0 l 50 89 l 157 104 m 450 1107 q 428 1139 440 1117 q 415 1171 415 1161 q 424 1197 415 1188 q 450 1221 432 1207 q 475 1242 467 1233 q 486 1263 483 1250 l 486 1268 q 422 1324 486 1319 q 381 1321 386 1324 l 375 1443 q 397 1449 378 1446 q 429 1451 415 1451 q 522 1433 476 1451 q 599 1380 568 1415 q 629 1294 629 1344 q 611 1241 629 1263 q 560 1194 593 1219 l 536 1176 q 518 1139 518 1161 q 522 1115 518 1131 l 450 1107 z "},"Ē":{"ha":913,"x_min":47,"x_max":896,"o":"m 694 1294 l 694 1164 l 256 1164 l 256 1294 l 694 1294 m 157 104 l 157 919 l 47 938 l 47 1032 l 801 1032 l 819 790 l 714 790 l 667 929 l 386 942 l 386 578 l 561 582 l 585 696 l 679 696 l 679 350 l 585 350 l 563 472 l 386 475 l 386 94 l 699 113 l 782 292 l 896 260 l 863 0 l 50 0 l 50 89 l 157 104 z "},"Ę":{"ha":913,"x_min":47,"x_max":896,"o":"m 157 919 l 47 938 l 47 1032 l 801 1032 l 819 790 l 714 790 l 667 929 l 386 942 l 386 578 l 561 582 l 585 696 l 679 696 l 679 350 l 585 350 l 563 472 l 386 475 l 386 94 l 699 113 l 782 292 l 896 260 l 863 0 l 850 0 q 766 -37 806 -11 q 702 -95 726 -64 q 678 -151 678 -126 q 702 -208 678 -187 q 768 -228 726 -228 q 810 -224 792 -228 q 854 -208 829 -219 l 854 -303 q 778 -335 826 -324 q 685 -347 731 -347 q 550 -311 600 -347 q 500 -210 500 -275 q 554 -90 500 -147 q 701 0 608 -33 l 50 0 l 50 89 l 157 104 l 157 919 z "},"Ẽ":{"ha":913,"x_min":47,"x_max":896,"o":"m 157 104 l 157 919 l 47 938 l 47 1032 l 801 1032 l 819 790 l 714 790 l 667 929 l 386 942 l 386 578 l 561 582 l 585 696 l 679 696 l 679 350 l 585 350 l 563 472 l 386 475 l 386 94 l 699 113 l 782 292 l 896 260 l 863 0 l 50 0 l 50 89 l 157 104 m 599 1121 q 527 1135 558 1121 q 454 1179 496 1150 q 397 1216 421 1204 q 346 1228 372 1228 q 286 1208 308 1228 q 238 1156 264 1189 l 169 1217 q 249 1316 194 1272 q 379 1360 303 1360 q 453 1344 422 1360 q 524 1300 483 1329 q 576 1265 556 1276 q 622 1254 597 1254 q 679 1270 658 1254 q 713 1303 700 1286 q 729 1326 725 1321 l 797 1265 q 599 1121 728 1121 z "},"F":{"ha":865,"x_min":44,"x_max":838,"o":"m 157 104 l 157 919 l 44 938 l 44 1032 l 822 1032 l 838 775 l 715 775 l 661 926 l 386 942 l 386 556 l 574 560 l 601 685 l 697 685 l 697 318 l 603 318 l 574 446 l 386 451 l 386 104 l 599 89 l 599 0 l 51 0 l 51 89 l 157 104 z "},"Ḟ":{"ha":865,"x_min":44,"x_max":838,"o":"m 157 104 l 157 919 l 44 938 l 44 1032 l 822 1032 l 838 775 l 715 775 l 661 926 l 386 942 l 386 556 l 574 560 l 601 685 l 697 685 l 697 318 l 603 318 l 574 446 l 386 451 l 386 104 l 599 89 l 599 0 l 51 0 l 51 89 l 157 104 m 454 1126 q 374 1156 406 1126 q 343 1229 343 1185 q 375 1317 343 1285 q 467 1349 407 1349 q 554 1320 522 1349 q 586 1247 586 1292 q 553 1159 586 1192 q 454 1126 519 1126 z "},"G":{"ha":1036,"x_min":43,"x_max":1010,"o":"m 533 -15 q 269 53 379 -15 q 101 239 158 121 q 43 506 43 357 q 108 799 43 678 q 295 982 174 919 q 582 1044 417 1044 q 931 1001 738 1044 l 914 736 l 753 736 l 715 918 q 667 943 701 932 q 576 954 633 954 q 378 844 449 954 q 308 528 308 735 q 369 201 308 322 q 554 79 429 79 q 649 92 606 79 q 714 126 692 106 l 714 418 l 581 433 l 581 532 l 1010 532 l 1010 433 l 939 421 l 939 56 q 831 33 914 54 q 680 -2 747 11 q 533 -15 613 -15 z "},"Ğ":{"ha":1038,"x_min":42,"x_max":1010,"o":"m 560 1104 q 417 1135 475 1104 q 329 1217 358 1165 q 300 1329 300 1268 q 301 1360 300 1350 l 408 1360 q 410 1344 408 1350 q 450 1272 415 1304 q 560 1240 485 1240 q 668 1272 635 1240 q 706 1344 701 1303 q 707 1360 707 1350 l 814 1360 q 815 1331 815 1350 q 786 1217 815 1268 q 699 1135 757 1165 q 560 1104 640 1104 m 533 -15 q 268 53 379 -15 q 99 239 157 121 q 42 506 42 357 q 108 799 42 678 q 295 982 174 919 q 582 1044 417 1044 q 770 1031 676 1044 q 929 1001 864 1017 l 914 736 l 753 736 l 715 918 q 667 943 701 932 q 575 954 632 954 q 378 844 449 954 q 308 528 308 735 q 368 201 308 322 q 554 79 428 79 q 649 92 606 79 q 714 126 692 106 l 714 418 l 579 433 l 579 532 l 1010 532 l 1010 433 l 939 421 l 939 56 q 831 33 914 54 q 678 -3 744 10 q 533 -15 611 -15 z "},"Ĝ":{"ha":1036,"x_min":43,"x_max":1010,"o":"m 514 1361 l 643 1361 l 849 1160 l 775 1099 l 578 1232 l 378 1099 l 306 1158 l 514 1361 m 533 -15 q 269 53 379 -15 q 101 239 158 121 q 43 506 43 357 q 108 799 43 678 q 295 982 174 919 q 582 1044 417 1044 q 931 1001 738 1044 l 914 736 l 753 736 l 715 918 q 667 943 701 932 q 576 954 633 954 q 378 844 449 954 q 308 528 308 735 q 369 201 308 322 q 554 79 429 79 q 649 92 606 79 q 714 126 692 106 l 714 418 l 581 433 l 581 532 l 1010 532 l 1010 433 l 939 421 l 939 56 q 831 33 914 54 q 680 -2 747 11 q 533 -15 613 -15 z "},"Ģ":{"ha":1039,"x_min":43,"x_max":1010,"o":"m 535 -15 q 269 53 381 -15 q 101 239 158 121 q 43 506 43 357 q 108 799 43 678 q 295 982 174 919 q 582 1044 417 1044 q 931 1001 738 1044 l 914 736 l 754 736 l 715 918 q 668 943 703 932 q 576 954 633 954 q 378 844 449 954 q 308 528 308 735 q 369 201 308 322 q 556 79 429 79 q 649 92 606 79 q 714 126 692 106 l 714 418 l 581 433 l 581 532 l 1010 532 l 1010 433 l 939 421 l 939 56 q 831 33 914 54 q 680 -2 747 11 q 535 -15 613 -15 m 654 -178 q 633 -269 654 -225 q 583 -343 611 -314 q 538 -379 556 -372 l 536 -379 l 467 -358 l 464 -347 q 489 -315 479 -342 q 499 -260 499 -287 q 472 -211 499 -229 q 442 -146 442 -189 q 474 -85 442 -104 q 543 -65 506 -65 l 547 -65 q 625 -94 596 -65 q 654 -178 654 -124 z "},"Ġ":{"ha":1036,"x_min":43,"x_max":1010,"o":"m 533 -15 q 269 53 379 -15 q 101 239 158 121 q 43 506 43 357 q 108 799 43 678 q 295 982 174 919 q 582 1044 417 1044 q 931 1001 738 1044 l 914 736 l 753 736 l 715 918 q 667 943 701 932 q 576 954 633 954 q 378 844 449 954 q 308 528 308 735 q 369 201 308 322 q 554 79 429 79 q 649 92 606 79 q 714 126 692 106 l 714 418 l 581 433 l 581 532 l 1010 532 l 1010 433 l 939 421 l 939 56 q 831 33 914 54 q 680 -2 747 11 q 533 -15 613 -15 m 549 1126 q 469 1156 500 1126 q 438 1229 438 1185 q 469 1317 438 1285 q 561 1349 501 1349 q 649 1320 617 1349 q 681 1247 681 1292 q 647 1159 681 1192 q 549 1126 614 1126 z "},"H":{"ha":1164,"x_min":56,"x_max":1110,"o":"m 158 104 l 158 919 l 57 938 l 57 1032 l 500 1032 l 500 938 l 386 919 l 386 583 l 778 583 l 778 919 l 672 938 l 672 1032 l 1110 1032 l 1110 938 l 1006 919 l 1006 104 l 1110 89 l 1110 0 l 671 0 l 671 89 l 778 104 l 778 468 l 386 468 l 386 104 l 500 89 l 500 0 l 56 0 l 56 89 l 158 104 z "},"Ħ":{"ha":1164,"x_min":36,"x_max":1142,"o":"m 158 769 l 158 919 l 50 938 l 50 1032 l 500 1032 l 500 938 l 386 919 l 386 769 l 776 769 l 776 919 l 671 938 l 671 1032 l 1114 1032 l 1114 938 l 1006 919 l 1006 769 l 1142 769 l 1142 682 l 1006 682 l 1006 104 l 1114 89 l 1114 0 l 671 0 l 671 89 l 776 106 l 776 400 l 386 400 l 386 104 l 500 89 l 500 0 l 50 0 l 50 89 l 158 104 l 158 682 l 36 682 l 36 769 l 158 769 m 776 682 l 386 682 l 386 514 l 776 514 l 776 682 z "},"Ĥ":{"ha":1164,"x_min":56,"x_max":1110,"o":"m 518 1361 l 649 1361 l 854 1160 l 781 1099 l 583 1232 l 383 1099 l 311 1158 l 518 1361 m 158 104 l 158 919 l 57 938 l 57 1032 l 500 1032 l 500 938 l 386 919 l 386 583 l 778 583 l 778 919 l 672 938 l 672 1032 l 1110 1032 l 1110 938 l 1006 919 l 1006 104 l 1110 89 l 1110 0 l 671 0 l 671 89 l 778 104 l 778 468 l 386 468 l 386 104 l 500 89 l 500 0 l 56 0 l 56 89 l 158 104 z "},"I":{"ha":578,"x_min":60,"x_max":521,"o":"m 174 104 l 174 919 l 60 938 l 60 1032 l 521 1032 l 521 938 l 404 919 l 404 104 l 521 88 l 521 0 l 61 0 l 61 89 l 174 104 z "},"Ĳ":{"ha":1128,"x_min":60,"x_max":1094,"o":"m 174 104 l 174 919 l 60 938 l 60 1032 l 521 1032 l 521 938 l 404 919 l 404 104 l 521 88 l 521 0 l 61 0 l 61 89 l 174 104 m 554 -189 q 656 -124 608 -171 q 726 -8 703 -78 q 749 99 742 36 q 756 271 756 163 l 756 918 l 635 938 l 635 1032 l 1094 1032 l 1094 938 l 982 919 l 982 382 q 978 151 982 236 q 963 21 974 67 q 840 -168 932 -92 q 607 -267 747 -244 l 554 -189 z "},"Í":{"ha":578,"x_min":60,"x_max":539,"o":"m 174 104 l 174 919 l 60 938 l 60 1032 l 521 1032 l 521 938 l 404 919 l 404 104 l 521 88 l 521 0 l 61 0 l 61 89 l 174 104 m 192 1151 l 401 1364 l 539 1268 q 403 1160 489 1213 q 271 1092 318 1107 l 192 1151 z "},"Ĭ":{"ha":578,"x_min":31,"x_max":546,"o":"m 290 1104 q 147 1135 206 1104 q 60 1217 89 1165 q 31 1329 31 1268 q 32 1360 31 1350 l 139 1360 q 140 1344 139 1350 q 181 1272 146 1304 q 290 1240 215 1240 q 399 1272 365 1240 q 436 1344 432 1303 q 438 1360 438 1350 l 544 1360 q 546 1331 546 1350 q 516 1217 546 1269 q 428 1135 486 1165 q 290 1104 371 1104 m 174 104 l 174 919 l 60 938 l 60 1032 l 521 1032 l 521 938 l 404 919 l 404 104 l 521 88 l 521 0 l 61 0 l 61 89 l 174 104 z "},"Î":{"ha":578,"x_min":15,"x_max":558,"o":"m 222 1361 l 351 1361 l 558 1160 l 485 1099 l 286 1232 l 88 1099 l 15 1158 l 222 1361 m 174 104 l 174 919 l 60 938 l 60 1032 l 521 1032 l 521 938 l 404 919 l 404 104 l 521 88 l 521 0 l 61 0 l 61 89 l 174 104 z "},"Ï":{"ha":578,"x_min":-4,"x_max":581,"o":"m 92 1121 q 23 1151 50 1121 q -4 1225 -4 1182 q 26 1314 -4 1279 q 113 1349 56 1349 l 114 1349 q 193 1318 165 1349 q 221 1244 221 1288 q 189 1155 221 1189 q 93 1121 157 1121 l 92 1121 m 453 1121 q 383 1153 411 1121 q 356 1225 356 1185 q 385 1314 356 1279 q 471 1349 414 1349 l 472 1349 q 553 1319 525 1349 q 581 1244 581 1289 q 549 1155 581 1189 q 453 1121 517 1121 m 174 104 l 174 919 l 60 938 l 60 1032 l 521 1032 l 521 938 l 404 919 l 404 104 l 521 88 l 521 0 l 61 0 l 61 89 l 174 104 z "},"İ":{"ha":578,"x_min":60,"x_max":521,"o":"m 174 104 l 174 919 l 60 938 l 60 1032 l 521 1032 l 521 938 l 404 919 l 404 104 l 521 88 l 521 0 l 61 0 l 61 89 l 174 104 m 279 1126 q 199 1156 231 1126 q 168 1229 168 1185 q 200 1317 168 1285 q 292 1349 232 1349 q 379 1320 347 1349 q 411 1247 411 1292 q 378 1159 411 1192 q 279 1126 344 1126 z "},"Ị":{"ha":578,"x_min":60,"x_max":521,"o":"m 174 104 l 174 919 l 60 938 l 60 1032 l 521 1032 l 521 938 l 404 919 l 404 104 l 521 88 l 521 0 l 61 0 l 61 89 l 174 104 m 283 -271 q 217 -245 243 -271 q 190 -182 190 -219 q 219 -108 190 -137 q 294 -78 247 -78 q 366 -103 340 -78 q 392 -167 392 -128 q 364 -241 392 -211 q 285 -271 336 -271 l 283 -271 z "},"Ì":{"ha":578,"x_min":38,"x_max":521,"o":"m 174 104 l 174 919 l 60 938 l 60 1032 l 521 1032 l 521 938 l 404 919 l 404 104 l 521 88 l 521 0 l 61 0 l 61 89 l 174 104 m 303 1092 q 165 1163 253 1108 q 38 1268 78 1218 l 175 1364 l 383 1151 l 303 1092 z "},"Ỉ":{"ha":578,"x_min":60,"x_max":521,"o":"m 174 104 l 174 919 l 60 938 l 60 1032 l 521 1032 l 521 938 l 404 919 l 404 104 l 521 88 l 521 0 l 61 0 l 61 89 l 174 104 m 257 1107 q 235 1139 247 1117 q 222 1171 222 1161 q 231 1197 222 1188 q 257 1221 239 1207 q 282 1242 274 1233 q 293 1263 290 1250 l 293 1268 q 229 1324 293 1319 q 188 1321 193 1324 l 182 1443 q 203 1449 185 1446 q 236 1451 222 1451 q 329 1433 283 1451 q 406 1380 375 1415 q 436 1294 436 1344 q 418 1241 436 1263 q 367 1194 400 1219 l 343 1176 q 325 1139 325 1161 q 329 1115 325 1131 l 257 1107 z "},"Ī":{"ha":578,"x_min":60,"x_max":521,"o":"m 508 1294 l 508 1164 l 69 1164 l 69 1294 l 508 1294 m 174 104 l 174 919 l 60 938 l 60 1032 l 521 1032 l 521 938 l 404 919 l 404 104 l 521 88 l 521 0 l 61 0 l 61 89 l 174 104 z "},"Į":{"ha":578,"x_min":60,"x_max":521,"o":"m 174 919 l 60 938 l 60 1032 l 521 1032 l 521 938 l 404 919 l 404 104 l 521 88 l 521 0 l 408 0 q 303 -69 344 -24 q 261 -151 261 -114 q 288 -208 261 -187 q 364 -228 315 -228 q 406 -224 388 -228 q 449 -208 424 -219 l 449 -303 q 372 -335 421 -324 q 276 -347 322 -347 q 138 -310 190 -347 q 85 -210 85 -274 q 140 -92 85 -150 q 278 0 194 -33 l 61 0 l 61 89 l 174 104 l 174 919 z "},"Ĩ":{"ha":578,"x_min":-26,"x_max":601,"o":"m 403 1121 q 331 1135 363 1121 q 258 1179 300 1150 q 201 1216 225 1204 q 150 1228 176 1228 q 90 1209 113 1228 q 42 1156 68 1190 l -26 1217 q 53 1316 -1 1272 q 183 1360 107 1360 q 257 1344 226 1360 q 328 1300 288 1329 q 381 1265 360 1276 q 426 1254 401 1254 q 483 1270 463 1254 q 517 1303 504 1286 q 533 1326 529 1321 l 601 1265 q 403 1121 529 1121 m 174 104 l 174 919 l 60 938 l 60 1032 l 521 1032 l 521 938 l 404 919 l 404 104 l 521 88 l 521 0 l 61 0 l 61 89 l 174 104 z "},"J":{"ha":550,"x_min":-24,"x_max":517,"o":"m -24 -189 q 78 -124 31 -171 q 149 -8 125 -78 q 170 98 164 35 q 176 271 176 161 l 176 918 l 57 938 l 57 1032 l 517 1032 l 517 938 l 404 919 l 404 382 q 400 151 404 236 q 385 21 396 67 q 262 -169 354 -93 q 28 -267 169 -244 l -24 -189 z "},"Ĵ":{"ha":550,"x_min":-24,"x_max":560,"o":"m 224 1361 l 353 1361 l 560 1160 l 485 1099 l 288 1232 l 89 1099 l 17 1158 l 224 1361 m -24 -189 q 78 -124 31 -171 q 149 -8 125 -78 q 170 98 164 35 q 176 271 176 161 l 176 918 l 57 938 l 57 1032 l 517 1032 l 517 938 l 404 919 l 404 382 q 400 151 404 236 q 385 21 396 67 q 262 -169 354 -93 q 28 -267 169 -244 l -24 -189 z "},"K":{"ha":1049,"x_min":50,"x_max":1056,"o":"m 783 0 q 732 53 763 0 q 643 221 701 106 q 560 381 590 326 q 500 475 531 436 l 386 342 l 386 104 l 503 89 l 503 0 l 50 0 l 50 89 l 158 104 l 158 919 l 50 938 l 50 1032 l 489 1032 l 489 938 l 386 919 l 386 481 l 731 919 l 618 938 l 618 1032 l 1008 1032 l 1008 939 l 889 919 l 633 632 q 738 501 682 588 q 867 289 794 415 q 944 158 915 203 q 989 104 974 113 l 1056 89 l 1056 0 l 783 0 z "},"Ķ":{"ha":1049,"x_min":50,"x_max":1056,"o":"m 783 0 q 732 53 763 0 q 643 221 701 106 q 560 381 590 326 q 500 475 531 436 l 386 342 l 386 104 l 503 89 l 503 0 l 50 0 l 50 89 l 158 104 l 158 919 l 50 938 l 50 1032 l 489 1032 l 489 938 l 386 919 l 386 481 l 731 919 l 618 938 l 618 1032 l 1008 1032 l 1008 939 l 889 919 l 633 632 q 738 501 682 588 q 867 289 794 415 q 944 158 915 203 q 989 104 974 113 l 1056 89 l 1056 0 l 783 0 m 654 -178 q 633 -269 654 -225 q 583 -343 611 -314 q 538 -379 556 -372 l 535 -379 l 467 -358 l 464 -347 q 489 -315 479 -342 q 499 -260 499 -287 q 491 -231 499 -242 q 472 -211 483 -219 q 440 -146 440 -187 q 472 -85 440 -104 q 543 -65 504 -65 l 547 -65 q 625 -94 596 -65 q 654 -178 654 -124 z "},"L":{"ha":889,"x_min":51,"x_max":874,"o":"m 158 104 l 158 919 l 53 938 l 53 1032 l 519 1032 l 519 938 l 388 919 l 388 106 l 657 119 l 747 390 l 874 374 l 832 0 l 51 0 l 51 89 l 158 104 z "},"Ĺ":{"ha":889,"x_min":51,"x_max":874,"o":"m 158 104 l 158 919 l 53 938 l 53 1032 l 519 1032 l 519 938 l 388 919 l 388 106 l 657 119 l 747 390 l 874 374 l 832 0 l 51 0 l 51 89 l 158 104 m 164 1151 l 374 1364 l 511 1268 q 376 1160 461 1213 q 243 1092 290 1107 l 164 1151 z "},"Ľ":{"ha":889,"x_min":51,"x_max":874,"o":"m 631 707 q 645 786 640 743 q 650 908 650 829 q 638 1024 650 976 q 614 1089 626 1072 l 619 1117 l 769 1149 q 797 1081 785 1129 q 808 969 808 1033 q 794 835 808 899 q 760 726 781 771 q 725 665 740 682 l 635 690 l 631 707 m 158 104 l 158 919 l 53 938 l 53 1032 l 519 1032 l 519 938 l 388 919 l 388 106 l 657 119 l 747 390 l 874 374 l 832 0 l 51 0 l 51 89 l 158 104 z "},"Ļ":{"ha":885,"x_min":51,"x_max":874,"o":"m 158 104 l 158 919 l 53 938 l 53 1032 l 519 1032 l 519 938 l 388 919 l 388 106 l 657 119 l 747 390 l 874 374 l 832 0 l 51 0 l 51 89 l 158 104 m 588 -178 q 567 -269 588 -225 q 517 -343 546 -314 q 471 -379 489 -372 l 469 -379 l 400 -358 l 397 -347 q 422 -315 413 -342 q 432 -260 432 -287 q 406 -211 432 -229 q 375 -146 375 -189 q 407 -85 375 -104 q 476 -65 439 -65 l 481 -65 q 558 -94 529 -65 q 588 -178 588 -124 z "},"Ŀ":{"ha":928,"x_min":51,"x_max":874,"o":"m 158 104 l 158 919 l 53 938 l 53 1032 l 519 1032 l 519 938 l 388 919 l 388 106 l 657 119 l 747 390 l 874 374 l 832 0 l 51 0 l 51 89 l 158 104 m 719 492 q 639 524 674 492 q 604 604 604 556 q 643 693 604 658 q 739 728 682 728 q 826 694 793 728 q 858 614 858 660 q 820 524 858 557 q 719 492 782 492 z "},"Ł":{"ha":886,"x_min":31,"x_max":874,"o":"m 158 501 l 158 919 l 53 938 l 53 1032 l 519 1032 l 519 938 l 388 919 l 388 590 l 626 692 l 626 588 l 388 490 l 388 106 l 657 119 l 747 390 l 874 374 l 832 0 l 51 0 l 51 89 l 158 104 l 158 403 l 31 351 l 31 450 l 158 501 z "},"M":{"ha":1436,"x_min":0,"x_max":1444,"o":"m 117 104 l 213 919 l 72 938 l 72 1032 l 524 1032 l 696 449 l 729 293 l 757 449 l 897 1032 l 1354 1032 l 1354 938 l 1203 919 l 1331 106 l 1444 89 l 1444 0 l 975 0 l 975 89 l 1094 104 l 1022 706 l 992 953 l 947 751 l 772 40 l 599 40 l 382 710 l 321 954 l 301 706 l 257 104 l 397 89 l 397 0 l 0 0 l 0 89 l 117 104 z "},"Ṁ":{"ha":1436,"x_min":0,"x_max":1444,"o":"m 117 104 l 213 919 l 72 938 l 72 1032 l 524 1032 l 696 449 l 729 293 l 757 449 l 897 1032 l 1354 1032 l 1354 938 l 1203 919 l 1331 106 l 1444 89 l 1444 0 l 975 0 l 975 89 l 1094 104 l 1022 706 l 992 953 l 947 751 l 772 40 l 599 40 l 382 710 l 321 954 l 301 706 l 257 104 l 397 89 l 397 0 l 0 0 l 0 89 l 117 104 m 707 1126 q 627 1156 658 1126 q 596 1229 596 1185 q 628 1317 596 1285 q 719 1349 660 1349 q 807 1320 775 1349 q 839 1247 839 1292 q 806 1159 839 1192 q 707 1126 772 1126 z "},"N":{"ha":1118,"x_min":50,"x_max":1093,"o":"m 160 104 l 160 919 l 50 938 l 50 1032 l 390 1032 l 782 432 l 860 267 l 860 919 l 742 938 l 742 1032 l 1093 1032 l 1093 938 l 988 919 l 988 0 l 793 0 l 379 640 l 286 824 l 286 104 l 432 89 l 432 0 l 50 0 l 50 89 l 160 104 z "},"Ń":{"ha":1118,"x_min":50,"x_max":1093,"o":"m 160 104 l 160 919 l 50 938 l 50 1032 l 390 1032 l 782 432 l 860 267 l 860 919 l 742 938 l 742 1032 l 1093 1032 l 1093 938 l 988 919 l 988 0 l 793 0 l 379 640 l 286 824 l 286 104 l 432 89 l 432 0 l 50 0 l 50 89 l 160 104 m 483 1151 l 693 1364 l 831 1268 q 695 1160 781 1213 q 563 1092 610 1107 l 483 1151 z "},"Ň":{"ha":1121,"x_min":50,"x_max":1093,"o":"m 394 1365 l 581 1240 l 775 1365 l 849 1306 l 644 1113 l 515 1113 l 319 1306 l 394 1365 m 160 104 l 160 919 l 50 938 l 50 1032 l 390 1032 l 782 432 l 860 267 l 860 919 l 742 938 l 742 1032 l 1093 1032 l 1093 938 l 988 919 l 988 0 l 793 0 l 379 640 l 286 824 l 286 104 l 432 89 l 432 0 l 50 0 l 50 89 l 160 104 z "},"Ņ":{"ha":1121,"x_min":50,"x_max":1093,"o":"m 160 104 l 160 919 l 50 938 l 50 1032 l 390 1032 l 782 432 l 860 267 l 860 919 l 742 938 l 742 1032 l 1093 1032 l 1093 938 l 988 919 l 988 0 l 793 0 l 379 640 l 286 824 l 286 104 l 432 89 l 432 0 l 50 0 l 50 89 l 160 104 m 697 -178 q 676 -269 697 -225 q 626 -343 654 -314 q 581 -379 599 -372 l 578 -379 l 508 -358 l 506 -347 q 531 -315 521 -342 q 540 -260 540 -287 q 514 -211 540 -229 q 483 -146 483 -186 q 515 -85 483 -104 q 585 -65 547 -65 l 590 -65 q 668 -94 639 -65 q 697 -178 697 -124 z "},"Ŋ":{"ha":1107,"x_min":46,"x_max":1104,"o":"m 165 928 l 46 951 l 46 1032 l 388 1032 l 769 431 l 863 249 l 863 919 l 739 939 l 739 1032 l 1104 1032 l 1104 939 l 989 919 l 989 274 q 969 71 989 150 q 926 -47 950 -8 q 861 -136 901 -86 q 607 -271 757 -251 l 563 -200 q 751 -60 686 -164 q 783 1 771 -33 l 369 658 l 293 811 l 293 104 l 426 88 l 426 0 l 46 0 l 46 88 l 165 104 l 165 928 z "},"Ñ":{"ha":1121,"x_min":50,"x_max":1093,"o":"m 686 1121 q 615 1135 646 1121 q 542 1179 583 1150 q 484 1216 508 1204 q 433 1228 460 1228 q 374 1208 396 1228 q 325 1156 351 1189 l 257 1217 q 336 1316 282 1272 q 467 1360 390 1360 q 540 1344 510 1360 q 611 1300 571 1329 q 664 1265 643 1276 q 710 1254 685 1254 q 767 1270 746 1254 q 800 1303 788 1286 q 817 1326 813 1321 l 885 1265 q 686 1121 813 1121 m 160 104 l 160 919 l 50 938 l 50 1032 l 390 1032 l 782 432 l 860 267 l 860 919 l 742 938 l 742 1032 l 1093 1032 l 1093 938 l 988 919 l 988 0 l 793 0 l 379 640 l 286 824 l 286 104 l 432 89 l 432 0 l 50 0 l 50 89 l 160 104 z "},"O":{"ha":1014,"x_min":38,"x_max":976,"o":"m 496 -15 q 151 126 264 -15 q 38 514 38 267 q 97 794 38 674 q 263 979 156 914 q 513 1044 371 1044 q 863 910 749 1044 q 976 532 976 776 q 916 247 976 371 q 747 53 856 122 q 496 -15 638 -15 m 508 956 q 347 845 404 956 q 290 515 290 735 q 346 185 290 294 q 506 76 401 76 q 666 193 608 76 q 724 532 724 310 q 508 956 724 956 z "},"Ó":{"ha":1014,"x_min":38,"x_max":976,"o":"m 496 -15 q 151 126 264 -15 q 38 514 38 267 q 97 794 38 674 q 263 979 156 914 q 513 1044 371 1044 q 863 910 749 1044 q 976 532 976 776 q 916 247 976 371 q 747 53 856 122 q 496 -15 638 -15 m 508 956 q 347 845 404 956 q 290 515 290 735 q 346 185 290 294 q 506 76 401 76 q 666 193 608 76 q 724 532 724 310 q 508 956 724 956 m 408 1151 l 618 1364 l 756 1268 q 620 1160 706 1213 q 488 1092 535 1107 l 408 1151 z "},"Ŏ":{"ha":1018,"x_min":40,"x_max":978,"o":"m 514 1104 q 372 1135 431 1104 q 283 1217 313 1165 q 254 1329 254 1268 q 256 1360 254 1350 l 363 1360 q 364 1344 363 1350 q 405 1272 369 1304 q 515 1240 440 1240 q 623 1272 590 1240 q 660 1344 656 1303 q 661 1360 661 1350 l 769 1360 q 771 1331 771 1350 q 741 1217 771 1269 q 653 1135 711 1165 q 514 1104 594 1104 m 497 -15 q 153 126 267 -15 q 40 514 40 267 q 99 794 40 674 q 265 979 158 914 q 515 1044 372 1044 q 865 910 751 1044 q 978 532 978 776 q 918 247 978 371 q 749 53 858 122 q 497 -15 640 -15 m 510 956 q 349 844 407 956 q 292 515 292 733 q 348 185 292 294 q 508 76 404 76 q 667 194 610 76 q 725 532 725 311 q 670 853 725 751 q 510 956 615 956 z "},"Ô":{"ha":1014,"x_min":38,"x_max":976,"o":"m 444 1361 l 574 1361 l 781 1160 l 706 1099 l 508 1232 l 310 1099 l 238 1158 l 444 1361 m 496 -15 q 151 126 264 -15 q 38 514 38 267 q 97 794 38 674 q 263 979 156 914 q 513 1044 371 1044 q 863 910 749 1044 q 976 532 976 776 q 916 247 976 371 q 747 53 856 122 q 496 -15 638 -15 m 508 956 q 347 845 404 956 q 290 515 290 735 q 346 185 290 294 q 506 76 401 76 q 666 193 608 76 q 724 532 724 310 q 508 956 724 956 z "},"Ố":{"ha":1014,"x_min":38,"x_max":1053,"o":"m 496 -15 q 151 126 264 -15 q 38 514 38 267 q 97 794 38 674 q 263 979 156 914 q 513 1044 371 1044 q 863 910 749 1044 q 976 532 976 776 q 916 247 976 371 q 747 53 856 122 q 496 -15 638 -15 m 508 956 q 347 845 404 956 q 290 515 290 735 q 346 185 290 294 q 506 76 401 76 q 666 193 608 76 q 724 532 724 310 q 508 956 724 956 m 444 1361 l 574 1361 l 779 1160 l 706 1099 l 508 1232 l 310 1099 l 236 1158 l 444 1361 m 706 1326 l 915 1539 l 1053 1443 q 917 1335 1003 1388 q 785 1267 832 1282 l 706 1326 z "},"Ộ":{"ha":1014,"x_min":38,"x_max":976,"o":"m 496 -15 q 151 126 264 -15 q 38 514 38 267 q 97 794 38 674 q 263 979 156 914 q 513 1044 371 1044 q 863 910 749 1044 q 976 532 976 776 q 916 247 976 371 q 747 53 856 122 q 496 -15 638 -15 m 508 956 q 347 845 404 956 q 290 515 290 735 q 346 185 290 294 q 506 76 401 76 q 666 193 608 76 q 724 532 724 310 q 508 956 724 956 m 500 -271 q 433 -245 460 -271 q 407 -182 407 -219 q 435 -108 407 -137 q 511 -78 464 -78 q 583 -103 557 -78 q 608 -167 608 -128 q 581 -241 608 -211 q 501 -271 553 -271 l 500 -271 m 444 1363 l 574 1363 l 779 1161 l 706 1100 l 508 1233 l 310 1100 l 236 1160 l 444 1363 z "},"Ồ":{"ha":1014,"x_min":38,"x_max":976,"o":"m 496 -15 q 151 126 264 -15 q 38 514 38 267 q 97 794 38 674 q 263 979 156 914 q 513 1044 371 1044 q 863 910 749 1044 q 976 532 976 776 q 916 247 976 371 q 747 53 856 122 q 496 -15 638 -15 m 508 956 q 347 845 404 956 q 290 515 290 735 q 346 185 290 294 q 506 76 401 76 q 666 193 608 76 q 724 532 724 310 q 508 956 724 956 m 443 1361 l 572 1361 l 778 1160 l 704 1099 l 507 1232 l 308 1099 l 235 1158 l 443 1361 m 767 1326 q 629 1398 717 1343 q 501 1503 542 1453 l 639 1599 l 847 1386 l 767 1326 z "},"Ổ":{"ha":1014,"x_min":38,"x_max":976,"o":"m 496 -15 q 151 126 264 -15 q 38 514 38 267 q 97 794 38 674 q 263 979 156 914 q 513 1044 371 1044 q 863 910 749 1044 q 976 532 976 776 q 916 247 976 371 q 747 53 856 122 q 496 -15 638 -15 m 508 956 q 347 845 404 956 q 290 515 290 735 q 346 185 290 294 q 506 76 401 76 q 666 193 608 76 q 724 532 724 310 q 508 956 724 956 m 444 1361 l 574 1361 l 779 1160 l 706 1099 l 508 1232 l 310 1099 l 236 1158 l 444 1361 m 751 1267 q 729 1299 742 1276 q 717 1331 717 1321 q 725 1357 717 1347 q 751 1381 733 1367 q 776 1401 768 1393 q 788 1422 785 1410 l 788 1428 q 724 1483 788 1479 q 682 1481 688 1483 l 676 1603 q 698 1608 679 1606 q 731 1611 717 1611 q 824 1593 778 1611 q 900 1540 869 1575 q 931 1454 931 1504 q 913 1401 931 1422 q 861 1354 894 1379 l 838 1336 q 819 1299 819 1321 q 824 1275 819 1290 l 751 1267 z "},"Ỗ":{"ha":1014,"x_min":38,"x_max":976,"o":"m 496 -15 q 151 126 264 -15 q 38 514 38 267 q 97 794 38 674 q 263 979 156 914 q 513 1044 371 1044 q 863 910 749 1044 q 976 532 976 776 q 916 247 976 371 q 747 53 856 122 q 496 -15 638 -15 m 508 956 q 347 845 404 956 q 290 515 290 735 q 346 185 290 294 q 506 76 401 76 q 666 193 608 76 q 724 532 724 310 q 508 956 724 956 m 443 1361 l 572 1361 l 778 1160 l 704 1099 l 507 1232 l 308 1099 l 235 1158 l 443 1361 m 663 1407 q 591 1422 622 1407 q 518 1465 560 1436 q 460 1502 485 1490 q 410 1514 436 1514 q 350 1494 372 1514 q 301 1442 328 1475 l 233 1503 q 313 1602 258 1558 q 443 1646 367 1646 q 517 1631 486 1646 q 588 1586 547 1615 q 640 1551 619 1563 q 686 1540 661 1540 q 743 1556 722 1540 q 776 1590 764 1572 q 793 1613 789 1607 l 861 1551 q 663 1407 792 1407 z "},"Ö":{"ha":1018,"x_min":40,"x_max":978,"o":"m 317 1121 q 247 1151 274 1121 q 219 1225 219 1182 q 249 1314 219 1279 q 336 1349 279 1349 l 338 1349 q 418 1319 390 1349 q 446 1244 446 1289 q 413 1155 446 1189 q 318 1121 381 1121 l 317 1121 m 676 1121 q 607 1153 635 1121 q 579 1225 579 1185 q 608 1314 579 1279 q 694 1349 638 1349 l 696 1349 q 776 1319 749 1349 q 804 1244 804 1289 q 772 1155 804 1189 q 676 1121 740 1121 m 497 -15 q 153 126 267 -15 q 40 514 40 267 q 99 794 40 674 q 265 979 158 914 q 515 1044 372 1044 q 865 910 751 1044 q 978 532 978 776 q 918 247 978 371 q 749 53 858 122 q 497 -15 640 -15 m 510 956 q 349 844 407 956 q 292 515 292 733 q 348 185 292 294 q 508 76 404 76 q 667 194 610 76 q 725 532 725 311 q 670 853 725 751 q 510 956 615 956 z "},"Ọ":{"ha":1014,"x_min":38,"x_max":976,"o":"m 496 -15 q 151 126 264 -15 q 38 514 38 267 q 97 794 38 674 q 263 979 156 914 q 513 1044 371 1044 q 863 910 749 1044 q 976 532 976 776 q 916 247 976 371 q 747 53 856 122 q 496 -15 638 -15 m 508 956 q 347 845 404 956 q 290 515 290 735 q 346 185 290 294 q 506 76 401 76 q 666 193 608 76 q 724 532 724 310 q 508 956 724 956 m 500 -271 q 433 -245 460 -271 q 407 -182 407 -219 q 435 -108 407 -137 q 511 -78 464 -78 q 583 -103 557 -78 q 608 -167 608 -128 q 581 -241 608 -211 q 501 -271 553 -271 l 500 -271 z "},"Ò":{"ha":1014,"x_min":38,"x_max":976,"o":"m 496 -15 q 151 126 264 -15 q 38 514 38 267 q 97 794 38 674 q 263 979 156 914 q 513 1044 371 1044 q 863 910 749 1044 q 976 532 976 776 q 916 247 976 371 q 747 53 856 122 q 496 -15 638 -15 m 508 956 q 347 845 404 956 q 290 515 290 735 q 346 185 290 294 q 506 76 401 76 q 666 193 608 76 q 724 532 724 310 q 508 956 724 956 m 519 1092 q 382 1163 469 1108 q 254 1268 294 1218 l 392 1364 l 600 1151 l 519 1092 z "},"Ỏ":{"ha":1014,"x_min":38,"x_max":976,"o":"m 496 -15 q 151 126 264 -15 q 38 514 38 267 q 97 794 38 674 q 263 979 156 914 q 513 1044 371 1044 q 863 910 749 1044 q 976 532 976 776 q 916 247 976 371 q 747 53 856 122 q 496 -15 638 -15 m 508 956 q 347 845 404 956 q 290 515 290 735 q 346 185 290 294 q 506 76 401 76 q 666 193 608 76 q 724 532 724 310 q 508 956 724 956 m 474 1107 q 451 1139 464 1117 q 439 1171 439 1161 q 447 1197 439 1188 q 474 1221 456 1207 q 499 1242 490 1233 q 510 1263 507 1250 l 510 1268 q 446 1324 510 1319 q 404 1321 410 1324 l 399 1443 q 420 1449 401 1446 q 453 1451 439 1451 q 546 1433 500 1451 q 622 1380 592 1415 q 653 1294 653 1344 q 635 1241 653 1263 q 583 1194 617 1219 l 560 1176 q 542 1139 542 1161 q 546 1115 542 1131 l 474 1107 z "},"Ơ":{"ha":1014,"x_min":38,"x_max":976,"o":"m 818 953 q 976 532 976 826 q 916 247 976 371 q 747 53 856 122 q 496 -15 638 -15 q 151 126 264 -15 q 38 514 38 267 q 97 794 38 674 q 263 979 156 914 q 513 1044 371 1044 q 644 1032 585 1044 q 751 1077 718 1033 q 793 1178 785 1121 q 794 1201 796 1196 l 936 1201 q 939 1171 939 1179 q 906 1046 939 1101 q 818 953 874 990 m 506 76 q 666 193 608 76 q 724 532 724 310 q 639 897 724 797 l 639 897 q 508 956 589 956 q 347 845 404 956 q 290 515 290 735 q 346 185 290 294 q 506 76 401 76 z "},"Ớ":{"ha":1014,"x_min":38,"x_max":976,"o":"m 818 953 q 976 532 976 826 q 916 247 976 371 q 747 53 856 122 q 496 -15 638 -15 q 151 126 264 -15 q 38 514 38 267 q 97 794 38 674 q 263 979 156 914 q 513 1044 371 1044 q 644 1032 585 1044 q 751 1077 718 1033 q 793 1178 785 1121 q 794 1201 796 1196 l 936 1201 q 939 1171 939 1179 q 906 1046 939 1101 q 818 953 874 990 m 506 76 q 666 193 608 76 q 724 532 724 310 q 639 897 724 797 l 639 897 q 508 956 589 956 q 347 845 404 956 q 290 515 290 735 q 346 185 290 294 q 506 76 401 76 m 408 1151 l 618 1364 l 756 1268 q 620 1160 706 1213 q 488 1092 535 1107 l 408 1151 z "},"Ợ":{"ha":1014,"x_min":38,"x_max":976,"o":"m 818 953 q 976 532 976 826 q 916 247 976 371 q 747 53 856 122 q 496 -15 638 -15 q 151 126 264 -15 q 38 514 38 267 q 97 794 38 674 q 263 979 156 914 q 513 1044 371 1044 q 644 1032 585 1044 q 751 1077 718 1033 q 793 1178 785 1121 q 794 1201 796 1196 l 936 1201 q 939 1171 939 1179 q 906 1046 939 1101 q 818 953 874 990 m 506 76 q 666 193 608 76 q 724 532 724 310 q 639 897 724 797 l 639 897 q 508 956 589 956 q 347 845 404 956 q 290 515 290 735 q 346 185 290 294 q 506 76 401 76 m 500 -271 q 433 -245 460 -271 q 407 -182 407 -219 q 435 -108 407 -137 q 511 -78 464 -78 q 583 -103 557 -78 q 608 -167 608 -128 q 581 -241 608 -211 q 501 -271 553 -271 l 500 -271 z "},"Ờ":{"ha":1014,"x_min":38,"x_max":976,"o":"m 818 953 q 976 532 976 826 q 916 247 976 371 q 747 53 856 122 q 496 -15 638 -15 q 151 126 264 -15 q 38 514 38 267 q 97 794 38 674 q 263 979 156 914 q 513 1044 371 1044 q 644 1032 585 1044 q 751 1077 718 1033 q 793 1178 785 1121 q 794 1201 796 1196 l 936 1201 q 939 1171 939 1179 q 906 1046 939 1101 q 818 953 874 990 m 506 76 q 666 193 608 76 q 724 532 724 310 q 639 897 724 797 l 639 897 q 508 956 589 956 q 347 845 404 956 q 290 515 290 735 q 346 185 290 294 q 506 76 401 76 m 519 1092 q 382 1163 469 1108 q 254 1268 294 1218 l 392 1364 l 600 1151 l 519 1092 z "},"Ở":{"ha":1014,"x_min":38,"x_max":976,"o":"m 818 953 q 976 532 976 826 q 916 247 976 371 q 747 53 856 122 q 496 -15 638 -15 q 151 126 264 -15 q 38 514 38 267 q 97 794 38 674 q 263 979 156 914 q 513 1044 371 1044 q 644 1032 585 1044 q 751 1077 718 1033 q 793 1178 785 1121 q 794 1201 796 1196 l 936 1201 q 939 1171 939 1179 q 906 1046 939 1101 q 818 953 874 990 m 506 76 q 666 193 608 76 q 724 532 724 310 q 639 897 724 797 l 639 897 q 508 956 589 956 q 347 845 404 956 q 290 515 290 735 q 346 185 290 294 q 506 76 401 76 m 474 1107 q 451 1139 464 1117 q 439 1171 439 1161 q 447 1197 439 1188 q 474 1221 456 1207 q 499 1242 490 1233 q 510 1263 507 1250 l 510 1268 q 446 1324 510 1319 q 404 1321 410 1324 l 399 1443 q 420 1449 401 1446 q 453 1451 439 1451 q 546 1433 500 1451 q 622 1380 592 1415 q 653 1294 653 1344 q 635 1241 653 1263 q 583 1194 617 1219 l 560 1176 q 542 1139 542 1161 q 546 1115 542 1131 l 474 1107 z "},"Ỡ":{"ha":1014,"x_min":38,"x_max":976,"o":"m 818 953 q 976 532 976 826 q 916 247 976 371 q 747 53 856 122 q 496 -15 638 -15 q 151 126 264 -15 q 38 514 38 267 q 97 794 38 674 q 263 979 156 914 q 513 1044 371 1044 q 644 1032 585 1044 q 751 1077 718 1033 q 793 1178 785 1121 q 794 1201 796 1196 l 936 1201 q 939 1171 939 1179 q 906 1046 939 1101 q 818 953 874 990 m 506 76 q 666 193 608 76 q 724 532 724 310 q 639 897 724 797 l 639 897 q 508 956 589 956 q 347 845 404 956 q 290 515 290 735 q 346 185 290 294 q 506 76 401 76 m 622 1121 q 551 1135 582 1121 q 478 1179 519 1150 q 420 1216 444 1204 q 369 1228 396 1228 q 310 1208 332 1228 q 261 1156 288 1189 l 193 1217 q 272 1316 218 1272 q 403 1360 326 1360 q 476 1344 446 1360 q 547 1300 507 1329 q 600 1265 579 1276 q 646 1254 621 1254 q 703 1270 682 1254 q 736 1303 724 1286 q 753 1326 749 1321 l 821 1265 q 622 1121 751 1121 z "},"Ő":{"ha":1014,"x_min":38,"x_max":976,"o":"m 544 1275 q 435 1172 501 1224 q 314 1090 369 1119 l 229 1161 l 425 1365 l 544 1275 m 919 1275 q 813 1173 883 1228 q 689 1090 743 1118 l 603 1163 l 804 1364 l 919 1275 m 496 -15 q 151 126 264 -15 q 38 514 38 267 q 97 794 38 674 q 263 979 156 914 q 513 1044 371 1044 q 863 910 749 1044 q 976 532 976 776 q 916 247 976 371 q 747 53 856 122 q 496 -15 638 -15 m 508 956 q 347 845 404 956 q 290 515 290 735 q 346 185 290 294 q 506 76 401 76 q 666 193 608 76 q 724 532 724 310 q 508 956 724 956 z "},"Ō":{"ha":1018,"x_min":40,"x_max":978,"o":"m 732 1294 l 732 1164 l 293 1164 l 293 1294 l 732 1294 m 497 -15 q 153 126 267 -15 q 40 514 40 267 q 99 794 40 674 q 265 979 158 914 q 515 1044 372 1044 q 865 910 751 1044 q 978 532 978 776 q 918 247 978 371 q 749 53 858 122 q 497 -15 640 -15 m 510 956 q 349 844 407 956 q 292 515 292 733 q 348 185 292 294 q 508 76 404 76 q 667 194 610 76 q 725 532 725 311 q 670 853 725 751 q 510 956 615 956 z "},"Ø":{"ha":1014,"x_min":38,"x_max":976,"o":"m 260 36 q 92 219 147 97 q 38 514 38 342 q 97 794 38 674 q 263 979 156 914 q 513 1044 371 1044 q 658 1029 589 1044 l 718 1183 l 814 1154 l 753 996 q 922 821 867 939 q 976 532 976 703 q 917 248 976 372 q 751 55 858 124 q 501 -15 643 -14 q 358 0 426 -15 l 290 -160 l 189 -131 l 260 36 m 508 956 q 347 845 404 956 q 290 515 290 735 q 350 210 290 314 l 619 911 q 508 956 572 956 m 724 532 q 664 829 724 726 l 393 126 q 506 76 438 76 q 666 193 608 76 q 724 532 724 310 z "},"Õ":{"ha":1018,"x_min":40,"x_max":978,"o":"m 628 1121 q 554 1136 586 1121 q 482 1181 522 1151 q 423 1216 446 1204 q 374 1228 400 1228 q 314 1208 336 1228 q 265 1156 292 1189 l 197 1217 q 277 1316 224 1272 q 407 1360 331 1360 q 481 1345 450 1360 q 553 1300 511 1331 q 604 1265 583 1276 q 650 1254 625 1254 q 709 1271 688 1254 q 742 1305 731 1288 q 757 1326 754 1322 l 825 1265 q 628 1121 756 1121 m 497 -15 q 153 126 267 -15 q 40 514 40 267 q 99 794 40 674 q 265 979 158 914 q 515 1044 372 1044 q 865 910 751 1044 q 978 532 978 776 q 918 247 978 371 q 749 53 858 122 q 497 -15 640 -15 m 510 956 q 349 844 407 956 q 292 515 292 733 q 348 185 292 294 q 508 76 404 76 q 667 194 610 76 q 725 532 725 311 q 670 853 725 751 q 510 956 615 956 z "},"Œ":{"ha":1443,"x_min":38,"x_max":1428,"o":"m 668 31 q 500 -11 592 -11 q 154 131 271 -11 q 38 514 38 272 q 97 797 38 676 q 267 983 157 918 q 528 1047 378 1047 q 668 1021 600 1047 l 668 1032 l 1319 1032 l 1339 789 l 1232 789 l 1186 928 l 901 943 l 901 579 l 1079 583 l 1101 696 l 1200 696 l 1200 350 l 1101 350 l 1079 471 l 901 475 l 901 94 l 1224 113 l 1319 288 l 1428 257 l 1382 0 l 668 0 l 668 31 m 510 76 q 603 116 564 76 q 668 229 643 156 l 668 835 q 606 930 644 901 q 507 958 567 958 q 346 845 403 958 q 289 515 289 732 q 347 188 289 300 q 510 76 404 76 z "},"P":{"ha":925,"x_min":51,"x_max":901,"o":"m 158 919 l 56 938 l 56 1032 l 276 1032 q 364 1035 303 1032 q 510 1040 444 1040 q 744 1005 658 1040 q 865 902 829 969 q 901 732 901 835 q 793 457 901 556 q 486 358 685 358 q 388 363 421 358 l 388 104 l 571 89 l 571 0 l 51 0 l 51 89 l 158 104 l 158 919 m 386 457 q 482 450 414 450 q 668 728 668 450 q 622 896 668 843 q 481 949 575 949 q 386 940 431 949 l 386 457 z "},"Ṗ":{"ha":925,"x_min":51,"x_max":901,"o":"m 158 919 l 56 938 l 56 1032 l 276 1032 q 364 1035 303 1032 q 510 1040 444 1040 q 744 1005 658 1040 q 865 902 829 969 q 901 732 901 835 q 793 457 901 556 q 486 358 685 358 q 388 363 421 358 l 388 104 l 571 89 l 571 0 l 51 0 l 51 89 l 158 104 l 158 919 m 386 457 q 482 450 414 450 q 668 728 668 450 q 622 896 668 843 q 481 949 575 949 q 386 940 431 949 l 386 457 m 503 1126 q 423 1156 454 1126 q 392 1229 392 1185 q 424 1317 392 1285 q 515 1349 456 1349 q 603 1320 571 1349 q 635 1247 635 1292 q 601 1159 635 1192 q 503 1126 568 1126 z "},"Þ":{"ha":926,"x_min":46,"x_max":897,"o":"m 156 919 l 46 939 l 46 1032 l 500 1032 l 501 939 l 385 919 l 385 797 q 439 803 421 800 q 588 811 531 811 q 897 536 897 811 q 806 298 897 378 q 547 218 714 218 q 385 226 485 218 l 385 104 l 528 88 l 528 0 l 47 0 l 47 88 l 156 104 l 156 919 m 504 308 q 614 366 572 308 q 656 526 656 424 q 616 663 656 610 q 494 717 576 717 q 385 706 438 717 l 385 314 q 460 308 422 308 q 504 308 497 308 z "},"Q":{"ha":1017,"x_min":39,"x_max":1281,"o":"m 1108 -261 q 949 -224 1021 -261 q 782 -115 876 -186 q 680 -44 719 -69 q 599 -6 640 -19 q 496 -15 543 -15 q 152 126 265 -15 q 39 514 39 267 q 98 794 39 674 q 265 979 157 914 q 514 1044 372 1044 q 864 910 750 1044 q 978 532 978 776 q 912 233 978 361 q 728 42 846 106 q 822 15 776 33 q 946 -42 868 -4 q 1084 -103 1029 -83 q 1190 -124 1139 -124 q 1260 -117 1239 -124 l 1281 -182 q 1206 -243 1246 -225 q 1108 -261 1167 -261 m 507 76 q 667 193 610 76 q 725 532 725 310 q 510 956 725 956 q 349 845 406 956 q 292 515 292 735 q 347 185 292 293 q 507 76 403 76 z "},"R":{"ha":1013,"x_min":50,"x_max":1019,"o":"m 50 89 l 157 104 l 157 919 l 54 939 l 54 1032 l 265 1032 q 323 1033 292 1032 q 371 1036 354 1035 q 497 1042 446 1042 q 731 1013 644 1042 q 858 924 818 985 q 897 765 897 864 q 847 589 897 671 q 699 476 796 507 q 803 390 761 453 q 896 225 846 328 q 942 135 925 164 q 978 103 960 107 l 1019 89 l 1019 0 l 763 0 q 719 44 742 0 q 660 185 697 89 q 585 361 617 297 q 515 440 553 425 l 386 440 l 386 104 l 511 89 l 511 0 l 50 0 l 50 89 m 497 529 q 614 585 572 529 q 656 757 656 642 q 615 903 656 857 q 476 950 574 950 q 415 947 439 950 q 386 944 392 944 l 386 532 q 456 529 400 529 l 497 529 z "},"Ŕ":{"ha":1013,"x_min":50,"x_max":1019,"o":"m 50 89 l 157 104 l 157 919 l 54 939 l 54 1032 l 265 1032 q 323 1033 292 1032 q 371 1036 354 1035 q 497 1042 446 1042 q 731 1013 644 1042 q 858 924 818 985 q 897 765 897 864 q 847 589 897 671 q 699 476 796 507 q 803 390 761 453 q 896 225 846 328 q 942 135 925 164 q 978 103 960 107 l 1019 89 l 1019 0 l 763 0 q 719 44 742 0 q 660 185 697 89 q 585 361 617 297 q 515 440 553 425 l 386 440 l 386 104 l 511 89 l 511 0 l 50 0 l 50 89 m 497 529 q 614 585 572 529 q 656 757 656 642 q 615 903 656 857 q 476 950 574 950 q 415 947 439 950 q 386 944 392 944 l 386 532 q 456 529 400 529 l 497 529 m 408 1151 l 618 1364 l 756 1268 q 620 1160 706 1213 q 488 1092 535 1107 l 408 1151 z "},"Ř":{"ha":1013,"x_min":50,"x_max":1019,"o":"m 50 89 l 157 104 l 157 919 l 54 939 l 54 1032 l 265 1032 q 323 1033 292 1032 q 371 1036 354 1035 q 497 1042 446 1042 q 731 1013 644 1042 q 858 924 818 985 q 897 765 897 864 q 847 589 897 671 q 699 476 796 507 q 803 390 761 453 q 896 225 846 328 q 942 135 925 164 q 978 103 960 107 l 1019 89 l 1019 0 l 763 0 q 719 44 742 0 q 660 185 697 89 q 585 361 617 297 q 515 440 553 425 l 386 440 l 386 104 l 511 89 l 511 0 l 50 0 l 50 89 m 497 529 q 614 585 572 529 q 656 757 656 642 q 615 903 656 857 q 476 950 574 950 q 415 947 439 950 q 386 944 392 944 l 386 532 q 456 529 400 529 l 497 529 m 318 1365 l 503 1240 l 699 1365 l 771 1306 l 568 1113 l 438 1113 l 243 1306 l 318 1365 z "},"Ŗ":{"ha":1013,"x_min":50,"x_max":1019,"o":"m 50 89 l 157 104 l 157 919 l 54 939 l 54 1032 l 265 1032 q 323 1033 292 1032 q 371 1036 354 1035 q 497 1042 446 1042 q 731 1013 644 1042 q 858 924 818 985 q 897 765 897 864 q 847 589 897 671 q 699 476 796 507 q 803 390 761 453 q 896 225 846 328 q 942 135 925 164 q 978 103 960 107 l 1019 89 l 1019 0 l 763 0 q 719 44 742 0 q 660 185 697 89 q 585 361 617 297 q 515 440 553 425 l 386 440 l 386 104 l 511 89 l 511 0 l 50 0 l 50 89 m 497 529 q 614 585 572 529 q 656 757 656 642 q 615 903 656 857 q 476 950 574 950 q 415 947 439 950 q 386 944 392 944 l 386 532 q 456 529 400 529 l 497 529 m 671 -178 q 649 -269 671 -225 q 600 -343 628 -314 q 554 -379 572 -372 l 551 -379 l 482 -358 l 479 -347 q 504 -315 494 -342 q 514 -260 514 -287 q 488 -211 514 -229 q 457 -146 457 -186 q 489 -85 457 -104 q 558 -65 521 -65 l 564 -65 q 642 -94 613 -65 q 671 -178 671 -124 z "},"S":{"ha":843,"x_min":76,"x_max":810,"o":"m 417 -15 q 278 -3 342 -15 q 143 31 214 10 q 76 46 97 44 l 88 304 l 214 304 l 247 128 q 306 94 264 108 q 406 79 349 79 q 537 117 493 79 q 581 224 581 156 q 553 304 581 269 q 478 367 525 339 q 346 433 431 394 q 158 561 233 486 q 82 763 82 636 q 122 904 82 840 q 244 1006 163 968 q 446 1044 326 1044 q 572 1035 518 1044 q 689 1008 626 1025 q 742 996 725 997 l 733 750 l 610 750 l 579 921 q 534 944 569 933 q 456 954 499 954 q 338 918 376 954 q 299 822 299 882 q 331 735 299 772 q 408 671 363 697 q 546 599 453 644 q 736 476 663 543 q 810 296 810 408 q 772 149 810 219 q 647 31 735 78 q 417 -15 558 -15 z "},"Ś":{"ha":843,"x_min":76,"x_max":810,"o":"m 417 -15 q 278 -3 342 -15 q 143 31 214 10 q 76 46 97 44 l 88 304 l 214 304 l 247 128 q 306 94 264 108 q 406 79 349 79 q 537 117 493 79 q 581 224 581 156 q 553 304 581 269 q 478 367 525 339 q 346 433 431 394 q 158 561 233 486 q 82 763 82 636 q 122 904 82 840 q 244 1006 163 968 q 446 1044 326 1044 q 572 1035 518 1044 q 689 1008 626 1025 q 742 996 725 997 l 733 750 l 610 750 l 579 921 q 534 944 569 933 q 456 954 499 954 q 338 918 376 954 q 299 822 299 882 q 331 735 299 772 q 408 671 363 697 q 546 599 453 644 q 736 476 663 543 q 810 296 810 408 q 772 149 810 219 q 647 31 735 78 q 417 -15 558 -15 m 365 1151 l 575 1364 l 713 1268 q 577 1160 663 1213 q 444 1092 492 1107 l 365 1151 z "},"Š":{"ha":843,"x_min":76,"x_max":810,"o":"m 264 1365 l 449 1240 l 644 1365 l 717 1306 l 514 1113 l 383 1113 l 189 1306 l 264 1365 m 417 -15 q 278 -3 342 -15 q 143 31 214 10 q 76 46 97 44 l 88 304 l 214 304 l 247 128 q 306 94 264 108 q 406 79 349 79 q 537 117 493 79 q 581 224 581 156 q 553 304 581 269 q 478 367 525 339 q 346 433 431 394 q 158 561 233 486 q 82 763 82 636 q 122 904 82 840 q 244 1006 163 968 q 446 1044 326 1044 q 572 1035 518 1044 q 689 1008 626 1025 q 742 996 725 997 l 733 750 l 610 750 l 579 921 q 534 944 569 933 q 456 954 499 954 q 338 918 376 954 q 299 822 299 882 q 331 735 299 772 q 408 671 363 697 q 546 599 453 644 q 736 476 663 543 q 810 296 810 408 q 772 149 810 219 q 647 31 735 78 q 417 -15 558 -15 z "},"Ŝ":{"ha":843,"x_min":76,"x_max":810,"o":"m 383 1361 l 514 1361 l 719 1160 l 646 1099 l 449 1232 l 249 1099 l 176 1158 l 383 1361 m 417 -15 q 278 -3 342 -15 q 143 31 214 10 q 76 46 97 44 l 88 304 l 214 304 l 247 128 q 306 94 264 108 q 406 79 349 79 q 537 117 493 79 q 581 224 581 156 q 553 304 581 269 q 478 367 525 339 q 346 433 431 394 q 158 561 233 486 q 82 763 82 636 q 122 904 82 840 q 244 1006 163 968 q 446 1044 326 1044 q 572 1035 518 1044 q 689 1008 626 1025 q 742 996 725 997 l 733 750 l 610 750 l 579 921 q 534 944 569 933 q 456 954 499 954 q 338 918 376 954 q 299 822 299 882 q 331 735 299 772 q 408 671 363 697 q 546 599 453 644 q 736 476 663 543 q 810 296 810 408 q 772 149 810 219 q 647 31 735 78 q 417 -15 558 -15 z "},"Ș":{"ha":843,"x_min":76,"x_max":810,"o":"m 417 -15 q 278 -3 342 -15 q 143 31 214 10 q 76 46 97 44 l 88 304 l 214 304 l 247 128 q 306 94 264 108 q 406 79 349 79 q 537 117 493 79 q 581 224 581 156 q 553 304 581 269 q 478 367 525 339 q 346 433 431 394 q 158 561 233 486 q 82 763 82 636 q 122 904 82 840 q 244 1006 163 968 q 446 1044 326 1044 q 572 1035 518 1044 q 689 1008 626 1025 q 742 996 725 997 l 733 750 l 610 750 l 579 921 q 534 944 569 933 q 456 954 499 954 q 338 918 376 954 q 299 822 299 882 q 331 735 299 772 q 408 671 363 697 q 546 599 453 644 q 736 476 663 543 q 810 296 810 408 q 772 149 810 219 q 647 31 735 78 q 417 -15 558 -15 m 544 -178 q 523 -269 544 -225 q 474 -343 501 -314 q 428 -379 446 -372 l 425 -379 l 357 -358 l 354 -347 q 379 -315 369 -342 q 389 -260 389 -287 q 381 -231 389 -242 q 363 -211 374 -219 q 331 -146 331 -187 q 363 -85 331 -104 q 433 -65 394 -65 l 438 -65 q 515 -94 486 -65 q 544 -178 544 -124 z "},"Ṡ":{"ha":843,"x_min":76,"x_max":810,"o":"m 417 -15 q 278 -3 342 -15 q 143 31 214 10 q 76 46 97 44 l 88 304 l 214 304 l 247 128 q 306 94 264 108 q 406 79 349 79 q 537 117 493 79 q 581 224 581 156 q 553 304 581 269 q 478 367 525 339 q 346 433 431 394 q 158 561 233 486 q 82 763 82 636 q 122 904 82 840 q 244 1006 163 968 q 446 1044 326 1044 q 572 1035 518 1044 q 689 1008 626 1025 q 742 996 725 997 l 733 750 l 610 750 l 579 921 q 534 944 569 933 q 456 954 499 954 q 338 918 376 954 q 299 822 299 882 q 331 735 299 772 q 408 671 363 697 q 546 599 453 644 q 736 476 663 543 q 810 296 810 408 q 772 149 810 219 q 647 31 735 78 q 417 -15 558 -15 m 453 1126 q 373 1156 404 1126 q 342 1229 342 1185 q 374 1317 342 1285 q 465 1349 406 1349 q 553 1320 521 1349 q 585 1247 585 1292 q 551 1159 585 1192 q 453 1126 518 1126 z "},"ẞ":{"ha":1033,"x_min":14,"x_max":1028,"o":"m 90 104 l 90 617 q 151 844 90 747 q 322 992 211 940 q 582 1044 433 1044 q 735 1031 674 1044 q 865 993 797 1017 l 900 981 l 899 888 l 686 642 q 929 533 831 611 q 1028 308 1028 454 q 940 67 1028 150 q 689 -17 853 -17 q 585 -6 629 -17 q 492 24 542 6 q 433 40 447 39 l 439 286 l 550 286 l 583 113 q 621 86 594 96 q 679 76 647 76 q 765 124 732 76 q 797 276 797 171 q 758 403 797 340 q 655 512 719 467 q 521 568 590 557 l 521 621 l 707 908 q 554 956 646 956 q 377 871 440 956 q 314 636 314 786 l 314 0 l 14 0 l 14 89 l 90 104 z "},"Ə":{"ha":954,"x_min":50,"x_max":919,"o":"m 442 -15 q 247 28 333 -15 q 106 163 160 72 q 50 389 53 254 q 53 488 50 439 q 63 561 57 536 l 683 560 q 613 845 675 740 q 444 950 551 950 q 359 938 392 950 q 309 906 326 925 q 272 856 292 888 l 247 758 l 92 764 l 93 989 q 189 1007 125 990 q 325 1033 264 1024 q 467 1043 386 1043 q 703 982 601 1043 q 863 804 806 921 q 919 525 919 688 q 858 236 919 358 q 688 49 797 114 q 442 -15 579 -15 m 474 94 q 629 183 575 94 q 685 451 683 271 l 282 453 q 279 379 279 428 q 325 181 279 267 q 474 94 371 94 z "},"T":{"ha":1003,"x_min":22,"x_max":972,"o":"m 388 104 l 388 932 l 207 925 l 149 617 l 22 617 l 44 1032 l 956 1032 l 972 617 l 853 617 l 793 925 l 618 932 l 618 104 l 811 89 l 811 0 l 210 0 l 210 89 l 388 104 z "},"Ŧ":{"ha":1015,"x_min":29,"x_max":979,"o":"m 393 504 l 393 932 l 214 925 l 156 617 l 29 617 l 51 1032 l 961 1032 l 979 617 l 860 617 l 800 925 l 625 932 l 625 504 l 774 504 l 774 400 l 625 400 l 625 104 l 819 89 l 819 0 l 217 0 l 217 89 l 393 104 l 393 400 l 243 400 l 243 504 l 393 504 z "},"Ť":{"ha":1003,"x_min":22,"x_max":972,"o":"m 324 1365 l 510 1240 l 704 1365 l 776 1306 l 574 1113 l 444 1113 l 249 1306 l 324 1365 m 388 104 l 388 932 l 207 925 l 149 617 l 22 617 l 44 1032 l 956 1032 l 972 617 l 853 617 l 793 925 l 618 932 l 618 104 l 811 89 l 811 0 l 210 0 l 210 89 l 388 104 z "},"Ţ":{"ha":1003,"x_min":22,"x_max":972,"o":"m 618 932 l 618 104 l 811 89 l 811 0 l 554 0 q 617 -83 588 -32 q 646 -189 646 -133 q 594 -317 646 -281 q 442 -354 543 -354 q 390 -349 418 -354 q 343 -335 363 -343 l 343 -210 q 401 -218 372 -218 q 476 -200 454 -218 q 499 -122 499 -182 q 485 -56 499 -90 q 456 0 471 -22 l 210 0 l 210 89 l 388 104 l 388 932 l 207 925 l 149 617 l 22 617 l 44 1032 l 956 1032 l 972 617 l 853 617 l 793 925 l 618 932 z "},"Ț":{"ha":1003,"x_min":22,"x_max":972,"o":"m 388 104 l 388 932 l 207 925 l 149 617 l 22 617 l 44 1032 l 956 1032 l 972 617 l 853 617 l 793 925 l 618 932 l 618 104 l 811 89 l 811 0 l 210 0 l 210 89 l 388 104 m 618 -178 q 597 -269 618 -225 q 547 -343 575 -314 q 501 -379 519 -372 l 500 -379 l 431 -358 l 428 -347 q 453 -315 443 -342 q 463 -260 463 -287 q 436 -211 463 -229 q 406 -146 406 -189 q 438 -85 406 -104 q 507 -65 469 -65 l 511 -65 q 589 -94 560 -65 q 618 -178 618 -124 z "},"Ṫ":{"ha":1003,"x_min":22,"x_max":972,"o":"m 388 104 l 388 932 l 207 925 l 149 617 l 22 617 l 44 1032 l 956 1032 l 972 617 l 853 617 l 793 925 l 618 932 l 618 104 l 811 89 l 811 0 l 210 0 l 210 89 l 388 104 m 490 1126 q 410 1156 442 1126 q 379 1229 379 1185 q 411 1317 379 1285 q 503 1349 443 1349 q 590 1320 558 1349 q 622 1247 622 1292 q 589 1159 622 1192 q 490 1126 556 1126 z "},"U":{"ha":1033,"x_min":24,"x_max":1022,"o":"m 538 -11 q 217 93 322 -11 q 111 422 111 197 l 111 919 l 24 938 l 24 1032 l 464 1032 l 464 938 l 347 917 l 347 403 q 569 83 347 83 q 732 167 679 83 q 785 399 785 251 l 785 918 l 664 938 l 664 1032 l 1022 1032 l 1022 938 l 929 919 l 929 411 q 824 92 929 196 q 538 -11 718 -11 z "},"Ú":{"ha":1033,"x_min":24,"x_max":1022,"o":"m 538 -11 q 217 93 322 -11 q 111 422 111 197 l 111 919 l 24 938 l 24 1032 l 464 1032 l 464 938 l 347 917 l 347 403 q 569 83 347 83 q 732 167 679 83 q 785 399 785 251 l 785 918 l 664 938 l 664 1032 l 1022 1032 l 1022 938 l 929 919 l 929 411 q 824 92 929 196 q 538 -11 718 -11 m 469 1151 l 679 1364 l 817 1268 q 681 1160 767 1213 q 549 1092 596 1107 l 469 1151 z "},"Ŭ":{"ha":1033,"x_min":24,"x_max":1022,"o":"m 547 1104 q 405 1135 464 1104 q 317 1217 346 1165 q 288 1329 288 1268 q 289 1360 288 1350 l 396 1360 q 397 1344 396 1350 q 438 1272 403 1304 q 547 1240 472 1240 q 656 1272 622 1240 q 693 1344 689 1303 q 694 1360 694 1350 l 803 1360 q 804 1331 804 1350 q 774 1217 804 1269 q 686 1135 744 1165 q 547 1104 628 1104 m 538 -11 q 217 93 322 -11 q 111 422 111 197 l 111 919 l 24 938 l 24 1032 l 464 1032 l 464 938 l 347 917 l 347 403 q 569 83 347 83 q 732 167 679 83 q 785 399 785 251 l 785 918 l 664 938 l 664 1032 l 1022 1032 l 1022 938 l 929 919 l 929 411 q 824 92 929 196 q 538 -11 718 -11 z "},"Û":{"ha":1033,"x_min":24,"x_max":1022,"o":"m 479 1361 l 610 1361 l 815 1160 l 742 1099 l 543 1232 l 344 1099 l 272 1158 l 479 1361 m 538 -11 q 217 93 322 -11 q 111 422 111 197 l 111 919 l 24 938 l 24 1032 l 464 1032 l 464 938 l 347 917 l 347 403 q 569 83 347 83 q 732 167 679 83 q 785 399 785 251 l 785 918 l 664 938 l 664 1032 l 1022 1032 l 1022 938 l 929 919 l 929 411 q 824 92 929 196 q 538 -11 718 -11 z "},"Ü":{"ha":1033,"x_min":24,"x_max":1022,"o":"m 350 1121 q 281 1151 308 1121 q 253 1225 253 1182 q 283 1314 253 1279 q 369 1349 313 1349 l 371 1349 q 451 1319 424 1349 q 479 1244 479 1289 q 447 1155 479 1189 q 351 1121 415 1121 l 350 1121 m 710 1121 q 640 1153 668 1121 q 613 1225 613 1185 q 642 1314 613 1279 q 729 1349 672 1349 l 731 1349 q 810 1319 783 1349 q 838 1244 838 1289 q 806 1155 838 1189 q 710 1121 774 1121 m 538 -11 q 217 93 322 -11 q 111 422 111 197 l 111 919 l 24 938 l 24 1032 l 464 1032 l 464 938 l 347 917 l 347 403 q 569 83 347 83 q 732 167 679 83 q 785 399 785 251 l 785 918 l 664 938 l 664 1032 l 1022 1032 l 1022 938 l 929 919 l 929 411 q 824 92 929 196 q 538 -11 718 -11 z "},"Ụ":{"ha":1033,"x_min":24,"x_max":1022,"o":"m 538 -11 q 217 93 322 -11 q 111 422 111 197 l 111 919 l 24 938 l 24 1032 l 464 1032 l 464 938 l 347 917 l 347 403 q 569 83 347 83 q 732 167 679 83 q 785 399 785 251 l 785 918 l 664 938 l 664 1032 l 1022 1032 l 1022 938 l 929 919 l 929 411 q 824 92 929 196 q 538 -11 718 -11 m 510 -271 q 443 -245 469 -271 q 417 -182 417 -219 q 445 -108 417 -137 q 521 -78 474 -78 q 592 -103 567 -78 q 618 -167 618 -128 q 590 -241 618 -211 q 511 -271 563 -271 l 510 -271 z "},"Ù":{"ha":1033,"x_min":24,"x_max":1022,"o":"m 538 -11 q 217 93 322 -11 q 111 422 111 197 l 111 919 l 24 938 l 24 1032 l 464 1032 l 464 938 l 347 917 l 347 403 q 569 83 347 83 q 732 167 679 83 q 785 399 785 251 l 785 918 l 664 938 l 664 1032 l 1022 1032 l 1022 938 l 929 919 l 929 411 q 824 92 929 196 q 538 -11 718 -11 m 581 1092 q 443 1163 531 1108 q 315 1268 356 1218 l 453 1364 l 661 1151 l 581 1092 z "},"Ủ":{"ha":1033,"x_min":24,"x_max":1022,"o":"m 538 -11 q 217 93 322 -11 q 111 422 111 197 l 111 919 l 24 938 l 24 1032 l 464 1032 l 464 938 l 347 917 l 347 403 q 569 83 347 83 q 732 167 679 83 q 785 399 785 251 l 785 918 l 664 938 l 664 1032 l 1022 1032 l 1022 938 l 929 919 l 929 411 q 824 92 929 196 q 538 -11 718 -11 m 535 1107 q 513 1139 525 1117 q 500 1171 500 1161 q 508 1197 500 1188 q 535 1221 517 1207 q 560 1242 551 1233 q 571 1263 568 1250 l 571 1268 q 507 1324 571 1319 q 465 1321 471 1324 l 460 1443 q 481 1449 463 1446 q 514 1451 500 1451 q 607 1433 561 1451 q 683 1380 653 1415 q 714 1294 714 1344 q 696 1241 714 1263 q 644 1194 678 1219 l 621 1176 q 603 1139 603 1161 q 607 1115 603 1131 l 535 1107 z "},"Ư":{"ha":1033,"x_min":24,"x_max":1138,"o":"m 1138 1172 q 1077 1008 1138 1076 q 929 911 1017 939 l 929 411 q 824 92 929 196 q 538 -11 718 -11 q 217 93 322 -11 q 111 422 111 197 l 111 919 l 24 938 l 24 1032 l 464 1032 l 464 938 l 347 917 l 347 403 q 569 83 347 83 q 732 167 679 83 q 785 399 785 251 l 785 918 l 664 938 l 664 1032 l 838 1032 q 949 1076 914 1032 q 992 1179 983 1121 q 993 1203 994 1197 l 1135 1203 q 1138 1172 1138 1181 z "},"Ứ":{"ha":1033,"x_min":24,"x_max":1138,"o":"m 1138 1172 q 1077 1008 1138 1076 q 929 911 1017 939 l 929 411 q 824 92 929 196 q 538 -11 718 -11 q 217 93 322 -11 q 111 422 111 197 l 111 919 l 24 938 l 24 1032 l 464 1032 l 464 938 l 347 917 l 347 403 q 569 83 347 83 q 732 167 679 83 q 785 399 785 251 l 785 918 l 664 938 l 664 1032 l 838 1032 q 949 1076 914 1032 q 992 1179 983 1121 q 993 1203 994 1197 l 1135 1203 q 1138 1172 1138 1181 m 418 1151 l 628 1364 l 765 1268 q 630 1160 715 1213 q 497 1092 544 1107 l 418 1151 z "},"Ự":{"ha":1033,"x_min":24,"x_max":1138,"o":"m 1138 1172 q 1077 1008 1138 1076 q 929 911 1017 939 l 929 411 q 824 92 929 196 q 538 -11 718 -11 q 217 93 322 -11 q 111 422 111 197 l 111 919 l 24 938 l 24 1032 l 464 1032 l 464 938 l 347 917 l 347 403 q 569 83 347 83 q 732 167 679 83 q 785 399 785 251 l 785 918 l 664 938 l 664 1032 l 838 1032 q 949 1076 914 1032 q 992 1179 983 1121 q 993 1203 994 1197 l 1135 1203 q 1138 1172 1138 1181 m 510 -271 q 443 -245 469 -271 q 417 -182 417 -219 q 445 -108 417 -137 q 521 -78 474 -78 q 592 -103 567 -78 q 618 -167 618 -128 q 590 -241 618 -211 q 511 -271 563 -271 l 510 -271 z "},"Ừ":{"ha":1033,"x_min":24,"x_max":1138,"o":"m 1138 1172 q 1077 1008 1138 1076 q 929 911 1017 939 l 929 411 q 824 92 929 196 q 538 -11 718 -11 q 217 93 322 -11 q 111 422 111 197 l 111 919 l 24 938 l 24 1032 l 464 1032 l 464 938 l 347 917 l 347 403 q 569 83 347 83 q 732 167 679 83 q 785 399 785 251 l 785 918 l 664 938 l 664 1032 l 838 1032 q 949 1076 914 1032 q 992 1179 983 1121 q 993 1203 994 1197 l 1135 1203 q 1138 1172 1138 1181 m 529 1092 q 392 1163 479 1108 q 264 1268 304 1218 l 401 1364 l 610 1151 l 529 1092 z "},"Ử":{"ha":1033,"x_min":24,"x_max":1138,"o":"m 1138 1172 q 1077 1008 1138 1076 q 929 911 1017 939 l 929 411 q 824 92 929 196 q 538 -11 718 -11 q 217 93 322 -11 q 111 422 111 197 l 111 919 l 24 938 l 24 1032 l 464 1032 l 464 938 l 347 917 l 347 403 q 569 83 347 83 q 732 167 679 83 q 785 399 785 251 l 785 918 l 664 938 l 664 1032 l 838 1032 q 949 1076 914 1032 q 992 1179 983 1121 q 993 1203 994 1197 l 1135 1203 q 1138 1172 1138 1181 m 483 1107 q 461 1139 474 1117 q 449 1171 449 1161 q 457 1197 449 1188 q 483 1221 465 1207 q 508 1242 500 1233 q 519 1263 517 1250 l 519 1268 q 456 1324 519 1319 q 414 1321 419 1324 l 408 1443 q 430 1449 411 1446 q 463 1451 449 1451 q 556 1433 510 1451 q 632 1380 601 1415 q 663 1294 663 1344 q 644 1241 663 1263 q 593 1194 626 1219 l 569 1176 q 551 1139 551 1161 q 556 1115 551 1131 l 483 1107 z "},"Ữ":{"ha":1033,"x_min":24,"x_max":1138,"o":"m 1138 1172 q 1077 1008 1138 1076 q 929 911 1017 939 l 929 411 q 824 92 929 196 q 538 -11 718 -11 q 217 93 322 -11 q 111 422 111 197 l 111 919 l 24 938 l 24 1032 l 464 1032 l 464 938 l 347 917 l 347 403 q 569 83 347 83 q 732 167 679 83 q 785 399 785 251 l 785 918 l 664 938 l 664 1032 l 838 1032 q 949 1076 914 1032 q 992 1179 983 1121 q 993 1203 994 1197 l 1135 1203 q 1138 1172 1138 1181 m 632 1121 q 560 1135 592 1121 q 488 1179 529 1150 q 430 1216 454 1204 q 379 1228 406 1228 q 319 1208 342 1228 q 271 1156 297 1189 l 203 1217 q 282 1316 228 1272 q 413 1360 336 1360 q 486 1344 456 1360 q 557 1300 517 1329 q 610 1265 589 1276 q 656 1254 631 1254 q 713 1270 692 1254 q 746 1303 733 1286 q 763 1326 758 1321 l 831 1265 q 632 1121 761 1121 z "},"Ű":{"ha":1033,"x_min":24,"x_max":1022,"o":"m 579 1275 q 472 1173 539 1225 q 350 1090 406 1121 l 265 1161 l 460 1365 l 579 1275 m 954 1275 q 849 1174 919 1229 q 724 1090 779 1118 l 638 1163 l 840 1364 l 954 1275 m 538 -11 q 217 93 322 -11 q 111 422 111 197 l 111 919 l 24 938 l 24 1032 l 464 1032 l 464 938 l 347 917 l 347 403 q 569 83 347 83 q 732 167 679 83 q 785 399 785 251 l 785 918 l 664 938 l 664 1032 l 1022 1032 l 1022 938 l 929 919 l 929 411 q 824 92 929 196 q 538 -11 718 -11 z "},"Ū":{"ha":1033,"x_min":24,"x_max":1022,"o":"m 765 1294 l 765 1164 l 326 1164 l 326 1294 l 765 1294 m 538 -11 q 217 93 322 -11 q 111 422 111 197 l 111 919 l 24 938 l 24 1032 l 464 1032 l 464 938 l 347 917 l 347 403 q 569 83 347 83 q 732 167 679 83 q 785 399 785 251 l 785 918 l 664 938 l 664 1032 l 1022 1032 l 1022 938 l 929 919 l 929 411 q 824 92 929 196 q 538 -11 718 -11 z "},"Ų":{"ha":1033,"x_min":24,"x_max":1022,"o":"m 538 -11 q 217 93 322 -11 q 111 422 111 197 l 111 919 l 24 938 l 24 1032 l 464 1032 l 464 938 l 347 917 l 347 403 q 569 83 347 83 q 732 167 679 83 q 785 399 785 251 l 785 918 l 664 938 l 664 1032 l 1022 1032 l 1022 938 l 929 919 l 929 411 q 872 156 929 254 q 710 19 814 58 q 618 -65 651 -22 q 585 -144 585 -107 q 609 -204 585 -181 q 674 -228 633 -228 q 717 -224 699 -228 q 760 -208 735 -219 l 760 -301 q 683 -335 732 -322 q 589 -347 635 -347 q 458 -313 510 -347 q 407 -210 407 -279 q 458 -97 407 -153 q 576 -8 508 -42 q 538 -11 551 -11 z "},"Ů":{"ha":1033,"x_min":24,"x_max":1022,"o":"m 1022 1032 l 1022 938 l 929 919 l 929 411 q 824 92 929 196 q 538 -11 718 -11 q 217 93 322 -11 q 111 422 111 197 l 111 919 l 24 938 l 24 1032 l 418 1032 q 347 1093 369 1054 q 325 1182 325 1132 q 394 1317 325 1268 q 575 1365 464 1365 q 753 1317 696 1365 q 810 1188 810 1268 q 782 1094 810 1133 q 704 1032 754 1054 l 1022 1032 m 568 1288 q 456 1188 456 1288 q 483 1114 456 1144 q 567 1083 510 1083 q 653 1108 628 1083 q 679 1179 679 1133 q 653 1258 679 1228 q 568 1288 626 1288 m 785 918 l 664 938 l 664 1018 q 564 1006 619 1006 q 464 1017 508 1006 l 464 938 l 347 917 l 347 403 q 569 83 347 83 q 732 167 679 83 q 785 399 785 251 l 785 918 z "},"Ũ":{"ha":1033,"x_min":24,"x_max":1022,"o":"m 661 1121 q 588 1136 619 1121 q 515 1181 556 1151 q 456 1216 479 1204 q 407 1228 433 1228 q 347 1208 369 1228 q 299 1156 325 1189 l 231 1217 q 310 1316 257 1272 q 440 1360 364 1360 q 514 1345 483 1360 q 586 1300 544 1331 q 638 1265 617 1276 q 683 1254 658 1254 q 742 1271 721 1254 q 776 1305 764 1288 q 790 1326 788 1322 l 858 1265 q 661 1121 789 1121 m 538 -11 q 217 93 322 -11 q 111 422 111 197 l 111 919 l 24 938 l 24 1032 l 464 1032 l 464 938 l 347 917 l 347 403 q 569 83 347 83 q 732 167 679 83 q 785 399 785 251 l 785 918 l 664 938 l 664 1032 l 1022 1032 l 1022 938 l 929 919 l 929 411 q 824 92 929 196 q 538 -11 718 -11 z "},"V":{"ha":964,"x_min":-26,"x_max":994,"o":"m -26 938 l -26 1032 l 419 1032 l 419 938 l 306 919 l 503 311 l 539 185 l 568 313 l 754 919 l 646 938 l 646 1032 l 994 1032 l 994 938 l 904 919 l 590 -10 l 404 -10 l 56 919 l -26 938 z "},"W":{"ha":1424,"x_min":-25,"x_max":1447,"o":"m -25 938 l -25 1032 l 411 1032 l 411 938 l 294 919 l 463 303 l 490 167 l 515 303 l 658 800 l 619 919 l 531 938 l 531 1032 l 988 1032 l 988 938 l 854 919 l 1022 303 l 1054 156 l 1079 303 l 1231 919 l 1111 938 l 1111 1032 l 1447 1032 l 1447 938 l 1360 919 l 1103 -7 l 897 -7 l 714 619 l 542 -7 l 339 -7 l 57 918 l -25 938 z "},"Ẃ":{"ha":1424,"x_min":-25,"x_max":1447,"o":"m -25 938 l -25 1032 l 411 1032 l 411 938 l 294 919 l 463 303 l 490 167 l 515 303 l 658 800 l 619 919 l 531 938 l 531 1032 l 988 1032 l 988 938 l 854 919 l 1022 303 l 1054 156 l 1079 303 l 1231 919 l 1111 938 l 1111 1032 l 1447 1032 l 1447 938 l 1360 919 l 1103 -7 l 897 -7 l 714 619 l 542 -7 l 339 -7 l 57 918 l -25 938 m 614 1151 l 824 1364 l 961 1268 q 826 1160 911 1213 q 693 1092 740 1107 l 614 1151 z "},"Ŵ":{"ha":1424,"x_min":-25,"x_max":1447,"o":"m 664 1361 l 794 1361 l 1000 1160 l 926 1099 l 728 1232 l 529 1099 l 457 1158 l 664 1361 m -25 938 l -25 1032 l 411 1032 l 411 938 l 294 919 l 463 303 l 490 167 l 515 303 l 658 800 l 619 919 l 531 938 l 531 1032 l 988 1032 l 988 938 l 854 919 l 1022 303 l 1054 156 l 1079 303 l 1231 919 l 1111 938 l 1111 1032 l 1447 1032 l 1447 938 l 1360 919 l 1103 -7 l 897 -7 l 714 619 l 542 -7 l 339 -7 l 57 918 l -25 938 z "},"Ẅ":{"ha":1421,"x_min":-28,"x_max":1446,"o":"m 532 1121 q 463 1151 490 1121 q 435 1225 435 1182 q 465 1314 435 1279 q 551 1349 494 1349 l 553 1349 q 633 1319 606 1349 q 661 1244 661 1289 q 629 1155 661 1189 q 533 1121 597 1121 l 532 1121 m 892 1121 q 822 1153 850 1121 q 794 1225 794 1185 q 824 1314 794 1279 q 911 1349 854 1349 l 913 1349 q 992 1319 965 1349 q 1019 1244 1019 1289 q 988 1155 1019 1189 q 892 1121 956 1121 m -28 938 l -28 1032 l 410 1032 l 410 938 l 292 919 l 460 303 l 488 167 l 514 303 l 657 800 l 617 919 l 529 938 l 529 1032 l 985 1032 l 985 938 l 853 919 l 1021 303 l 1053 156 l 1078 303 l 1229 919 l 1108 938 l 1108 1032 l 1446 1032 l 1446 938 l 1358 919 l 1100 -7 l 896 -7 l 713 619 l 540 -7 l 338 -7 l 54 918 l -28 938 z "},"Ẁ":{"ha":1424,"x_min":-25,"x_max":1447,"o":"m -25 938 l -25 1032 l 411 1032 l 411 938 l 294 919 l 463 303 l 490 167 l 515 303 l 658 800 l 619 919 l 531 938 l 531 1032 l 988 1032 l 988 938 l 854 919 l 1022 303 l 1054 156 l 1079 303 l 1231 919 l 1111 938 l 1111 1032 l 1447 1032 l 1447 938 l 1360 919 l 1103 -7 l 897 -7 l 714 619 l 542 -7 l 339 -7 l 57 918 l -25 938 m 725 1092 q 588 1163 675 1108 q 460 1268 500 1218 l 597 1364 l 806 1151 l 725 1092 z "},"X":{"ha":1003,"x_min":8,"x_max":1004,"o":"m 124 104 l 390 499 l 110 918 l 18 938 l 18 1032 l 489 1032 l 489 938 l 378 918 l 556 619 l 742 919 l 625 938 l 625 1032 l 988 1032 l 988 938 l 875 918 l 611 553 l 911 104 l 1004 89 l 1004 0 l 533 0 l 533 89 l 644 104 l 449 428 l 261 104 l 390 89 l 390 0 l 8 0 l 8 89 l 124 104 z "},"Y":{"ha":908,"x_min":-26,"x_max":939,"o":"m 342 104 l 342 413 l 51 919 l -26 938 l -26 1032 l 406 1032 l 406 938 l 313 919 l 475 594 l 510 503 l 547 594 l 696 919 l 588 938 l 588 1032 l 939 1032 l 939 938 l 854 922 l 585 414 l 585 104 l 733 89 l 733 0 l 199 0 l 199 89 l 342 104 z "},"Ý":{"ha":908,"x_min":-26,"x_max":939,"o":"m 342 104 l 342 413 l 51 919 l -26 938 l -26 1032 l 406 1032 l 406 938 l 313 919 l 475 594 l 510 503 l 547 594 l 696 919 l 588 938 l 588 1032 l 939 1032 l 939 938 l 854 922 l 585 414 l 585 104 l 733 89 l 733 0 l 199 0 l 199 89 l 342 104 m 385 1151 l 594 1364 l 732 1268 q 597 1160 682 1213 q 464 1092 511 1107 l 385 1151 z "},"Ŷ":{"ha":908,"x_min":-26,"x_max":939,"o":"m 407 1361 l 538 1361 l 743 1160 l 669 1099 l 471 1232 l 272 1099 l 200 1158 l 407 1361 m 342 104 l 342 413 l 51 919 l -26 938 l -26 1032 l 406 1032 l 406 938 l 313 919 l 475 594 l 510 503 l 547 594 l 696 919 l 588 938 l 588 1032 l 939 1032 l 939 938 l 854 922 l 585 414 l 585 104 l 733 89 l 733 0 l 199 0 l 199 89 l 342 104 z "},"Ÿ":{"ha":908,"x_min":-26,"x_max":939,"o":"m 276 1121 q 208 1151 235 1121 q 181 1225 181 1182 q 210 1314 181 1279 q 297 1349 240 1349 l 299 1349 q 378 1319 351 1349 q 406 1244 406 1289 q 374 1155 406 1189 q 278 1121 342 1121 l 276 1121 m 638 1121 q 568 1153 596 1121 q 540 1225 540 1185 q 569 1314 540 1279 q 656 1349 599 1349 l 657 1349 q 738 1319 710 1349 q 765 1244 765 1289 q 733 1155 765 1189 q 638 1121 701 1121 m 342 104 l 342 413 l 51 919 l -26 938 l -26 1032 l 406 1032 l 406 938 l 313 919 l 475 594 l 510 503 l 547 594 l 696 919 l 588 938 l 588 1032 l 939 1032 l 939 938 l 854 922 l 585 414 l 585 104 l 733 89 l 733 0 l 199 0 l 199 89 l 342 104 z "},"Ỵ":{"ha":908,"x_min":-26,"x_max":939,"o":"m 342 104 l 342 413 l 51 919 l -26 938 l -26 1032 l 406 1032 l 406 938 l 313 919 l 475 594 l 510 503 l 547 594 l 696 919 l 588 938 l 588 1032 l 939 1032 l 939 938 l 854 922 l 585 414 l 585 104 l 733 89 l 733 0 l 199 0 l 199 89 l 342 104 m 449 -271 q 382 -245 408 -271 q 356 -182 356 -219 q 384 -108 356 -137 q 460 -78 413 -78 q 531 -103 506 -78 q 557 -167 557 -128 q 529 -241 557 -211 q 450 -271 501 -271 l 449 -271 z "},"Ỳ":{"ha":908,"x_min":-26,"x_max":939,"o":"m 342 104 l 342 413 l 51 919 l -26 938 l -26 1032 l 406 1032 l 406 938 l 313 919 l 475 594 l 510 503 l 547 594 l 696 919 l 588 938 l 588 1032 l 939 1032 l 939 938 l 854 922 l 585 414 l 585 104 l 733 89 l 733 0 l 199 0 l 199 89 l 342 104 m 496 1092 q 358 1163 446 1108 q 231 1268 271 1218 l 368 1364 l 576 1151 l 496 1092 z "},"Ỷ":{"ha":908,"x_min":-26,"x_max":939,"o":"m 342 104 l 342 413 l 51 919 l -26 938 l -26 1032 l 406 1032 l 406 938 l 313 919 l 475 594 l 510 503 l 547 594 l 696 919 l 588 938 l 588 1032 l 939 1032 l 939 938 l 854 922 l 585 414 l 585 104 l 733 89 l 733 0 l 199 0 l 199 89 l 342 104 m 450 1107 q 428 1139 440 1117 q 415 1171 415 1161 q 424 1197 415 1188 q 450 1221 432 1207 q 475 1242 467 1233 q 486 1263 483 1250 l 486 1268 q 422 1324 486 1319 q 381 1321 386 1324 l 375 1443 q 397 1449 378 1446 q 429 1451 415 1451 q 522 1433 476 1451 q 599 1380 568 1415 q 629 1294 629 1344 q 611 1241 629 1263 q 560 1194 593 1219 l 536 1176 q 518 1139 518 1161 q 522 1115 518 1131 l 450 1107 z "},"Ỹ":{"ha":908,"x_min":-26,"x_max":939,"o":"m 342 104 l 342 413 l 51 919 l -26 938 l -26 1032 l 406 1032 l 406 938 l 313 919 l 475 594 l 510 503 l 547 594 l 696 919 l 588 938 l 588 1032 l 939 1032 l 939 938 l 854 922 l 585 414 l 585 104 l 733 89 l 733 0 l 199 0 l 199 89 l 342 104 m 599 1121 q 527 1135 558 1121 q 454 1179 496 1150 q 397 1216 421 1204 q 346 1228 372 1228 q 286 1208 308 1228 q 238 1156 264 1189 l 169 1217 q 249 1316 194 1272 q 379 1360 303 1360 q 453 1344 422 1360 q 524 1300 483 1329 q 576 1265 556 1276 q 622 1254 597 1254 q 679 1270 658 1254 q 713 1303 700 1286 q 729 1326 725 1321 l 797 1265 q 599 1121 728 1121 z "},"Z":{"ha":910,"x_min":24,"x_max":876,"o":"m 526 854 l 608 949 l 269 929 l 193 739 l 78 756 l 113 1035 l 831 1035 l 864 956 l 374 183 l 275 92 l 679 119 l 760 335 l 876 310 l 844 0 l 69 0 l 24 79 l 526 854 z "},"Ź":{"ha":910,"x_min":24,"x_max":876,"o":"m 526 854 l 608 949 l 269 929 l 193 739 l 78 756 l 113 1035 l 831 1035 l 864 956 l 374 183 l 275 92 l 679 119 l 760 335 l 876 310 l 844 0 l 69 0 l 24 79 l 526 854 m 413 1151 l 622 1364 l 760 1268 q 624 1160 710 1213 q 492 1092 539 1107 l 413 1151 z "},"Ž":{"ha":910,"x_min":24,"x_max":876,"o":"m 299 1365 l 485 1240 l 681 1365 l 753 1306 l 550 1113 l 419 1113 l 225 1306 l 299 1365 m 526 854 l 608 949 l 269 929 l 193 739 l 78 756 l 113 1035 l 831 1035 l 864 956 l 374 183 l 275 92 l 679 119 l 760 335 l 876 310 l 844 0 l 69 0 l 24 79 l 526 854 z "},"Ż":{"ha":910,"x_min":24,"x_max":876,"o":"m 526 854 l 608 949 l 269 929 l 193 739 l 78 756 l 113 1035 l 831 1035 l 864 956 l 374 183 l 275 92 l 679 119 l 760 335 l 876 310 l 844 0 l 69 0 l 24 79 l 526 854 m 500 1126 q 420 1156 451 1126 q 389 1229 389 1185 q 421 1317 389 1285 q 513 1349 453 1349 q 600 1320 568 1349 q 632 1247 632 1292 q 599 1159 632 1192 q 500 1126 565 1126 z "},"a":{"ha":790,"x_min":42,"x_max":771,"o":"m 42 217 q 160 408 42 343 q 493 476 279 474 l 493 504 q 482 587 493 557 q 441 631 471 617 q 354 646 411 646 q 227 628 283 646 q 117 586 171 611 l 69 683 q 143 726 92 701 q 265 771 194 751 q 410 790 335 790 q 582 762 519 790 q 672 672 644 733 q 699 506 699 610 l 699 89 l 771 89 l 771 4 q 685 -10 740 -3 q 590 -17 629 -17 q 522 -1 539 -17 q 506 60 506 14 l 506 93 q 412 18 471 51 q 276 -15 353 -15 q 109 46 176 -15 q 42 217 42 107 m 379 108 q 437 124 404 108 q 493 163 469 140 l 493 385 q 327 344 382 385 q 272 243 272 304 q 301 144 272 179 q 379 108 329 108 z "},"á":{"ha":790,"x_min":42,"x_max":771,"o":"m 42 217 q 160 408 42 343 q 493 476 279 474 l 493 504 q 482 587 493 557 q 441 631 471 617 q 354 646 411 646 q 227 628 283 646 q 117 586 171 611 l 69 683 q 143 726 92 701 q 265 771 194 751 q 410 790 335 790 q 582 762 519 790 q 672 672 644 733 q 699 506 699 610 l 699 89 l 771 89 l 771 4 q 685 -10 740 -3 q 590 -17 629 -17 q 522 -1 539 -17 q 506 60 506 14 l 506 93 q 412 18 471 51 q 276 -15 353 -15 q 109 46 176 -15 q 42 217 42 107 m 379 108 q 437 124 404 108 q 493 163 469 140 l 493 385 q 327 344 382 385 q 272 243 272 304 q 301 144 272 179 q 379 108 329 108 m 324 951 l 569 1246 l 697 1131 q 564 990 661 1071 q 406 886 467 910 l 324 951 z "},"ă":{"ha":790,"x_min":42,"x_max":771,"o":"m 389 903 q 255 933 313 903 q 166 1017 197 964 q 135 1135 135 1069 q 138 1197 135 1183 l 238 1197 q 239 1168 238 1179 q 283 1084 247 1118 q 389 1050 318 1050 q 493 1084 458 1050 q 533 1167 528 1118 q 536 1197 536 1192 l 635 1197 l 636 1136 q 605 1017 636 1071 q 517 933 574 964 q 389 903 461 903 m 42 217 q 160 408 42 343 q 493 476 279 474 l 493 504 q 482 587 493 557 q 441 631 471 617 q 354 646 411 646 q 227 628 283 646 q 117 586 171 611 l 69 683 q 143 726 92 701 q 265 771 194 751 q 410 790 335 790 q 582 762 519 790 q 672 672 644 733 q 699 506 699 610 l 699 89 l 771 89 l 771 4 q 685 -10 740 -3 q 590 -17 629 -17 q 522 -1 539 -17 q 506 60 506 14 l 506 93 q 412 18 471 51 q 276 -15 353 -15 q 109 46 176 -15 q 42 217 42 107 m 379 108 q 437 124 404 108 q 493 163 469 140 l 493 385 q 327 344 382 385 q 272 243 272 304 q 301 144 272 179 q 379 108 329 108 z "},"ắ":{"ha":790,"x_min":42,"x_max":771,"o":"m 346 1206 l 554 1457 l 664 1358 q 550 1240 633 1308 q 415 1150 467 1171 l 346 1206 m 421 883 q 308 910 357 883 q 231 981 258 936 q 204 1081 204 1025 q 207 1135 204 1122 l 293 1135 q 294 1110 293 1119 q 331 1038 300 1068 q 421 1008 361 1008 q 510 1037 481 1008 q 546 1108 539 1065 l 547 1135 l 631 1135 q 633 1082 633 1110 q 606 981 633 1026 q 531 910 579 936 q 421 883 482 883 m 42 217 q 160 408 42 343 q 493 476 279 474 l 493 504 q 482 587 493 557 q 441 631 471 617 q 354 646 411 646 q 227 628 283 646 q 117 586 171 611 l 69 683 q 143 726 92 701 q 265 771 194 751 q 410 790 335 790 q 582 762 519 790 q 672 672 644 733 q 699 506 699 610 l 699 89 l 771 89 l 771 4 q 685 -10 740 -3 q 590 -17 629 -17 q 522 -1 539 -17 q 506 60 506 14 l 506 93 q 412 18 471 51 q 276 -15 353 -15 q 109 46 176 -15 q 42 217 42 107 m 379 108 q 437 124 404 108 q 493 163 469 140 l 493 385 q 327 344 382 385 q 272 243 272 304 q 301 144 272 179 q 379 108 329 108 z "},"ặ":{"ha":790,"x_min":42,"x_max":771,"o":"m 42 217 q 160 408 42 343 q 493 476 279 474 l 493 504 q 482 587 493 557 q 441 631 471 617 q 354 646 411 646 q 227 628 283 646 q 117 586 171 611 l 69 683 q 143 726 92 701 q 265 771 194 751 q 410 790 335 790 q 582 762 519 790 q 672 672 644 733 q 699 506 699 610 l 699 89 l 771 89 l 771 4 q 685 -10 740 -3 q 590 -17 629 -17 q 522 -1 539 -17 q 506 60 506 14 l 506 93 q 412 18 471 51 q 276 -15 353 -15 q 109 46 176 -15 q 42 217 42 107 m 379 108 q 437 124 404 108 q 493 163 469 140 l 493 385 q 327 344 382 385 q 272 243 272 304 q 301 144 272 179 q 379 108 329 108 m 388 -271 q 321 -245 347 -271 q 294 -182 294 -219 q 323 -108 294 -137 q 399 -78 351 -78 q 470 -103 444 -78 q 496 -167 496 -128 q 468 -241 496 -211 q 389 -271 440 -271 l 388 -271 m 397 900 q 263 931 321 900 q 174 1014 206 961 q 143 1132 143 1067 q 146 1194 143 1181 l 247 1194 q 249 1165 247 1176 q 291 1081 256 1115 q 397 1047 326 1047 q 502 1081 468 1047 q 543 1164 536 1114 q 546 1194 546 1189 l 643 1194 q 646 1133 646 1167 q 615 1015 646 1068 q 526 931 583 961 q 397 900 469 900 z "},"ằ":{"ha":790,"x_min":42,"x_max":771,"o":"m 424 1150 q 290 1238 374 1168 q 176 1358 206 1307 l 285 1457 l 494 1206 l 425 1150 l 424 1150 m 419 883 q 306 910 356 883 q 230 981 257 936 q 203 1081 203 1025 q 206 1135 203 1122 l 292 1135 q 293 1110 292 1119 q 329 1038 299 1068 q 419 1008 360 1008 q 508 1037 479 1008 q 544 1108 538 1065 l 546 1135 l 629 1135 q 632 1082 632 1110 q 605 981 632 1026 q 529 910 578 936 q 419 883 481 883 m 42 217 q 160 408 42 343 q 493 476 279 474 l 493 504 q 482 587 493 557 q 441 631 471 617 q 354 646 411 646 q 227 628 283 646 q 117 586 171 611 l 69 683 q 143 726 92 701 q 265 771 194 751 q 410 790 335 790 q 582 762 519 790 q 672 672 644 733 q 699 506 699 610 l 699 89 l 771 89 l 771 4 q 685 -10 740 -3 q 590 -17 629 -17 q 522 -1 539 -17 q 506 60 506 14 l 506 93 q 412 18 471 51 q 276 -15 353 -15 q 109 46 176 -15 q 42 217 42 107 m 379 108 q 437 124 404 108 q 493 163 469 140 l 493 385 q 327 344 382 385 q 272 243 272 304 q 301 144 272 179 q 379 108 329 108 z "},"ẳ":{"ha":790,"x_min":42,"x_max":771,"o":"m 401 1144 q 383 1172 394 1153 q 372 1199 372 1192 q 380 1222 372 1213 q 403 1242 388 1231 q 432 1276 429 1260 l 432 1282 q 378 1329 432 1325 q 343 1326 347 1329 l 338 1431 q 356 1435 340 1433 q 385 1438 372 1438 q 501 1403 449 1438 q 554 1304 554 1368 q 539 1258 554 1276 q 504 1226 524 1240 q 475 1204 485 1211 q 461 1172 461 1190 q 464 1151 461 1160 l 401 1144 m 419 883 q 306 910 356 883 q 230 981 257 936 q 203 1081 203 1025 q 206 1135 203 1122 l 292 1135 q 293 1110 292 1119 q 329 1038 299 1068 q 419 1008 360 1008 q 508 1037 479 1008 q 544 1108 538 1065 l 546 1135 l 629 1135 q 632 1082 632 1110 q 605 981 632 1026 q 529 910 578 936 q 419 883 481 883 m 42 217 q 160 408 42 343 q 493 476 279 474 l 493 504 q 482 587 493 557 q 441 631 471 617 q 354 646 411 646 q 227 628 283 646 q 117 586 171 611 l 69 683 q 143 726 92 701 q 265 771 194 751 q 410 790 335 790 q 582 762 519 790 q 672 672 644 733 q 699 506 699 610 l 699 89 l 771 89 l 771 4 q 685 -10 740 -3 q 590 -17 629 -17 q 522 -1 539 -17 q 506 60 506 14 l 506 93 q 412 18 471 51 q 276 -15 353 -15 q 109 46 176 -15 q 42 217 42 107 m 379 108 q 437 124 404 108 q 493 163 469 140 l 493 385 q 327 344 382 385 q 272 243 272 304 q 301 144 272 179 q 379 108 329 108 z "},"ẵ":{"ha":790,"x_min":42,"x_max":771,"o":"m 161 1243 q 228 1333 185 1294 q 339 1372 272 1372 q 402 1358 376 1372 q 458 1318 428 1344 q 502 1288 485 1297 q 540 1278 519 1278 q 592 1294 572 1278 q 629 1335 611 1310 l 688 1288 q 517 1160 626 1160 q 456 1173 482 1160 q 399 1211 431 1186 q 352 1244 371 1233 q 310 1254 333 1254 q 260 1240 278 1254 q 218 1199 242 1226 l 161 1243 m 421 883 q 308 910 357 883 q 231 981 258 936 q 204 1081 204 1025 q 207 1135 204 1122 l 293 1135 q 294 1110 293 1119 q 331 1038 300 1068 q 421 1008 361 1008 q 510 1037 481 1008 q 546 1108 539 1065 l 547 1135 l 631 1135 q 633 1082 633 1110 q 606 981 633 1026 q 531 910 579 936 q 421 883 482 883 m 42 217 q 160 408 42 343 q 493 476 279 474 l 493 504 q 482 587 493 557 q 441 631 471 617 q 354 646 411 646 q 227 628 283 646 q 117 586 171 611 l 69 683 q 143 726 92 701 q 265 771 194 751 q 410 790 335 790 q 582 762 519 790 q 672 672 644 733 q 699 506 699 610 l 699 89 l 771 89 l 771 4 q 685 -10 740 -3 q 590 -17 629 -17 q 522 -1 539 -17 q 506 60 506 14 l 506 93 q 412 18 471 51 q 276 -15 353 -15 q 109 46 176 -15 q 42 217 42 107 m 379 108 q 437 124 404 108 q 493 163 469 140 l 493 385 q 327 344 382 385 q 272 243 272 304 q 301 144 272 179 q 379 108 329 108 z "},"â":{"ha":790,"x_min":42,"x_max":771,"o":"m 324 1215 l 449 1215 l 661 944 l 586 885 l 388 1061 l 183 883 l 113 943 l 324 1215 m 42 217 q 160 408 42 343 q 493 476 279 474 l 493 504 q 482 587 493 557 q 441 631 471 617 q 354 646 411 646 q 227 628 283 646 q 117 586 171 611 l 69 683 q 143 726 92 701 q 265 771 194 751 q 410 790 335 790 q 582 762 519 790 q 672 672 644 733 q 699 506 699 610 l 699 89 l 771 89 l 771 4 q 685 -10 740 -3 q 590 -17 629 -17 q 522 -1 539 -17 q 506 60 506 14 l 506 93 q 412 18 471 51 q 276 -15 353 -15 q 109 46 176 -15 q 42 217 42 107 m 379 108 q 437 124 404 108 q 493 163 469 140 l 493 385 q 327 344 382 385 q 272 243 272 304 q 301 144 272 179 q 379 108 329 108 z "},"ấ":{"ha":790,"x_min":42,"x_max":913,"o":"m 594 1078 l 803 1329 l 913 1231 q 799 1112 882 1181 q 664 1022 715 1043 l 594 1078 m 364 1150 l 471 1150 l 653 919 l 589 868 l 419 1018 l 244 867 l 185 918 l 364 1150 m 42 217 q 160 408 42 343 q 493 476 279 474 l 493 504 q 482 587 493 557 q 441 631 471 617 q 354 646 411 646 q 227 628 283 646 q 117 586 171 611 l 69 683 q 143 726 92 701 q 265 771 194 751 q 410 790 335 790 q 582 762 519 790 q 672 672 644 733 q 699 506 699 610 l 699 89 l 771 89 l 771 4 q 685 -10 740 -3 q 590 -17 629 -17 q 522 -1 539 -17 q 506 60 506 14 l 506 93 q 412 18 471 51 q 276 -15 353 -15 q 109 46 176 -15 q 42 217 42 107 m 379 108 q 437 124 404 108 q 493 163 469 140 l 493 385 q 327 344 382 385 q 272 243 272 304 q 301 144 272 179 q 379 108 329 108 z "},"ậ":{"ha":790,"x_min":42,"x_max":771,"o":"m 42 217 q 160 408 42 343 q 493 476 279 474 l 493 504 q 482 587 493 557 q 441 631 471 617 q 354 646 411 646 q 227 628 283 646 q 117 586 171 611 l 69 683 q 143 726 92 701 q 265 771 194 751 q 410 790 335 790 q 582 762 519 790 q 672 672 644 733 q 699 506 699 610 l 699 89 l 771 89 l 771 4 q 685 -10 740 -3 q 590 -17 629 -17 q 522 -1 539 -17 q 506 60 506 14 l 506 93 q 412 18 471 51 q 276 -15 353 -15 q 109 46 176 -15 q 42 217 42 107 m 379 108 q 437 124 404 108 q 493 163 469 140 l 493 385 q 327 344 382 385 q 272 243 272 304 q 301 144 272 179 q 379 108 329 108 m 388 -271 q 321 -245 347 -271 q 294 -182 294 -219 q 323 -108 294 -137 q 399 -78 351 -78 q 470 -103 444 -78 q 496 -167 496 -128 q 468 -241 496 -211 q 389 -271 440 -271 l 388 -271 m 332 1214 l 457 1214 l 669 943 l 594 883 l 396 1060 l 192 882 l 121 942 l 332 1214 z "},"ầ":{"ha":790,"x_min":42,"x_max":771,"o":"m 603 1143 q 469 1231 553 1161 q 356 1351 385 1300 l 464 1450 l 674 1199 l 604 1143 l 603 1143 m 364 1150 l 471 1150 l 653 919 l 589 868 l 419 1018 l 244 867 l 185 918 l 364 1150 m 42 217 q 160 408 42 343 q 493 476 279 474 l 493 504 q 482 587 493 557 q 441 631 471 617 q 354 646 411 646 q 227 628 283 646 q 117 586 171 611 l 69 683 q 143 726 92 701 q 265 771 194 751 q 410 790 335 790 q 582 762 519 790 q 672 672 644 733 q 699 506 699 610 l 699 89 l 771 89 l 771 4 q 685 -10 740 -3 q 590 -17 629 -17 q 522 -1 539 -17 q 506 60 506 14 l 506 93 q 412 18 471 51 q 276 -15 353 -15 q 109 46 176 -15 q 42 217 42 107 m 379 108 q 437 124 404 108 q 493 163 469 140 l 493 385 q 327 344 382 385 q 272 243 272 304 q 301 144 272 179 q 379 108 329 108 z "},"ẩ":{"ha":790,"x_min":42,"x_max":785,"o":"m 632 1061 q 614 1089 625 1069 q 603 1115 603 1108 q 610 1138 603 1129 q 633 1158 618 1147 q 663 1193 660 1176 l 663 1199 q 608 1246 663 1242 q 574 1243 578 1246 l 568 1347 q 587 1352 571 1350 q 615 1354 603 1354 q 732 1319 679 1354 q 785 1221 785 1285 q 769 1175 785 1193 q 735 1142 754 1157 q 706 1121 715 1128 q 692 1089 692 1107 q 694 1068 692 1076 l 632 1061 m 364 1151 l 471 1151 l 653 921 l 589 869 l 419 1019 l 244 868 l 185 919 l 364 1151 m 42 217 q 160 408 42 343 q 493 476 279 474 l 493 504 q 482 587 493 557 q 441 631 471 617 q 354 646 411 646 q 227 628 283 646 q 117 586 171 611 l 69 683 q 143 726 92 701 q 265 771 194 751 q 410 790 335 790 q 582 762 519 790 q 672 672 644 733 q 699 506 699 610 l 699 89 l 771 89 l 771 4 q 685 -10 740 -3 q 590 -17 629 -17 q 522 -1 539 -17 q 506 60 506 14 l 506 93 q 412 18 471 51 q 276 -15 353 -15 q 109 46 176 -15 q 42 217 42 107 m 379 108 q 437 124 404 108 q 493 163 469 140 l 493 385 q 327 344 382 385 q 272 243 272 304 q 301 144 272 179 q 379 108 329 108 z "},"ẫ":{"ha":790,"x_min":42,"x_max":771,"o":"m 178 1257 q 245 1347 201 1308 q 356 1386 289 1386 q 419 1372 393 1386 q 475 1332 444 1358 q 519 1301 501 1311 q 557 1292 536 1292 q 608 1308 589 1292 q 646 1349 628 1324 l 704 1301 q 533 1174 643 1174 q 473 1187 499 1174 q 415 1225 447 1200 q 369 1258 388 1247 q 326 1268 350 1268 q 276 1254 294 1268 q 235 1213 258 1240 l 178 1257 m 364 1150 l 471 1150 l 653 919 l 589 868 l 419 1018 l 244 867 l 185 918 l 364 1150 m 42 217 q 160 408 42 343 q 493 476 279 474 l 493 504 q 482 587 493 557 q 441 631 471 617 q 354 646 411 646 q 227 628 283 646 q 117 586 171 611 l 69 683 q 143 726 92 701 q 265 771 194 751 q 410 790 335 790 q 582 762 519 790 q 672 672 644 733 q 699 506 699 610 l 699 89 l 771 89 l 771 4 q 685 -10 740 -3 q 590 -17 629 -17 q 522 -1 539 -17 q 506 60 506 14 l 506 93 q 412 18 471 51 q 276 -15 353 -15 q 109 46 176 -15 q 42 217 42 107 m 379 108 q 437 124 404 108 q 493 163 469 140 l 493 385 q 327 344 382 385 q 272 243 272 304 q 301 144 272 179 q 379 108 329 108 z "},"ä":{"ha":790,"x_min":42,"x_max":771,"o":"m 42 217 q 160 408 42 343 q 493 476 279 474 l 493 504 q 482 587 493 557 q 441 631 471 617 q 354 646 411 646 q 227 628 283 646 q 117 586 171 611 l 69 683 q 143 726 92 701 q 265 771 194 751 q 410 790 335 790 q 582 762 519 790 q 672 672 644 733 q 699 506 699 610 l 699 89 l 771 89 l 771 4 q 685 -10 740 -3 q 590 -17 629 -17 q 522 -1 539 -17 q 506 60 506 14 l 506 93 q 412 18 471 51 q 276 -15 353 -15 q 109 46 176 -15 q 42 217 42 107 m 379 108 q 437 124 404 108 q 493 163 469 140 l 493 385 q 327 344 382 385 q 272 243 272 304 q 301 144 272 179 q 379 108 329 108 m 232 908 q 163 940 190 908 q 135 1015 135 972 q 164 1107 135 1072 q 251 1142 193 1142 q 332 1111 304 1142 q 360 1035 360 1081 q 328 943 360 978 q 232 908 296 908 m 574 908 q 504 942 532 908 q 476 1015 476 975 q 506 1106 476 1071 q 593 1142 536 1142 q 674 1111 646 1142 q 701 1035 701 1081 q 669 943 701 978 q 574 908 638 908 z "},"ạ":{"ha":790,"x_min":42,"x_max":771,"o":"m 42 217 q 160 408 42 343 q 493 476 279 474 l 493 504 q 482 587 493 557 q 441 631 471 617 q 354 646 411 646 q 227 628 283 646 q 117 586 171 611 l 69 683 q 143 726 92 701 q 265 771 194 751 q 410 790 335 790 q 582 762 519 790 q 672 672 644 733 q 699 506 699 610 l 699 89 l 771 89 l 771 4 q 685 -10 740 -3 q 590 -17 629 -17 q 522 -1 539 -17 q 506 60 506 14 l 506 93 q 412 18 471 51 q 276 -15 353 -15 q 109 46 176 -15 q 42 217 42 107 m 379 108 q 437 124 404 108 q 493 163 469 140 l 493 385 q 327 344 382 385 q 272 243 272 304 q 301 144 272 179 q 379 108 329 108 m 388 -271 q 321 -245 347 -271 q 294 -182 294 -219 q 323 -108 294 -137 q 399 -78 351 -78 q 470 -103 444 -78 q 496 -167 496 -128 q 468 -241 496 -211 q 389 -271 440 -271 l 388 -271 z "},"à":{"ha":790,"x_min":42,"x_max":771,"o":"m 414 886 q 316 944 376 900 q 201 1040 256 988 q 124 1131 146 1092 l 253 1246 l 497 951 l 415 886 l 414 886 m 42 217 q 160 408 42 343 q 493 476 279 474 l 493 504 q 482 587 493 557 q 441 631 471 617 q 354 646 411 646 q 227 628 283 646 q 117 586 171 611 l 69 683 q 143 726 92 701 q 265 771 194 751 q 410 790 335 790 q 582 762 519 790 q 672 672 644 733 q 699 506 699 610 l 699 89 l 771 89 l 771 4 q 685 -10 740 -3 q 590 -17 629 -17 q 522 -1 539 -17 q 506 60 506 14 l 506 93 q 412 18 471 51 q 276 -15 353 -15 q 109 46 176 -15 q 42 217 42 107 m 379 108 q 437 124 404 108 q 493 163 469 140 l 493 385 q 327 344 382 385 q 272 243 272 304 q 301 144 272 179 q 379 108 329 108 z "},"ả":{"ha":790,"x_min":42,"x_max":771,"o":"m 42 217 q 160 408 42 343 q 493 476 279 474 l 493 504 q 482 587 493 557 q 441 631 471 617 q 354 646 411 646 q 227 628 283 646 q 117 586 171 611 l 69 683 q 143 726 92 701 q 265 771 194 751 q 410 790 335 790 q 582 762 519 790 q 672 672 644 733 q 699 506 699 610 l 699 89 l 771 89 l 771 4 q 685 -10 740 -3 q 590 -17 629 -17 q 522 -1 539 -17 q 506 60 506 14 l 506 93 q 412 18 471 51 q 276 -15 353 -15 q 109 46 176 -15 q 42 217 42 107 m 379 108 q 437 124 404 108 q 493 163 469 140 l 493 385 q 327 344 382 385 q 272 243 272 304 q 301 144 272 179 q 379 108 329 108 m 385 847 q 363 879 375 857 q 350 911 350 901 q 358 938 350 928 q 385 961 367 947 q 410 982 401 974 q 421 1003 418 990 l 421 1008 q 357 1064 421 1060 q 315 1061 321 1064 l 310 1183 q 331 1189 313 1186 q 364 1192 350 1192 q 457 1174 411 1192 q 533 1120 503 1156 q 564 1035 564 1085 q 546 981 564 1003 q 494 935 528 960 l 471 917 q 453 879 453 901 q 457 856 453 871 l 385 847 z "},"ā":{"ha":790,"x_min":42,"x_max":771,"o":"m 600 1092 l 600 963 l 174 963 l 174 1092 l 600 1092 m 42 217 q 160 408 42 343 q 493 476 279 474 l 493 504 q 482 587 493 557 q 441 631 471 617 q 354 646 411 646 q 227 628 283 646 q 117 586 171 611 l 69 683 q 143 726 92 701 q 265 771 194 751 q 410 790 335 790 q 582 762 519 790 q 672 672 644 733 q 699 506 699 610 l 699 89 l 771 89 l 771 4 q 685 -10 740 -3 q 590 -17 629 -17 q 522 -1 539 -17 q 506 60 506 14 l 506 93 q 412 18 471 51 q 276 -15 353 -15 q 109 46 176 -15 q 42 217 42 107 m 379 108 q 437 124 404 108 q 493 163 469 140 l 493 385 q 327 344 382 385 q 272 243 272 304 q 301 144 272 179 q 379 108 329 108 z "},"ą":{"ha":790,"x_min":42,"x_max":796,"o":"m 796 -279 q 715 -319 767 -303 q 610 -335 663 -335 q 483 -300 536 -335 q 429 -197 429 -265 q 465 -101 429 -150 q 565 -15 501 -53 q 517 3 529 -14 q 506 60 506 19 l 506 93 q 412 18 471 51 q 276 -15 353 -15 q 109 46 176 -15 q 42 217 42 107 q 160 408 42 343 q 493 476 279 474 l 493 504 q 482 587 493 557 q 441 631 471 617 q 354 646 411 646 q 227 628 283 646 q 117 586 171 611 l 69 683 q 143 726 92 701 q 265 771 194 751 q 410 790 335 790 q 582 762 519 790 q 672 672 644 733 q 699 506 699 610 l 699 89 l 771 89 l 771 4 l 715 -6 q 635 -71 664 -33 q 606 -142 606 -108 q 628 -197 606 -178 q 694 -217 651 -217 q 735 -211 718 -217 q 767 -199 751 -206 q 792 -187 783 -192 l 796 -279 m 493 385 q 327 344 382 385 q 272 243 272 304 q 301 144 272 179 q 379 108 329 108 q 437 124 404 108 q 493 163 469 140 l 493 385 z "},"å":{"ha":790,"x_min":42,"x_max":771,"o":"m 42 217 q 160 408 42 343 q 493 476 279 474 l 493 504 q 482 587 493 557 q 441 631 471 617 q 354 646 411 646 q 227 628 283 646 q 117 586 171 611 l 69 683 q 143 726 92 701 q 265 771 194 751 q 410 790 335 790 q 582 762 519 790 q 672 672 644 733 q 699 506 699 610 l 699 89 l 771 89 l 771 4 q 685 -10 740 -3 q 590 -17 629 -17 q 522 -1 539 -17 q 506 60 506 14 l 506 93 q 412 18 471 51 q 276 -15 353 -15 q 109 46 176 -15 q 42 217 42 107 m 379 108 q 437 124 404 108 q 493 163 469 140 l 493 385 q 327 344 382 385 q 272 243 272 304 q 301 144 272 179 q 379 108 329 108 m 417 878 q 234 933 293 878 q 175 1078 175 988 q 249 1225 175 1172 q 428 1278 324 1278 q 603 1222 543 1278 q 663 1076 663 1167 q 592 931 661 983 q 417 878 522 878 m 419 967 q 508 992 481 967 q 536 1072 536 1018 q 508 1155 536 1124 q 421 1186 481 1186 q 301 1081 301 1186 q 331 999 301 1032 q 419 967 361 967 z "},"ã":{"ha":790,"x_min":42,"x_max":771,"o":"m 81 997 q 160 1103 108 1057 q 288 1149 211 1149 q 361 1133 331 1149 q 429 1086 392 1117 q 480 1049 460 1061 q 525 1038 500 1038 q 572 1048 551 1038 q 606 1074 592 1058 q 631 1104 621 1090 l 697 1050 q 619 943 665 986 q 497 900 572 900 q 426 915 457 900 q 358 960 396 931 q 305 997 328 985 q 254 1010 282 1010 q 195 992 217 1010 q 147 944 174 975 l 81 997 m 42 217 q 160 408 42 343 q 493 476 279 474 l 493 504 q 482 587 493 557 q 441 631 471 617 q 354 646 411 646 q 227 628 283 646 q 117 586 171 611 l 69 683 q 143 726 92 701 q 265 771 194 751 q 410 790 335 790 q 582 762 519 790 q 672 672 644 733 q 699 506 699 610 l 699 89 l 771 89 l 771 4 q 685 -10 740 -3 q 590 -17 629 -17 q 522 -1 539 -17 q 506 60 506 14 l 506 93 q 412 18 471 51 q 276 -15 353 -15 q 109 46 176 -15 q 42 217 42 107 m 379 108 q 437 124 404 108 q 493 163 469 140 l 493 385 q 327 344 382 385 q 272 243 272 304 q 301 144 272 179 q 379 108 329 108 z "},"æ":{"ha":1206,"x_min":39,"x_max":1163,"o":"m 274 -15 q 106 44 174 -15 q 39 211 39 103 q 160 406 39 339 q 492 476 281 474 q 481 581 492 546 q 440 629 469 615 q 349 643 410 643 q 224 628 279 643 q 104 585 169 613 l 58 682 q 134 727 81 701 q 260 772 188 753 q 407 790 332 790 q 546 772 493 790 q 625 711 599 753 q 863 792 721 792 q 1084 718 1008 792 q 1163 510 1160 644 q 1153 368 1163 418 l 708 368 q 767 183 715 247 q 913 119 818 119 q 1024 138 965 119 q 1118 178 1083 156 l 1153 97 q 1031 21 1117 57 q 856 -15 946 -15 q 554 124 647 -15 q 439 24 515 64 q 274 -15 363 -15 m 946 458 q 947 517 947 474 q 923 650 947 603 q 840 697 899 697 q 745 647 779 697 q 707 458 711 596 l 946 458 m 379 108 q 460 133 421 108 q 519 192 499 158 q 489 389 489 272 q 329 346 381 388 q 278 242 278 304 q 305 140 278 172 q 379 108 332 108 z "},"ǽ":{"ha":1206,"x_min":39,"x_max":1163,"o":"m 274 -15 q 106 44 174 -15 q 39 211 39 103 q 160 406 39 339 q 492 476 281 474 q 481 581 492 546 q 440 629 469 615 q 349 643 410 643 q 224 628 279 643 q 104 585 169 613 l 58 682 q 134 727 81 701 q 260 772 188 753 q 407 790 332 790 q 546 772 493 790 q 625 711 599 753 q 863 792 721 792 q 1084 718 1008 792 q 1163 510 1160 644 q 1153 368 1163 418 l 708 368 q 767 183 715 247 q 913 119 818 119 q 1024 138 965 119 q 1118 178 1083 156 l 1153 97 q 1031 21 1117 57 q 856 -15 946 -15 q 554 124 647 -15 q 439 24 515 64 q 274 -15 363 -15 m 946 458 q 947 517 947 474 q 923 650 947 603 q 840 697 899 697 q 745 647 779 697 q 707 458 711 596 l 946 458 m 379 108 q 460 133 421 108 q 519 192 499 158 q 489 389 489 272 q 329 346 381 388 q 278 242 278 304 q 305 140 278 172 q 379 108 332 108 m 536 951 l 782 1246 l 910 1131 q 776 990 874 1071 q 618 886 679 910 l 536 951 z "},"b":{"ha":865,"x_min":0,"x_max":819,"o":"m 0 1107 l 269 1139 l 272 1139 l 315 1111 l 315 706 q 405 767 351 742 q 519 792 458 792 q 736 698 653 792 q 819 411 819 604 q 769 193 819 290 q 624 40 718 96 q 403 -15 529 -15 q 204 3 286 -15 q 101 38 122 22 l 101 1010 l 0 1028 l 0 1107 m 436 660 q 367 643 400 660 q 315 604 335 626 l 315 101 q 349 78 322 88 q 410 69 376 69 q 538 151 490 69 q 586 393 586 233 q 546 595 586 531 q 436 660 506 660 z "},"ḃ":{"ha":865,"x_min":0,"x_max":819,"o":"m 403 -15 q 204 3 286 -15 q 101 38 122 22 l 101 1010 l 0 1028 l 0 1107 l 269 1139 l 272 1139 l 315 1111 l 315 706 q 405 767 351 742 q 519 792 458 792 q 736 698 653 792 q 819 411 819 604 q 769 193 819 290 q 624 40 718 96 q 403 -15 529 -15 m 546 897 q 463 929 496 897 q 431 1008 431 961 q 465 1101 431 1064 q 561 1139 500 1139 q 650 1108 618 1139 q 682 1028 682 1076 q 647 934 682 971 q 547 897 613 897 l 546 897 m 410 69 q 538 151 490 69 q 586 393 586 233 q 546 595 586 531 q 436 660 506 660 q 367 643 400 660 q 315 604 335 626 l 315 101 q 349 78 322 88 q 410 69 376 69 z "},"c":{"ha":725,"x_min":43,"x_max":681,"o":"m 43 381 q 92 596 43 503 q 232 740 142 689 q 440 792 322 792 q 540 784 499 792 q 631 761 581 776 q 653 755 639 758 q 675 750 667 751 l 667 501 l 531 501 l 494 660 q 471 686 490 678 q 424 694 451 694 q 278 415 278 694 q 325 194 278 271 q 454 118 372 118 q 646 171 557 118 l 681 92 q 572 19 647 54 q 406 -15 496 -15 q 134 92 224 -15 q 43 381 44 200 z "},"ć":{"ha":725,"x_min":43,"x_max":683,"o":"m 43 381 q 92 596 43 503 q 232 740 142 689 q 440 792 322 792 q 540 784 499 792 q 631 761 581 776 q 653 755 639 758 q 675 750 667 751 l 667 501 l 531 501 l 494 660 q 471 686 490 678 q 424 694 451 694 q 278 415 278 694 q 325 194 278 271 q 454 118 372 118 q 646 171 557 118 l 681 92 q 572 19 647 54 q 406 -15 496 -15 q 134 92 224 -15 q 43 381 44 200 m 310 951 l 556 1246 l 683 1131 q 550 990 647 1071 q 392 886 453 910 l 310 951 z "},"č":{"ha":724,"x_min":42,"x_max":689,"o":"m 214 1219 l 415 1040 l 618 1221 l 689 1161 l 476 889 l 351 889 l 142 1161 l 214 1219 m 42 381 q 91 596 42 503 q 230 740 140 689 q 439 792 319 792 q 538 783 497 792 q 629 761 579 775 q 651 755 638 758 q 674 750 665 751 l 664 501 l 529 501 l 493 660 q 469 686 489 678 q 421 694 449 694 q 275 421 276 694 q 323 196 275 274 q 453 118 371 118 q 643 171 557 118 l 679 92 q 569 19 646 54 q 403 -15 493 -15 q 131 92 221 -15 q 42 381 42 200 z "},"ç":{"ha":725,"x_min":43,"x_max":681,"o":"m 681 92 q 591 28 651 60 q 457 -12 531 -3 q 512 -93 488 -46 q 536 -190 536 -140 q 485 -317 536 -281 q 332 -354 433 -354 q 281 -349 310 -354 q 233 -335 253 -343 l 233 -210 q 292 -218 263 -218 q 367 -200 344 -218 q 389 -122 389 -182 q 378 -66 389 -96 q 354 -12 368 -36 q 122 108 199 3 q 43 381 44 214 q 92 596 43 503 q 232 740 142 689 q 440 792 322 792 q 540 784 499 792 q 631 761 581 776 q 653 755 639 758 q 675 750 667 751 l 667 501 l 531 501 l 494 660 q 471 686 490 678 q 424 694 451 694 q 278 415 278 694 q 325 194 278 271 q 454 118 372 118 q 646 171 557 118 l 681 92 z "},"ĉ":{"ha":724,"x_min":42,"x_max":689,"o":"m 351 1215 l 478 1215 l 689 943 l 615 883 l 415 1060 l 213 882 l 140 943 l 351 1215 m 42 381 q 91 596 42 503 q 230 740 140 689 q 439 792 319 792 q 538 783 497 792 q 629 761 579 775 q 651 755 638 758 q 674 750 665 751 l 664 501 l 529 501 l 493 660 q 469 686 489 678 q 421 694 449 694 q 275 421 276 694 q 323 196 275 274 q 453 118 371 118 q 643 171 557 118 l 679 92 q 569 19 646 54 q 403 -15 493 -15 q 131 92 221 -15 q 42 381 42 200 z "},"ċ":{"ha":725,"x_min":43,"x_max":681,"o":"m 396 896 q 313 928 346 896 q 281 1008 281 960 q 316 1101 281 1064 q 411 1139 351 1139 q 500 1107 468 1139 q 532 1026 532 1075 q 497 933 532 969 q 397 896 463 896 l 396 896 m 43 381 q 92 596 43 503 q 232 740 142 689 q 440 792 322 792 q 540 784 499 792 q 631 761 581 776 q 653 755 639 758 q 675 750 667 751 l 667 501 l 531 501 l 494 660 q 471 686 490 678 q 424 694 451 694 q 278 415 278 694 q 325 194 278 271 q 454 118 372 118 q 646 171 557 118 l 681 92 q 572 19 647 54 q 406 -15 496 -15 q 134 92 224 -15 q 43 381 44 200 z "},"d":{"ha":872,"x_min":47,"x_max":838,"o":"m 349 -15 q 131 81 215 -15 q 47 368 47 176 q 95 580 47 483 q 237 734 143 676 q 463 792 331 792 q 550 782 507 792 l 550 1006 l 415 1026 l 415 1111 l 718 1139 l 724 1139 l 765 1107 l 765 92 l 838 92 l 838 4 q 664 -17 733 -17 q 595 -1 615 -17 q 575 60 575 14 l 575 96 q 478 15 540 46 q 349 -15 415 -15 m 428 107 q 500 124 468 107 q 550 164 532 140 l 550 668 q 514 689 540 681 q 456 697 488 697 q 327 622 375 697 q 279 378 279 547 q 320 174 279 242 q 428 107 361 107 z "},"ð":{"ha":835,"x_min":46,"x_max":793,"o":"m 414 -15 q 142 90 238 -15 q 46 371 46 194 q 97 603 46 508 q 228 744 147 697 q 403 792 310 792 q 529 768 479 792 q 346 1010 486 913 l 257 890 l 168 951 l 263 1068 q 185 1113 224 1093 q 119 1138 146 1132 l 157 1229 q 256 1200 219 1213 q 340 1165 293 1188 l 428 1278 l 513 1211 l 432 1111 q 693 837 593 1001 q 793 460 793 672 q 756 228 793 336 q 635 53 719 121 q 414 -15 550 -15 m 424 81 q 529 163 494 81 q 564 429 564 246 q 556 561 564 499 q 538 657 547 624 q 495 687 525 672 q 425 701 465 701 q 320 626 357 701 q 283 394 283 551 q 317 170 283 260 q 424 81 351 81 z "},"ď":{"ha":1033,"x_min":47,"x_max":1050,"o":"m 349 -15 q 131 81 215 -15 q 47 368 47 176 q 95 580 47 483 q 237 734 143 676 q 463 792 331 792 q 550 782 507 792 l 550 1006 l 415 1026 l 415 1111 l 718 1139 l 724 1139 l 765 1107 l 765 92 l 838 92 l 838 4 q 664 -17 733 -17 q 595 -1 615 -17 q 575 60 575 14 l 575 96 q 478 15 540 46 q 349 -15 415 -15 m 428 107 q 500 124 468 107 q 550 164 532 140 l 550 668 q 514 689 540 681 q 456 697 488 697 q 327 622 375 697 q 279 378 279 547 q 320 174 279 242 q 428 107 361 107 m 876 690 l 872 707 q 888 785 882 740 q 893 908 893 829 q 881 1024 893 976 q 856 1089 868 1072 l 863 1117 l 1011 1149 q 1038 1081 1026 1129 q 1050 969 1050 1033 q 1036 835 1050 899 q 1002 726 1022 771 q 967 665 982 682 l 876 690 z "},"đ":{"ha":872,"x_min":46,"x_max":863,"o":"m 549 1006 l 414 1026 l 414 1111 l 717 1139 l 722 1139 l 764 1107 l 764 947 l 863 947 l 863 860 l 764 860 l 764 92 l 838 92 l 838 4 q 663 -17 731 -17 q 594 -1 614 -17 q 574 60 574 14 l 574 96 q 477 15 539 46 q 347 -15 415 -15 q 130 81 214 -15 q 46 368 46 176 q 94 580 46 483 q 236 734 142 676 q 463 792 331 792 q 549 782 506 792 l 549 860 l 365 860 l 365 947 l 549 947 l 549 1006 m 428 107 q 499 124 468 107 q 549 164 531 140 l 549 668 q 513 688 540 679 q 454 697 486 697 q 326 624 374 697 q 278 385 278 550 q 319 176 278 244 q 428 107 360 107 z "},"ḋ":{"ha":872,"x_min":47,"x_max":838,"o":"m 349 -15 q 131 81 215 -15 q 47 368 47 176 q 95 580 47 483 q 237 734 143 676 q 463 792 331 792 q 550 782 507 792 l 550 1006 l 415 1026 l 415 1111 l 718 1139 l 724 1139 l 765 1107 l 765 92 l 838 92 l 838 4 q 664 -17 733 -17 q 595 -1 615 -17 q 575 60 575 14 l 575 96 q 478 15 540 46 q 349 -15 415 -15 m 428 107 q 500 124 468 107 q 550 164 532 140 l 550 668 q 514 689 540 681 q 456 697 488 697 q 327 622 375 697 q 279 378 279 547 q 320 174 279 242 q 428 107 361 107 m 169 854 q 87 886 119 854 q 54 965 54 918 q 89 1058 54 1021 q 185 1096 124 1096 q 274 1065 242 1096 q 306 985 306 1033 q 271 891 306 928 q 171 854 236 854 l 169 854 z "},"ǳ":{"ha":1651,"x_min":25,"x_max":1617,"o":"m 1126 -15 q 909 81 993 -15 q 825 368 825 176 q 873 580 825 483 q 1015 734 921 676 q 1242 792 1110 792 q 1328 782 1285 792 l 1328 1006 l 1194 1026 l 1194 1111 l 1496 1139 l 1503 1139 l 1544 1107 l 1544 92 l 1617 92 l 1617 4 q 1442 -17 1510 -17 q 1373 -1 1393 -17 q 1353 60 1353 14 l 1353 96 q 1257 16 1319 47 q 1126 -15 1194 -15 m 492 678 l 221 667 l 185 529 l 78 529 l 78 772 l 700 772 l 735 693 l 382 197 l 285 93 l 571 108 l 638 269 l 739 258 l 718 0 l 64 0 l 25 82 l 389 567 l 492 678 m 1207 107 q 1278 124 1247 107 q 1328 164 1310 140 l 1328 668 q 1292 688 1319 679 q 1235 697 1265 697 q 1106 624 1154 697 q 1057 385 1057 550 q 1098 176 1057 244 q 1207 107 1139 107 z "},"ǆ":{"ha":1653,"x_min":47,"x_max":1613,"o":"m 1094 1221 l 1296 1040 l 1499 1222 l 1571 1163 l 1358 890 l 1232 890 l 1022 1163 l 1094 1221 m 349 -15 q 131 81 215 -15 q 47 368 47 176 q 95 580 47 483 q 237 734 143 676 q 463 792 331 792 q 550 782 507 792 l 550 1006 l 415 1026 l 415 1111 l 718 1139 l 724 1139 l 765 1107 l 765 92 l 838 92 l 838 4 q 664 -17 733 -17 q 595 -1 615 -17 q 575 60 575 14 l 575 96 q 478 15 540 46 q 349 -15 415 -15 m 1365 678 l 1094 667 l 1058 529 l 951 529 l 951 772 l 1574 772 l 1608 693 l 1256 197 l 1158 93 l 1444 108 l 1511 269 l 1613 258 l 1592 0 l 938 0 l 899 82 l 1263 567 l 1365 678 m 428 107 q 500 124 468 107 q 550 164 532 140 l 550 668 q 514 689 540 681 q 456 697 488 697 q 327 622 375 697 q 279 378 279 547 q 320 174 279 242 q 428 107 361 107 z "},"e":{"ha":768,"x_min":46,"x_max":724,"o":"m 415 -15 q 136 92 226 -15 q 46 386 46 200 q 92 603 46 513 q 224 743 139 694 q 424 792 310 792 q 644 718 568 792 q 724 510 721 644 q 711 368 724 422 l 272 368 q 331 183 279 247 q 476 119 382 119 q 584 138 528 119 q 676 179 640 156 l 713 97 q 591 21 676 57 q 415 -15 506 -15 m 510 458 l 511 517 q 486 651 511 604 q 403 697 461 697 q 308 646 342 697 q 271 458 275 594 l 510 458 z "},"é":{"ha":768,"x_min":46,"x_max":724,"o":"m 415 -15 q 136 92 226 -15 q 46 386 46 200 q 92 603 46 513 q 224 743 139 694 q 424 792 310 792 q 644 718 568 792 q 724 510 721 644 q 711 368 724 422 l 272 368 q 331 183 279 247 q 476 119 382 119 q 584 138 528 119 q 676 179 640 156 l 713 97 q 591 21 676 57 q 415 -15 506 -15 m 510 458 l 511 517 q 486 651 511 604 q 403 697 461 697 q 308 646 342 697 q 271 458 275 594 l 510 458 m 301 951 l 547 1246 l 675 1131 q 542 990 639 1071 q 383 886 444 910 l 301 951 z "},"ĕ":{"ha":768,"x_min":46,"x_max":724,"o":"m 415 -15 q 136 92 226 -15 q 46 386 46 200 q 92 603 46 513 q 224 743 139 694 q 424 792 310 792 q 644 718 568 792 q 724 510 721 644 q 711 368 724 422 l 272 368 q 331 183 279 247 q 476 119 382 119 q 584 138 528 119 q 676 179 640 156 l 713 97 q 591 21 676 57 q 415 -15 506 -15 m 510 458 l 511 517 q 486 651 511 604 q 403 697 461 697 q 308 646 342 697 q 271 458 275 594 l 510 458 m 399 903 q 265 933 322 903 q 176 1017 207 964 q 144 1135 144 1069 q 147 1197 144 1183 l 249 1197 q 250 1168 249 1179 q 292 1084 257 1118 q 399 1050 328 1050 q 503 1083 469 1050 q 544 1167 538 1117 q 547 1197 547 1192 l 644 1197 q 647 1136 647 1169 q 616 1017 647 1071 q 528 933 585 964 q 399 903 471 903 z "},"ě":{"ha":768,"x_min":46,"x_max":724,"o":"m 415 -15 q 136 92 226 -15 q 46 386 46 200 q 92 603 46 513 q 224 743 139 694 q 424 792 310 792 q 644 718 568 792 q 724 510 721 644 q 711 368 724 422 l 272 368 q 331 183 279 247 q 476 119 382 119 q 584 138 528 119 q 676 179 640 156 l 713 97 q 591 21 676 57 q 415 -15 506 -15 m 510 458 l 511 517 q 486 651 511 604 q 403 697 461 697 q 308 646 342 697 q 271 458 275 594 l 510 458 m 194 1221 l 394 1040 l 597 1222 l 669 1163 l 457 890 l 332 890 l 122 1163 l 194 1221 z "},"ê":{"ha":768,"x_min":46,"x_max":724,"o":"m 415 -15 q 136 92 226 -15 q 46 386 46 200 q 92 603 46 513 q 224 743 139 694 q 424 792 310 792 q 644 718 568 792 q 724 510 721 644 q 711 368 724 422 l 272 368 q 331 183 279 247 q 476 119 382 119 q 584 138 528 119 q 676 179 640 156 l 713 97 q 591 21 676 57 q 415 -15 506 -15 m 510 458 l 511 517 q 486 651 511 604 q 403 697 461 697 q 308 646 342 697 q 271 458 275 594 l 510 458 m 333 1215 l 458 1215 l 671 944 l 596 885 l 397 1061 l 193 883 l 122 943 l 333 1215 z "},"ế":{"ha":768,"x_min":46,"x_max":890,"o":"m 572 1078 l 781 1329 l 890 1231 q 776 1112 860 1181 q 642 1022 693 1043 l 572 1078 m 342 1150 l 449 1150 l 631 919 l 567 868 l 397 1018 l 222 867 l 163 918 l 342 1150 m 415 -15 q 136 92 226 -15 q 46 386 46 200 q 92 603 46 513 q 224 743 139 694 q 424 792 310 792 q 644 718 568 792 q 724 510 721 644 q 711 368 724 422 l 272 368 q 331 183 279 247 q 476 119 382 119 q 584 138 528 119 q 676 179 640 156 l 713 97 q 591 21 676 57 q 415 -15 506 -15 m 510 458 l 511 517 q 486 651 511 604 q 403 697 461 697 q 308 646 342 697 q 271 458 275 594 l 510 458 z "},"ệ":{"ha":768,"x_min":46,"x_max":724,"o":"m 415 -15 q 136 92 226 -15 q 46 386 46 200 q 92 603 46 513 q 224 743 139 694 q 424 792 310 792 q 644 718 568 792 q 724 510 721 644 q 711 368 724 422 l 272 368 q 331 183 279 247 q 476 119 382 119 q 584 138 528 119 q 676 179 640 156 l 713 97 q 591 21 676 57 q 415 -15 506 -15 m 510 458 l 511 517 q 486 651 511 604 q 403 697 461 697 q 308 646 342 697 q 271 458 275 594 l 510 458 m 378 -271 q 311 -245 338 -271 q 285 -182 285 -219 q 313 -108 285 -137 q 389 -78 342 -78 q 460 -103 435 -78 q 486 -167 486 -128 q 458 -241 486 -211 q 379 -271 431 -271 l 378 -271 m 322 1217 l 447 1217 l 660 946 l 585 886 l 386 1063 l 182 885 l 111 944 l 322 1217 z "},"ề":{"ha":768,"x_min":46,"x_max":724,"o":"m 581 1143 q 447 1231 531 1161 q 333 1351 363 1300 l 442 1450 l 651 1199 l 582 1143 l 581 1143 m 342 1150 l 449 1150 l 631 919 l 567 868 l 397 1018 l 222 867 l 163 918 l 342 1150 m 415 -15 q 136 92 226 -15 q 46 386 46 200 q 92 603 46 513 q 224 743 139 694 q 424 792 310 792 q 644 718 568 792 q 724 510 721 644 q 711 368 724 422 l 272 368 q 331 183 279 247 q 476 119 382 119 q 584 138 528 119 q 676 179 640 156 l 713 97 q 591 21 676 57 q 415 -15 506 -15 m 510 458 l 511 517 q 486 651 511 604 q 403 697 461 697 q 308 646 342 697 q 271 458 275 594 l 510 458 z "},"ể":{"ha":768,"x_min":46,"x_max":763,"o":"m 610 1061 q 592 1089 603 1069 q 581 1115 581 1108 q 588 1138 581 1129 q 611 1158 596 1147 q 640 1193 638 1176 l 640 1199 q 586 1246 640 1242 q 551 1243 556 1246 l 546 1347 q 565 1352 549 1350 q 593 1354 581 1354 q 710 1319 657 1354 q 763 1221 763 1285 q 747 1175 763 1193 q 713 1142 732 1157 q 683 1121 693 1128 q 669 1089 669 1107 q 672 1068 669 1076 l 610 1061 m 342 1151 l 449 1151 l 631 921 l 567 869 l 397 1019 l 222 868 l 163 919 l 342 1151 m 415 -15 q 136 92 226 -15 q 46 386 46 200 q 92 603 46 513 q 224 743 139 694 q 424 792 310 792 q 644 718 568 792 q 724 510 721 644 q 711 368 724 422 l 272 368 q 331 183 279 247 q 476 119 382 119 q 584 138 528 119 q 676 179 640 156 l 713 97 q 591 21 676 57 q 415 -15 506 -15 m 510 458 l 511 517 q 486 651 511 604 q 403 697 461 697 q 308 646 342 697 q 271 458 275 594 l 510 458 z "},"ễ":{"ha":768,"x_min":46,"x_max":724,"o":"m 156 1257 q 223 1347 179 1308 q 333 1386 267 1386 q 397 1372 371 1386 q 453 1332 422 1358 q 497 1301 479 1311 q 535 1292 514 1292 q 586 1308 567 1292 q 624 1349 606 1324 l 682 1301 q 511 1174 621 1174 q 451 1187 476 1174 q 393 1225 425 1200 q 347 1258 365 1247 q 304 1268 328 1268 q 254 1254 272 1268 q 213 1213 236 1240 l 156 1257 m 342 1150 l 449 1150 l 631 919 l 567 868 l 397 1018 l 222 867 l 163 918 l 342 1150 m 415 -15 q 136 92 226 -15 q 46 386 46 200 q 92 603 46 513 q 224 743 139 694 q 424 792 310 792 q 644 718 568 792 q 724 510 721 644 q 711 368 724 422 l 272 368 q 331 183 279 247 q 476 119 382 119 q 584 138 528 119 q 676 179 640 156 l 713 97 q 591 21 676 57 q 415 -15 506 -15 m 510 458 l 511 517 q 486 651 511 604 q 403 697 461 697 q 308 646 342 697 q 271 458 275 594 l 510 458 z "},"ë":{"ha":768,"x_min":46,"x_max":724,"o":"m 415 -15 q 136 92 226 -15 q 46 386 46 200 q 92 603 46 513 q 224 743 139 694 q 424 792 310 792 q 644 718 568 792 q 724 510 721 644 q 711 368 724 422 l 272 368 q 331 183 279 247 q 476 119 382 119 q 584 138 528 119 q 676 179 640 156 l 713 97 q 591 21 676 57 q 415 -15 506 -15 m 510 458 l 511 517 q 486 651 511 604 q 403 697 461 697 q 308 646 342 697 q 271 458 275 594 l 510 458 m 210 908 q 140 940 168 908 q 113 1015 113 972 q 142 1107 113 1072 q 229 1142 171 1142 q 310 1111 282 1142 q 338 1035 338 1081 q 306 943 338 978 q 210 908 274 908 m 551 908 q 482 942 510 908 q 454 1015 454 975 q 484 1106 454 1071 q 571 1142 514 1142 q 651 1111 624 1142 q 679 1035 679 1081 q 647 943 679 978 q 551 908 615 908 z "},"ė":{"ha":768,"x_min":46,"x_max":724,"o":"m 415 -15 q 136 92 226 -15 q 46 386 46 200 q 92 603 46 513 q 224 743 139 694 q 424 792 310 792 q 644 718 568 792 q 724 510 721 644 q 711 368 724 422 l 272 368 q 331 183 279 247 q 476 119 382 119 q 584 138 528 119 q 676 179 640 156 l 713 97 q 591 21 676 57 q 415 -15 506 -15 m 510 458 l 511 517 q 486 651 511 604 q 403 697 461 697 q 308 646 342 697 q 271 458 275 594 l 510 458 m 385 897 q 302 929 335 897 q 269 1008 269 961 q 304 1101 269 1064 q 400 1139 339 1139 q 489 1108 457 1139 q 521 1028 521 1076 q 486 934 521 971 q 386 897 451 897 l 385 897 z "},"ẹ":{"ha":768,"x_min":46,"x_max":724,"o":"m 415 -15 q 136 92 226 -15 q 46 386 46 200 q 92 603 46 513 q 224 743 139 694 q 424 792 310 792 q 644 718 568 792 q 724 510 721 644 q 711 368 724 422 l 272 368 q 331 183 279 247 q 476 119 382 119 q 584 138 528 119 q 676 179 640 156 l 713 97 q 591 21 676 57 q 415 -15 506 -15 m 510 458 l 511 517 q 486 651 511 604 q 403 697 461 697 q 308 646 342 697 q 271 458 275 594 l 510 458 m 378 -271 q 311 -245 338 -271 q 285 -182 285 -219 q 313 -108 285 -137 q 389 -78 342 -78 q 460 -103 435 -78 q 486 -167 486 -128 q 458 -241 486 -211 q 379 -271 431 -271 l 378 -271 z "},"è":{"ha":768,"x_min":46,"x_max":724,"o":"m 415 -15 q 136 92 226 -15 q 46 386 46 200 q 92 603 46 513 q 224 743 139 694 q 424 792 310 792 q 644 718 568 792 q 724 510 721 644 q 711 368 724 422 l 272 368 q 331 183 279 247 q 476 119 382 119 q 584 138 528 119 q 676 179 640 156 l 713 97 q 591 21 676 57 q 415 -15 506 -15 m 510 458 l 511 517 q 486 651 511 604 q 403 697 461 697 q 308 646 342 697 q 271 458 275 594 l 510 458 m 419 886 q 322 944 382 900 q 206 1040 261 988 q 129 1131 151 1092 l 257 1246 l 503 951 l 421 886 l 419 886 z "},"ẻ":{"ha":768,"x_min":46,"x_max":724,"o":"m 415 -15 q 136 92 226 -15 q 46 386 46 200 q 92 603 46 513 q 224 743 139 694 q 424 792 310 792 q 644 718 568 792 q 724 510 721 644 q 711 368 724 422 l 272 368 q 331 183 279 247 q 476 119 382 119 q 584 138 528 119 q 676 179 640 156 l 713 97 q 591 21 676 57 q 415 -15 506 -15 m 510 458 l 511 517 q 486 651 511 604 q 403 697 461 697 q 308 646 342 697 q 271 458 275 594 l 510 458 m 363 847 q 340 879 353 857 q 328 911 328 901 q 336 938 328 928 q 363 961 344 947 q 388 982 379 974 q 399 1003 396 990 l 399 1008 q 335 1064 399 1060 q 293 1061 299 1064 l 288 1183 q 309 1189 290 1186 q 342 1192 328 1192 q 435 1174 389 1192 q 511 1120 481 1156 q 542 1035 542 1085 q 524 981 542 1003 q 472 935 506 960 l 449 917 q 431 879 431 901 q 435 856 431 871 l 363 847 z "},"ē":{"ha":768,"x_min":46,"x_max":724,"o":"m 415 -15 q 136 92 226 -15 q 46 386 46 200 q 92 603 46 513 q 224 743 139 694 q 424 792 310 792 q 644 718 568 792 q 724 510 721 644 q 711 368 724 422 l 272 368 q 331 183 279 247 q 476 119 382 119 q 584 138 528 119 q 676 179 640 156 l 713 97 q 591 21 676 57 q 415 -15 506 -15 m 510 458 l 511 517 q 486 651 511 604 q 403 697 461 697 q 308 646 342 697 q 271 458 275 594 l 510 458 m 608 1092 l 608 963 l 182 963 l 182 1092 l 608 1092 z "},"ę":{"ha":768,"x_min":46,"x_max":724,"o":"m 476 119 q 584 138 528 119 q 676 179 640 156 l 713 97 q 642 45 690 72 q 536 1 594 18 q 444 -65 478 -25 q 411 -142 411 -106 q 434 -197 411 -178 q 500 -217 457 -217 q 540 -211 524 -217 q 573 -199 557 -206 q 597 -187 589 -192 l 601 -279 q 520 -319 572 -303 q 415 -335 468 -335 q 288 -300 342 -335 q 235 -197 235 -265 q 272 -100 235 -150 q 375 -14 310 -50 q 126 104 207 -1 q 46 386 46 210 q 92 603 46 513 q 224 743 139 694 q 424 792 310 792 q 644 718 568 792 q 724 510 721 644 q 711 368 724 422 l 272 368 q 331 183 279 247 q 476 119 382 119 m 403 697 q 308 646 342 697 q 271 458 275 594 l 510 458 l 511 517 q 486 651 511 604 q 403 697 461 697 z "},"ẽ":{"ha":768,"x_min":46,"x_max":724,"o":"m 415 -15 q 136 92 226 -15 q 46 386 46 200 q 92 603 46 513 q 224 743 139 694 q 424 792 310 792 q 644 718 568 792 q 724 510 721 644 q 711 368 724 422 l 272 368 q 331 183 279 247 q 476 119 382 119 q 584 138 528 119 q 676 179 640 156 l 713 97 q 591 21 676 57 q 415 -15 506 -15 m 510 458 l 511 517 q 486 651 511 604 q 403 697 461 697 q 308 646 342 697 q 271 458 275 594 l 510 458 m 86 997 q 165 1103 114 1057 q 294 1149 217 1149 q 368 1133 338 1149 q 436 1086 399 1117 q 487 1049 467 1061 q 532 1038 507 1038 q 591 1056 569 1038 q 636 1104 613 1074 l 704 1050 q 504 900 631 900 q 433 915 463 900 q 365 961 404 931 q 311 998 333 986 q 261 1010 289 1010 q 201 992 224 1010 q 153 944 178 975 l 86 997 z "},"f":{"ha":571,"x_min":42,"x_max":604,"o":"m 151 658 l 42 658 l 42 742 l 151 769 l 151 829 q 201 997 151 921 q 333 1117 250 1074 q 513 1161 417 1161 q 604 1147 567 1161 l 604 951 q 547 983 590 968 q 460 999 504 999 q 390 974 411 999 q 369 893 369 950 l 369 771 l 540 771 l 540 658 l 369 658 l 369 101 l 513 89 l 513 0 l 44 0 l 44 89 l 151 103 l 151 658 z "},"ḟ":{"ha":572,"x_min":42,"x_max":604,"o":"m 182 1117 q 99 1149 132 1117 q 67 1229 67 1181 q 102 1322 67 1285 q 197 1360 138 1360 q 286 1328 254 1360 q 318 1249 318 1296 q 283 1153 318 1190 q 183 1117 249 1117 l 182 1117 m 151 658 l 42 658 l 42 742 l 151 769 l 151 829 q 201 997 151 921 q 333 1117 250 1074 q 513 1161 417 1161 q 604 1147 567 1161 l 604 951 q 547 983 590 968 q 460 999 504 999 q 390 974 411 999 q 369 893 369 950 l 369 771 l 540 771 l 540 658 l 369 658 l 369 101 l 513 89 l 513 0 l 44 0 l 44 89 l 151 103 l 151 658 z "},"g":{"ha":874,"x_min":42,"x_max":864,"o":"m 401 -375 q 126 -315 211 -375 q 42 -156 42 -256 q 79 -50 42 -100 q 172 25 117 0 q 108 144 108 61 q 139 233 108 190 q 219 297 169 275 q 102 387 139 326 q 65 531 65 447 q 113 669 65 610 q 240 760 160 729 q 415 792 319 792 q 665 728 585 792 q 728 774 686 753 q 815 794 769 794 l 864 794 l 864 629 l 725 629 q 740 547 740 592 q 651 344 742 419 q 396 269 560 269 q 285 278 332 269 q 269 242 275 261 q 264 211 264 224 q 296 152 264 168 q 413 136 328 136 l 557 136 q 849 -74 849 136 q 785 -233 849 -164 q 619 -338 722 -301 q 401 -375 515 -375 m 410 361 q 525 532 525 361 q 497 663 525 621 q 408 704 469 704 q 317 662 349 704 q 286 538 286 619 q 410 361 286 361 m 425 -272 q 561 -232 504 -272 q 618 -118 618 -192 q 588 -34 618 -58 q 483 -10 558 -10 l 339 -10 q 285 -6 310 -10 q 257 -115 257 -54 q 297 -232 257 -192 q 425 -272 336 -272 z "},"ğ":{"ha":874,"x_min":42,"x_max":864,"o":"m 401 -375 q 126 -315 211 -375 q 42 -156 42 -256 q 79 -50 42 -100 q 172 25 117 0 q 108 144 108 61 q 139 233 108 190 q 219 297 169 275 q 102 387 139 326 q 65 531 65 447 q 113 669 65 610 q 240 760 160 729 q 415 792 319 792 q 665 728 585 792 q 728 774 686 753 q 815 794 769 794 l 864 794 l 864 629 l 725 629 q 740 547 740 592 q 651 344 742 419 q 396 269 560 269 q 285 278 332 269 q 269 242 275 261 q 264 211 264 224 q 296 152 264 168 q 413 136 328 136 l 557 136 q 849 -74 849 136 q 785 -233 849 -164 q 619 -338 722 -301 q 401 -375 515 -375 m 410 361 q 525 532 525 361 q 497 663 525 621 q 408 704 469 704 q 317 662 349 704 q 286 538 286 619 q 410 361 286 361 m 425 -272 q 561 -232 504 -272 q 618 -118 618 -192 q 588 -34 618 -58 q 483 -10 558 -10 l 339 -10 q 285 -6 310 -10 q 257 -115 257 -54 q 297 -232 257 -192 q 425 -272 336 -272 m 417 903 q 283 933 340 903 q 194 1017 225 964 q 163 1135 163 1069 q 165 1197 163 1183 l 267 1197 q 268 1168 267 1179 q 310 1084 275 1118 q 417 1050 346 1050 q 522 1083 488 1050 q 563 1167 556 1117 q 565 1197 565 1192 l 663 1197 q 665 1136 665 1169 q 634 1017 665 1071 q 546 933 603 964 q 417 903 489 903 z "},"ĝ":{"ha":874,"x_min":42,"x_max":864,"o":"m 401 -375 q 126 -315 211 -375 q 42 -156 42 -256 q 79 -50 42 -100 q 172 25 117 0 q 108 144 108 61 q 139 233 108 190 q 219 297 169 275 q 102 387 139 326 q 65 531 65 447 q 113 669 65 610 q 240 760 160 729 q 415 792 319 792 q 665 728 585 792 q 728 774 686 753 q 815 794 769 794 l 864 794 l 864 629 l 725 629 q 740 547 740 592 q 651 344 742 419 q 396 269 560 269 q 285 278 332 269 q 269 242 275 261 q 264 211 264 224 q 296 152 264 168 q 413 136 328 136 l 557 136 q 849 -74 849 136 q 785 -233 849 -164 q 619 -338 722 -301 q 401 -375 515 -375 m 410 361 q 525 532 525 361 q 497 663 525 621 q 408 704 469 704 q 317 662 349 704 q 286 538 286 619 q 410 361 286 361 m 425 -272 q 561 -232 504 -272 q 618 -118 618 -192 q 588 -34 618 -58 q 483 -10 558 -10 l 339 -10 q 285 -6 310 -10 q 257 -115 257 -54 q 297 -232 257 -192 q 425 -272 336 -272 m 351 1215 l 476 1215 l 689 944 l 614 885 l 415 1061 l 211 883 l 140 943 l 351 1215 z "},"ģ":{"ha":874,"x_min":42,"x_max":864,"o":"m 401 -375 q 126 -315 211 -375 q 42 -156 42 -256 q 79 -50 42 -100 q 172 25 117 0 q 108 144 108 61 q 139 233 108 190 q 219 297 169 275 q 102 387 139 326 q 65 531 65 447 q 113 669 65 610 q 240 760 160 729 q 415 792 319 792 q 665 728 585 792 q 728 774 686 753 q 815 794 769 794 l 864 794 l 864 629 l 725 629 q 740 547 740 592 q 651 344 742 419 q 396 269 560 269 q 285 278 332 269 q 269 242 275 261 q 264 211 264 224 q 296 152 264 168 q 413 136 328 136 l 557 136 q 849 -74 849 136 q 785 -233 849 -164 q 619 -338 722 -301 q 401 -375 515 -375 m 410 361 q 525 532 525 361 q 497 663 525 621 q 408 704 469 704 q 317 662 349 704 q 286 538 286 619 q 410 361 286 361 m 425 -272 q 561 -232 504 -272 q 618 -118 618 -192 q 588 -34 618 -58 q 483 -10 558 -10 l 339 -10 q 285 -6 310 -10 q 257 -115 257 -54 q 297 -232 257 -192 q 425 -272 336 -272 m 414 888 q 336 917 365 888 q 307 1000 307 946 q 328 1092 307 1047 q 378 1165 350 1136 q 424 1201 406 1194 l 426 1201 l 494 1181 l 497 1169 q 472 1137 482 1164 q 463 1082 463 1110 q 470 1053 463 1064 q 489 1033 478 1042 q 521 968 521 1010 q 489 907 521 926 q 418 888 457 888 l 414 888 z "},"ġ":{"ha":874,"x_min":42,"x_max":864,"o":"m 401 -375 q 126 -315 211 -375 q 42 -156 42 -256 q 79 -50 42 -100 q 172 25 117 0 q 108 144 108 61 q 139 233 108 190 q 219 297 169 275 q 102 387 139 326 q 65 531 65 447 q 113 669 65 610 q 240 760 160 729 q 415 792 319 792 q 665 728 585 792 q 728 774 686 753 q 815 794 769 794 l 864 794 l 864 629 l 725 629 q 740 547 740 592 q 651 344 742 419 q 396 269 560 269 q 285 278 332 269 q 269 242 275 261 q 264 211 264 224 q 296 152 264 168 q 413 136 328 136 l 557 136 q 849 -74 849 136 q 785 -233 849 -164 q 619 -338 722 -301 q 401 -375 515 -375 m 410 361 q 525 532 525 361 q 497 663 525 621 q 408 704 469 704 q 317 662 349 704 q 286 538 286 619 q 410 361 286 361 m 425 -272 q 561 -232 504 -272 q 618 -118 618 -192 q 588 -34 618 -58 q 483 -10 558 -10 l 339 -10 q 285 -6 310 -10 q 257 -115 257 -54 q 297 -232 257 -192 q 425 -272 336 -272 m 403 897 q 320 929 353 897 q 288 1008 288 961 q 322 1101 288 1064 q 418 1139 357 1139 q 507 1108 475 1139 q 539 1028 539 1076 q 504 934 539 971 q 404 897 469 897 l 403 897 z "},"h":{"ha":938,"x_min":22,"x_max":910,"o":"m 124 1006 l 22 1025 l 22 1107 l 296 1139 l 300 1139 l 340 1110 l 340 807 l 331 685 q 444 756 374 725 q 600 788 515 788 q 736 756 688 788 q 804 658 785 724 q 824 482 824 592 l 824 103 l 910 89 l 910 0 l 529 0 l 529 89 l 606 103 l 606 482 q 583 620 606 581 q 496 660 561 660 q 415 642 456 660 q 346 599 375 624 l 346 103 l 425 89 l 425 0 l 49 0 l 49 89 l 124 101 l 124 1006 z "},"ħ":{"ha":944,"x_min":13,"x_max":911,"o":"m 124 1006 l 24 1025 l 24 1107 l 299 1139 l 303 1139 l 342 1110 l 342 939 l 515 939 l 515 849 l 342 849 l 342 807 l 331 685 q 447 756 375 725 q 601 788 518 788 q 738 756 689 788 q 806 658 786 724 q 825 482 825 592 l 825 103 l 911 89 l 911 0 l 532 0 l 532 89 l 606 103 l 606 482 q 597 586 606 549 q 565 642 589 624 q 497 660 542 660 q 415 642 456 660 q 347 599 375 624 l 347 103 l 426 89 l 426 0 l 51 0 l 51 89 l 124 101 l 124 849 l 13 849 l 13 939 l 124 939 l 124 1006 z "},"ĥ":{"ha":938,"x_min":-58,"x_max":910,"o":"m 124 1006 l 22 1025 l 22 1107 l 296 1139 l 300 1139 l 340 1110 l 340 807 l 331 685 q 444 756 374 725 q 600 788 515 788 q 736 756 688 788 q 804 658 785 724 q 824 482 824 592 l 824 103 l 910 89 l 910 0 l 529 0 l 529 89 l 606 103 l 606 482 q 583 620 606 581 q 496 660 561 660 q 415 642 456 660 q 346 599 375 624 l 346 103 l 425 89 l 425 0 l 49 0 l 49 89 l 124 101 l 124 1006 m 150 1438 l 279 1438 l 485 1236 l 411 1175 l 214 1308 l 15 1175 l -58 1235 l 150 1438 z "},"i":{"ha":490,"x_min":51,"x_max":454,"o":"m 228 897 q 145 929 178 897 q 113 1008 113 961 q 147 1101 113 1064 q 243 1139 182 1139 q 332 1108 300 1139 q 364 1028 364 1076 q 329 934 364 971 q 229 897 294 897 l 228 897 m 146 103 l 146 629 l 51 656 l 51 758 l 324 790 l 326 790 l 367 761 l 367 101 l 454 89 l 454 0 l 57 0 l 57 89 l 146 103 z "},"ı":{"ha":490,"x_min":51,"x_max":454,"o":"m 146 103 l 146 629 l 51 656 l 51 758 l 324 790 l 326 790 l 367 761 l 367 101 l 454 89 l 454 0 l 57 0 l 57 89 l 146 103 z "},"í":{"ha":490,"x_min":51,"x_max":525,"o":"m 146 103 l 146 629 l 51 656 l 51 758 l 324 790 l 326 790 l 367 761 l 367 101 l 454 89 l 454 0 l 57 0 l 57 89 l 146 103 m 151 951 l 397 1246 l 525 1131 q 392 990 489 1071 q 233 886 294 910 l 151 951 z "},"ĭ":{"ha":490,"x_min":-10,"x_max":492,"o":"m 243 903 q 110 933 167 903 q 22 1017 53 964 q -10 1135 -10 1069 q -7 1197 -10 1183 l 93 1197 q 94 1168 93 1179 q 137 1084 101 1118 q 243 1050 172 1050 q 348 1083 314 1050 q 389 1167 382 1117 q 392 1197 392 1192 l 490 1197 l 492 1136 q 460 1017 492 1071 q 372 933 429 964 q 243 903 315 903 m 146 103 l 146 629 l 51 656 l 51 758 l 324 790 l 326 790 l 367 761 l 367 101 l 454 89 l 454 0 l 57 0 l 57 89 l 146 103 z "},"î":{"ha":490,"x_min":-32,"x_max":517,"o":"m 179 1215 l 306 1215 l 517 944 l 443 885 l 243 1061 l 40 883 l -32 943 l 179 1215 m 146 103 l 146 629 l 51 656 l 51 758 l 324 790 l 326 790 l 367 761 l 367 101 l 454 89 l 454 0 l 57 0 l 57 89 l 146 103 z "},"ï":{"ha":490,"x_min":-37,"x_max":529,"o":"m 146 103 l 146 629 l 51 656 l 51 758 l 324 790 l 326 790 l 367 761 l 367 101 l 454 89 l 454 0 l 57 0 l 57 89 l 146 103 m 60 908 q -10 940 18 908 q -37 1015 -37 972 q -8 1107 -37 1072 q 79 1142 21 1142 q 160 1111 132 1142 q 188 1035 188 1081 q 156 943 188 978 q 60 908 124 908 m 401 908 q 332 942 360 908 q 304 1015 304 975 q 334 1106 304 1071 q 421 1142 364 1142 q 501 1111 474 1142 q 529 1035 529 1081 q 497 943 529 978 q 401 908 465 908 z "},"ị":{"ha":490,"x_min":51,"x_max":454,"o":"m 228 897 q 145 929 178 897 q 113 1008 113 961 q 147 1101 113 1064 q 243 1139 182 1139 q 332 1108 300 1139 q 364 1028 364 1076 q 329 934 364 971 q 229 897 294 897 l 228 897 m 146 103 l 146 629 l 51 656 l 51 758 l 324 790 l 326 790 l 367 761 l 367 101 l 454 89 l 454 0 l 57 0 l 57 89 l 146 103 m 239 -271 q 172 -245 199 -271 q 146 -182 146 -219 q 174 -108 146 -137 q 250 -78 203 -78 q 322 -103 296 -78 q 347 -167 347 -128 q 319 -241 347 -211 q 240 -271 292 -271 l 239 -271 z "},"ì":{"ha":490,"x_min":-21,"x_max":454,"o":"m 269 886 q 172 944 232 900 q 56 1040 111 988 q -21 1131 1 1092 l 107 1246 l 353 951 l 271 886 l 269 886 m 146 103 l 146 629 l 51 656 l 51 758 l 324 790 l 326 790 l 367 761 l 367 101 l 454 89 l 454 0 l 57 0 l 57 89 l 146 103 z "},"ỉ":{"ha":490,"x_min":51,"x_max":454,"o":"m 146 103 l 146 629 l 51 656 l 51 758 l 324 790 l 326 790 l 367 761 l 367 101 l 454 89 l 454 0 l 57 0 l 57 89 l 146 103 m 213 847 q 190 879 203 857 q 178 911 178 901 q 186 938 178 928 q 213 961 194 947 q 238 982 229 974 q 249 1003 246 990 l 249 1008 q 185 1064 249 1060 q 143 1061 149 1064 l 138 1183 q 159 1189 140 1186 q 192 1192 178 1192 q 285 1174 239 1192 q 361 1120 331 1156 q 392 1035 392 1085 q 374 981 392 1003 q 322 935 356 960 l 299 917 q 281 879 281 901 q 285 856 281 871 l 213 847 z "},"ĳ":{"ha":957,"x_min":51,"x_max":853,"o":"m 228 897 q 145 929 178 897 q 113 1008 113 961 q 147 1101 113 1064 q 243 1139 182 1139 q 332 1108 300 1139 q 364 1028 364 1076 q 329 934 364 971 q 229 897 294 897 l 228 897 m 146 103 l 146 629 l 51 656 l 51 758 l 324 790 l 326 790 l 367 761 l 367 101 l 454 89 l 454 0 l 57 0 l 57 89 l 146 103 m 704 897 q 622 929 654 897 q 589 1008 589 961 q 624 1101 589 1064 q 719 1139 658 1139 q 808 1108 776 1139 q 840 1028 840 1076 q 806 934 840 971 q 706 897 771 897 l 704 897 m 540 758 l 810 790 l 813 790 l 853 761 l 853 13 q 808 -174 853 -96 q 697 -294 763 -253 q 568 -337 631 -335 q 482 -332 499 -337 l 472 -246 q 502 -244 482 -247 q 542 -231 522 -240 q 614 -136 592 -207 q 636 57 636 -65 l 636 626 l 540 654 l 540 758 z "},"ī":{"ha":490,"x_min":29,"x_max":456,"o":"m 456 1092 l 456 963 l 29 963 l 29 1092 l 456 1092 m 146 103 l 146 629 l 51 656 l 51 758 l 324 790 l 326 790 l 367 761 l 367 101 l 454 89 l 454 0 l 57 0 l 57 89 l 146 103 z "},"į":{"ha":490,"x_min":51,"x_max":454,"o":"m 235 897 q 152 929 185 897 q 119 1008 119 961 q 154 1101 119 1064 q 250 1139 189 1139 q 339 1108 307 1139 q 371 1028 371 1076 q 336 934 371 971 q 236 897 301 897 l 235 897 m 354 0 q 266 -67 299 -26 q 233 -142 233 -107 q 256 -197 233 -178 q 322 -217 279 -217 q 363 -211 346 -217 q 395 -199 379 -206 q 419 -187 411 -192 l 424 -279 q 342 -319 394 -303 q 238 -335 290 -335 q 110 -300 164 -335 q 57 -197 57 -265 q 102 -90 57 -144 q 225 0 147 -36 l 57 0 l 57 89 l 146 103 l 146 629 l 51 656 l 51 758 l 324 790 l 326 790 l 367 761 l 367 101 l 454 89 l 454 0 l 354 0 z "},"ĩ":{"ha":490,"x_min":-64,"x_max":553,"o":"m -64 997 q 15 1103 -36 1057 q 143 1149 67 1149 q 217 1133 186 1149 q 285 1086 247 1117 q 335 1049 315 1061 q 381 1038 356 1038 q 440 1056 418 1038 q 485 1104 461 1074 l 553 1050 q 353 900 479 900 q 282 915 311 900 q 214 961 253 931 q 160 998 182 986 q 110 1010 138 1010 q 49 992 72 1010 q 1 944 26 975 l -64 997 m 146 103 l 146 629 l 51 656 l 51 758 l 324 790 l 326 790 l 367 761 l 367 101 l 454 89 l 454 0 l 57 0 l 57 89 l 146 103 z "},"j":{"ha":467,"x_min":-18,"x_max":363,"o":"m 214 897 q 131 929 164 897 q 99 1008 99 961 q 133 1101 99 1064 q 229 1139 168 1139 q 318 1108 286 1139 q 350 1028 350 1076 q 315 934 350 971 q 215 897 281 897 l 214 897 m 50 758 l 319 790 l 322 790 l 363 761 l 363 13 q 317 -174 363 -96 q 206 -294 272 -253 q 78 -337 140 -335 q -8 -332 8 -337 l -18 -246 q 12 -244 -8 -247 q 51 -231 32 -240 q 124 -136 101 -207 q 146 57 146 -65 l 146 626 l 50 654 l 50 758 z "},"ȷ":{"ha":467,"x_min":-18,"x_max":363,"o":"m 50 758 l 319 790 l 322 790 l 363 761 l 363 13 q 317 -174 363 -96 q 206 -294 272 -253 q 78 -337 140 -335 q -8 -332 8 -337 l -18 -246 q 12 -244 -8 -247 q 51 -231 32 -240 q 124 -136 101 -207 q 146 57 146 -65 l 146 626 l 50 654 l 50 758 z "},"ĵ":{"ha":467,"x_min":-46,"x_max":501,"o":"m 165 1215 l 290 1215 l 501 944 l 428 885 l 228 1061 l 25 883 l -46 943 l 165 1215 m 50 758 l 319 790 l 322 790 l 363 761 l 363 13 q 317 -174 363 -96 q 206 -294 272 -253 q 78 -337 140 -335 q -8 -332 8 -337 l -18 -246 q 12 -244 -8 -247 q 51 -231 32 -240 q 124 -136 101 -207 q 146 57 146 -65 l 146 626 l 50 654 l 50 758 z "},"k":{"ha":892,"x_min":26,"x_max":913,"o":"m 122 103 l 122 1006 l 26 1025 l 26 1107 l 297 1139 l 301 1139 l 340 1110 l 340 458 l 338 389 l 603 669 l 501 686 l 501 771 l 875 771 l 875 686 l 760 667 l 606 519 l 839 101 l 913 89 l 913 0 l 531 0 l 531 89 l 596 103 l 453 382 l 336 263 l 340 192 l 340 103 l 421 89 l 421 0 l 46 0 l 46 89 l 122 103 z "},"ķ":{"ha":892,"x_min":26,"x_max":913,"o":"m 122 103 l 122 1006 l 26 1025 l 26 1107 l 297 1139 l 301 1139 l 340 1110 l 340 458 l 338 389 l 603 669 l 501 686 l 501 771 l 875 771 l 875 686 l 760 667 l 606 519 l 839 101 l 913 89 l 913 0 l 531 0 l 531 89 l 596 103 l 453 382 l 336 263 l 340 192 l 340 103 l 421 89 l 421 0 l 46 0 l 46 89 l 122 103 m 592 -178 q 571 -269 592 -225 q 522 -343 550 -314 q 475 -379 493 -372 l 474 -379 l 404 -358 l 401 -347 q 426 -315 417 -342 q 436 -260 436 -287 q 410 -211 436 -229 q 379 -146 379 -186 q 411 -85 379 -104 q 481 -65 443 -65 l 486 -65 q 563 -94 535 -65 q 592 -178 592 -124 z "},"ĸ":{"ha":944,"x_min":60,"x_max":946,"o":"m 149 101 l 150 629 l 63 656 l 63 761 l 317 790 l 319 790 l 369 761 l 369 485 l 365 375 l 639 668 l 525 683 l 525 771 l 910 771 l 910 683 l 801 671 l 632 511 l 869 103 l 946 89 l 946 0 l 568 0 l 568 89 l 626 100 l 483 369 l 367 251 l 371 189 l 371 101 l 454 89 l 454 0 l 60 0 l 60 89 l 149 101 z "},"l":{"ha":476,"x_min":35,"x_max":444,"o":"m 133 103 l 133 1006 l 35 1025 l 35 1107 l 308 1139 l 311 1139 l 351 1110 l 351 101 l 444 89 l 444 0 l 43 0 l 43 89 l 133 103 z "},"ĺ":{"ha":478,"x_min":35,"x_max":456,"o":"m 108 1151 l 319 1364 l 456 1268 q 321 1160 406 1213 q 189 1092 236 1107 l 108 1151 m 43 0 l 43 89 l 133 101 l 133 904 l 35 921 l 35 1001 l 310 1036 l 353 1006 l 353 101 l 446 89 l 446 0 l 43 0 z "},"ľ":{"ha":649,"x_min":35,"x_max":654,"o":"m 481 690 l 476 707 q 491 786 486 743 q 496 908 496 829 q 484 1023 496 975 q 460 1089 472 1071 l 465 1117 l 614 1149 q 642 1081 631 1129 q 654 969 654 1033 q 640 835 654 899 q 606 726 626 771 q 571 665 586 682 l 481 690 m 43 0 l 43 89 l 133 103 l 133 1006 l 35 1025 l 35 1107 l 308 1139 l 311 1139 l 351 1110 l 351 101 l 444 89 l 444 0 l 43 0 z "},"ļ":{"ha":476,"x_min":35,"x_max":444,"o":"m 133 103 l 133 1006 l 35 1025 l 35 1107 l 308 1139 l 311 1139 l 351 1110 l 351 101 l 444 89 l 444 0 l 43 0 l 43 89 l 133 103 m 351 -178 q 331 -269 351 -225 q 281 -343 310 -314 q 235 -379 253 -372 l 233 -379 l 164 -358 l 161 -347 q 186 -315 176 -342 q 196 -260 196 -287 q 169 -211 196 -229 q 139 -146 139 -186 q 171 -85 139 -104 q 240 -65 203 -65 l 246 -65 q 323 -94 294 -65 q 351 -178 351 -124 z "},"ŀ":{"ha":725,"x_min":35,"x_max":732,"o":"m 133 103 l 133 1006 l 35 1025 l 35 1107 l 308 1139 l 311 1139 l 351 1110 l 351 101 l 444 89 l 444 0 l 43 0 l 43 89 l 133 103 m 592 396 q 511 428 546 396 q 476 508 476 461 q 516 598 476 563 q 613 633 556 633 q 699 599 667 633 q 732 519 732 565 q 693 428 732 461 q 592 396 654 396 z "},"ǉ":{"ha":943,"x_min":35,"x_max":839,"o":"m 133 103 l 133 1006 l 35 1025 l 35 1107 l 308 1139 l 311 1139 l 351 1110 l 351 101 l 444 89 l 444 0 l 43 0 l 43 89 l 133 103 m 690 897 q 608 929 640 897 q 575 1008 575 961 q 610 1101 575 1064 q 706 1139 644 1139 q 794 1108 763 1139 q 826 1028 826 1076 q 792 934 826 971 q 692 897 757 897 l 690 897 m 526 758 l 796 790 l 799 790 l 839 761 l 839 13 q 794 -174 839 -96 q 683 -294 749 -253 q 554 -337 617 -335 q 468 -332 485 -337 l 458 -246 q 488 -244 468 -247 q 528 -231 508 -240 q 600 -136 578 -207 q 622 57 622 -65 l 622 626 l 526 654 l 526 758 z "},"ł":{"ha":506,"x_min":22,"x_max":508,"o":"m 151 563 l 151 1006 l 53 1025 l 53 1107 l 328 1139 l 331 1139 l 371 1110 l 371 651 l 508 715 l 508 604 l 371 543 l 371 101 l 463 89 l 463 0 l 63 0 l 63 89 l 151 103 l 151 457 l 22 399 l 22 503 l 151 563 z "},"m":{"ha":1418,"x_min":54,"x_max":1388,"o":"m 63 89 l 138 103 l 138 629 l 54 656 l 54 761 l 300 790 l 313 783 l 339 742 l 339 676 q 469 755 385 722 q 617 788 554 788 q 738 763 692 788 q 808 685 785 738 q 928 758 856 729 q 1074 788 1000 788 q 1250 716 1197 788 q 1303 483 1303 644 l 1303 103 l 1388 89 l 1388 0 l 1015 0 l 1015 89 l 1081 103 l 1081 478 q 1057 619 1081 579 q 968 660 1033 660 q 895 643 932 660 q 831 604 858 626 q 839 482 839 563 l 839 103 l 919 89 l 919 0 l 544 0 l 544 89 l 615 103 l 615 482 q 607 588 615 550 q 576 642 599 625 q 510 660 553 660 q 431 642 469 660 q 361 599 392 624 l 361 103 l 438 89 l 438 0 l 63 0 l 63 89 z "},"ṁ":{"ha":1418,"x_min":54,"x_max":1388,"o":"m 63 89 l 138 103 l 138 629 l 54 656 l 54 761 l 300 790 l 313 783 l 339 742 l 339 676 q 469 755 385 722 q 617 788 554 788 q 738 763 692 788 q 808 685 785 738 q 928 758 856 729 q 1074 788 1000 788 q 1250 716 1197 788 q 1303 483 1303 644 l 1303 103 l 1388 89 l 1388 0 l 1015 0 l 1015 89 l 1081 103 l 1081 478 q 1057 619 1081 579 q 968 660 1033 660 q 895 643 932 660 q 831 604 858 626 q 839 482 839 563 l 839 103 l 919 89 l 919 0 l 544 0 l 544 89 l 615 103 l 615 482 q 607 588 615 550 q 576 642 599 625 q 510 660 553 660 q 431 642 469 660 q 361 599 392 624 l 361 103 l 438 89 l 438 0 l 63 0 l 63 89 m 699 897 q 616 929 649 897 q 583 1008 583 961 q 618 1101 583 1064 q 714 1139 653 1139 q 803 1108 771 1139 q 835 1028 835 1076 q 800 934 835 971 q 700 897 765 897 l 699 897 z "},"n":{"ha":957,"x_min":54,"x_max":922,"o":"m 138 629 l 54 656 l 54 761 l 300 790 l 304 790 l 340 761 l 340 710 l 339 676 q 463 755 388 722 q 619 788 539 788 q 751 758 703 788 q 822 661 800 728 q 843 482 843 594 l 843 101 l 922 90 l 922 0 l 549 0 l 549 89 l 619 101 l 619 482 q 597 621 619 582 q 511 660 575 660 q 361 599 439 660 l 361 103 l 439 89 l 439 0 l 60 0 l 60 89 l 138 103 l 138 629 z "},"ń":{"ha":957,"x_min":54,"x_max":922,"o":"m 138 629 l 54 656 l 54 761 l 300 790 l 304 790 l 340 761 l 340 710 l 339 676 q 463 755 388 722 q 619 788 539 788 q 751 758 703 788 q 822 661 800 728 q 843 482 843 594 l 843 101 l 922 90 l 922 0 l 549 0 l 549 89 l 619 101 l 619 482 q 597 621 619 582 q 511 660 575 660 q 361 599 439 660 l 361 103 l 439 89 l 439 0 l 60 0 l 60 89 l 138 103 l 138 629 m 385 951 l 631 1246 l 758 1131 q 625 990 722 1071 q 467 886 528 910 l 385 951 z "},"ň":{"ha":957,"x_min":54,"x_max":922,"o":"m 286 1221 l 488 1040 l 690 1222 l 761 1163 l 550 890 l 424 890 l 214 1163 l 286 1221 m 138 629 l 54 656 l 54 761 l 300 790 l 304 790 l 340 761 l 340 710 l 339 676 q 463 755 388 722 q 619 788 539 788 q 751 758 703 788 q 822 661 800 728 q 843 482 843 594 l 843 101 l 922 90 l 922 0 l 549 0 l 549 89 l 619 101 l 619 482 q 597 621 619 582 q 511 660 575 660 q 361 599 439 660 l 361 103 l 439 89 l 439 0 l 60 0 l 60 89 l 138 103 l 138 629 z "},"ņ":{"ha":957,"x_min":54,"x_max":922,"o":"m 138 629 l 54 656 l 54 761 l 300 790 l 304 790 l 340 761 l 340 710 l 339 676 q 463 755 388 722 q 619 788 539 788 q 751 758 703 788 q 822 661 800 728 q 843 482 843 594 l 843 101 l 922 90 l 922 0 l 549 0 l 549 89 l 619 101 l 619 482 q 597 621 619 582 q 511 660 575 660 q 361 599 439 660 l 361 103 l 439 89 l 439 0 l 60 0 l 60 89 l 138 103 l 138 629 m 593 -178 q 572 -269 593 -225 q 523 -343 551 -314 q 476 -379 494 -372 l 475 -379 l 406 -358 l 403 -347 q 428 -315 418 -342 q 438 -260 438 -287 q 411 -211 438 -229 q 381 -146 381 -186 q 413 -85 381 -104 q 482 -65 444 -65 l 488 -65 q 565 -94 536 -65 q 593 -178 593 -124 z "},"ŋ":{"ha":957,"x_min":58,"x_max":849,"o":"m 144 631 l 58 657 l 58 763 l 307 792 l 311 792 l 347 763 l 347 715 l 346 678 q 471 756 396 724 q 626 789 546 789 q 757 758 708 789 q 827 662 806 728 q 849 486 849 596 l 849 15 q 772 -259 849 -161 q 544 -360 694 -357 q 502 -360 529 -361 q 471 -354 475 -358 l 464 -264 q 500 -260 475 -265 q 538 -250 525 -256 q 608 -160 592 -228 q 625 31 625 -92 l 625 486 q 602 622 625 583 q 515 660 579 660 q 436 641 475 660 q 368 599 397 622 l 368 103 l 444 89 l 444 0 l 67 0 l 67 89 l 144 103 l 144 631 z "},"ǌ":{"ha":1424,"x_min":-18,"x_max":1389,"o":"m 214 897 q 131 929 164 897 q 99 1008 99 961 q 133 1101 99 1064 q 229 1139 168 1139 q 318 1108 286 1139 q 350 1028 350 1076 q 315 934 350 971 q 215 897 281 897 l 214 897 m 78 -337 q -8 -332 8 -337 l -18 -246 q 12 -244 -8 -247 q 51 -231 32 -240 q 124 -136 101 -207 q 146 57 146 -65 l 146 626 l 50 654 l 50 758 l 319 790 l 322 790 l 363 761 l 363 13 q 317 -174 363 -96 q 206 -294 272 -253 q 78 -337 140 -335 m 526 89 l 604 103 l 604 629 l 521 656 l 521 761 l 767 790 l 771 790 l 807 761 l 807 710 l 806 676 q 930 755 854 722 q 1086 788 1006 788 q 1218 758 1169 788 q 1288 661 1267 728 q 1310 482 1310 594 l 1310 101 l 1389 90 l 1389 0 l 1015 0 l 1015 89 l 1086 101 l 1086 482 q 1064 621 1086 582 q 978 660 1042 660 q 828 599 910 660 l 828 103 l 906 89 l 906 0 l 526 0 l 526 89 z "},"ñ":{"ha":957,"x_min":54,"x_max":922,"o":"m 181 997 q 260 1103 208 1057 q 388 1149 311 1149 q 461 1133 431 1149 q 529 1086 492 1117 q 580 1049 560 1061 q 625 1038 600 1038 q 683 1055 661 1038 q 731 1104 704 1072 l 797 1050 q 719 943 765 986 q 597 900 672 900 q 526 915 556 900 q 458 961 497 931 q 404 998 426 986 q 354 1010 382 1010 q 293 992 317 1010 q 247 944 269 974 l 181 997 m 138 629 l 54 656 l 54 761 l 300 790 l 304 790 l 340 761 l 340 710 l 339 676 q 463 755 388 722 q 619 788 539 788 q 751 758 703 788 q 822 661 800 728 q 843 482 843 594 l 843 101 l 922 90 l 922 0 l 549 0 l 549 89 l 619 101 l 619 482 q 597 621 619 582 q 511 660 575 660 q 361 599 439 660 l 361 103 l 439 89 l 439 0 l 60 0 l 60 89 l 138 103 l 138 629 z "},"o":{"ha":850,"x_min":44,"x_max":806,"o":"m 44 383 q 97 608 44 515 q 239 746 150 700 q 433 792 328 792 q 707 686 608 792 q 806 393 806 581 q 753 166 806 258 q 611 29 700 74 q 415 -15 522 -15 q 143 90 242 -15 q 44 383 44 196 m 428 79 q 532 152 497 79 q 567 378 567 225 q 534 618 567 539 q 425 697 501 697 q 318 624 354 697 q 282 399 282 551 q 317 159 282 239 q 428 79 351 79 z "},"ó":{"ha":850,"x_min":44,"x_max":806,"o":"m 44 383 q 97 608 44 515 q 239 746 150 700 q 433 792 328 792 q 707 686 608 792 q 806 393 806 581 q 753 166 806 258 q 611 29 700 74 q 415 -15 522 -15 q 143 90 242 -15 q 44 383 44 196 m 428 79 q 532 152 497 79 q 567 378 567 225 q 534 618 567 539 q 425 697 501 697 q 318 624 354 697 q 282 399 282 551 q 317 159 282 239 q 428 79 351 79 m 331 951 l 576 1246 l 704 1131 q 571 990 668 1071 q 413 886 474 910 l 331 951 z "},"ŏ":{"ha":850,"x_min":44,"x_max":806,"o":"m 425 903 q 292 933 349 903 q 203 1017 235 964 q 172 1135 172 1069 q 175 1197 172 1183 l 275 1197 q 276 1168 275 1179 q 319 1084 283 1118 q 425 1050 354 1050 q 530 1083 496 1050 q 571 1167 564 1117 q 574 1197 574 1192 l 671 1197 q 674 1136 674 1169 q 642 1017 674 1071 q 554 933 611 964 q 425 903 497 903 m 44 383 q 97 608 44 515 q 239 746 150 700 q 433 792 328 792 q 707 686 608 792 q 806 393 806 581 q 753 166 806 258 q 611 29 700 74 q 415 -15 522 -15 q 143 90 242 -15 q 44 383 44 196 m 428 79 q 532 152 497 79 q 567 378 567 225 q 534 618 567 539 q 425 697 501 697 q 318 624 354 697 q 282 399 282 551 q 317 159 282 239 q 428 79 351 79 z "},"ô":{"ha":850,"x_min":44,"x_max":806,"o":"m 361 1215 l 486 1215 l 699 944 l 625 885 l 425 1061 l 221 883 l 150 943 l 361 1215 m 44 383 q 97 608 44 515 q 239 746 150 700 q 433 792 328 792 q 707 686 608 792 q 806 393 806 581 q 753 166 806 258 q 611 29 700 74 q 415 -15 522 -15 q 143 90 242 -15 q 44 383 44 196 m 428 79 q 532 152 497 79 q 567 378 567 225 q 534 618 567 539 q 425 697 501 697 q 318 624 354 697 q 282 399 282 551 q 317 159 282 239 q 428 79 351 79 z "},"ố":{"ha":850,"x_min":44,"x_max":919,"o":"m 601 1078 l 810 1329 l 919 1231 q 806 1112 889 1181 q 671 1022 722 1043 l 601 1078 m 371 1150 l 478 1150 l 660 919 l 596 868 l 426 1018 l 251 867 l 192 918 l 371 1150 m 44 383 q 97 608 44 515 q 239 746 150 700 q 433 792 328 792 q 707 686 608 792 q 806 393 806 581 q 753 166 806 258 q 611 29 700 74 q 415 -15 522 -15 q 143 90 242 -15 q 44 383 44 196 m 428 79 q 532 152 497 79 q 567 378 567 225 q 534 618 567 539 q 425 697 501 697 q 318 624 354 697 q 282 399 282 551 q 317 159 282 239 q 428 79 351 79 z "},"ộ":{"ha":850,"x_min":44,"x_max":806,"o":"m 44 383 q 97 608 44 515 q 239 746 150 700 q 433 792 328 792 q 707 686 608 792 q 806 393 806 581 q 753 166 806 258 q 611 29 700 74 q 415 -15 522 -15 q 143 90 242 -15 q 44 383 44 196 m 428 79 q 532 152 497 79 q 567 378 567 225 q 534 618 567 539 q 425 697 501 697 q 318 624 354 697 q 282 399 282 551 q 317 159 282 239 q 428 79 351 79 m 418 -271 q 351 -245 378 -271 q 325 -182 325 -219 q 353 -108 325 -137 q 429 -78 382 -78 q 501 -103 475 -78 q 526 -167 526 -128 q 499 -241 526 -211 q 419 -271 471 -271 l 418 -271 m 363 1215 l 488 1215 l 700 944 l 625 885 l 426 1061 l 222 883 l 151 943 l 363 1215 z "},"ồ":{"ha":850,"x_min":44,"x_max":806,"o":"m 610 1143 q 476 1231 560 1161 q 363 1351 392 1300 l 471 1450 l 681 1199 l 611 1143 l 610 1143 m 371 1150 l 478 1150 l 660 919 l 596 868 l 426 1018 l 251 867 l 192 918 l 371 1150 m 44 383 q 97 608 44 515 q 239 746 150 700 q 433 792 328 792 q 707 686 608 792 q 806 393 806 581 q 753 166 806 258 q 611 29 700 74 q 415 -15 522 -15 q 143 90 242 -15 q 44 383 44 196 m 428 79 q 532 152 497 79 q 567 378 567 225 q 534 618 567 539 q 425 697 501 697 q 318 624 354 697 q 282 399 282 551 q 317 159 282 239 q 428 79 351 79 z "},"ổ":{"ha":850,"x_min":44,"x_max":806,"o":"m 639 1061 q 621 1089 632 1069 q 610 1115 610 1108 q 617 1138 610 1129 q 640 1158 625 1147 q 669 1193 667 1176 l 669 1199 q 615 1246 669 1242 q 581 1243 585 1246 l 575 1347 q 594 1352 578 1350 q 622 1354 610 1354 q 739 1319 686 1354 q 792 1221 792 1285 q 776 1175 792 1193 q 742 1142 761 1157 q 713 1121 722 1128 q 699 1089 699 1107 q 701 1068 699 1076 l 639 1061 m 371 1151 l 478 1151 l 660 921 l 596 869 l 426 1019 l 251 868 l 192 919 l 371 1151 m 44 383 q 97 608 44 515 q 239 746 150 700 q 433 792 328 792 q 707 686 608 792 q 806 393 806 581 q 753 166 806 258 q 611 29 700 74 q 415 -15 522 -15 q 143 90 242 -15 q 44 383 44 196 m 428 79 q 532 152 497 79 q 567 378 567 225 q 534 618 567 539 q 425 697 501 697 q 318 624 354 697 q 282 399 282 551 q 317 159 282 239 q 428 79 351 79 z "},"ỗ":{"ha":850,"x_min":44,"x_max":806,"o":"m 185 1257 q 252 1347 208 1308 q 363 1386 296 1386 q 426 1372 400 1386 q 482 1332 451 1358 q 526 1301 508 1311 q 564 1292 543 1292 q 615 1308 596 1292 q 653 1349 635 1324 l 711 1301 q 540 1174 650 1174 q 480 1187 506 1174 q 422 1225 454 1200 q 376 1258 394 1247 q 333 1268 357 1268 q 283 1254 301 1268 q 242 1213 265 1240 l 185 1257 m 371 1150 l 478 1150 l 660 919 l 596 868 l 426 1018 l 251 867 l 192 918 l 371 1150 m 44 383 q 97 608 44 515 q 239 746 150 700 q 433 792 328 792 q 707 686 608 792 q 806 393 806 581 q 753 166 806 258 q 611 29 700 74 q 415 -15 522 -15 q 143 90 242 -15 q 44 383 44 196 m 428 79 q 532 152 497 79 q 567 378 567 225 q 534 618 567 539 q 425 697 501 697 q 318 624 354 697 q 282 399 282 551 q 317 159 282 239 q 428 79 351 79 z "},"ö":{"ha":850,"x_min":44,"x_max":806,"o":"m 44 383 q 97 608 44 515 q 239 746 150 700 q 433 792 328 792 q 707 686 608 792 q 806 393 806 581 q 753 166 806 258 q 611 29 700 74 q 415 -15 522 -15 q 143 90 242 -15 q 44 383 44 196 m 428 79 q 532 152 497 79 q 567 378 567 225 q 534 618 567 539 q 425 697 501 697 q 318 624 354 697 q 282 399 282 551 q 317 159 282 239 q 428 79 351 79 m 239 908 q 169 940 197 908 q 142 1015 142 972 q 171 1107 142 1072 q 258 1142 200 1142 q 339 1111 311 1142 q 367 1035 367 1081 q 335 943 367 978 q 239 908 303 908 m 581 908 q 511 942 539 908 q 483 1015 483 975 q 513 1106 483 1071 q 600 1142 543 1142 q 681 1111 653 1142 q 708 1035 708 1081 q 676 943 708 978 q 581 908 644 908 z "},"ọ":{"ha":850,"x_min":44,"x_max":806,"o":"m 44 383 q 97 608 44 515 q 239 746 150 700 q 433 792 328 792 q 707 686 608 792 q 806 393 806 581 q 753 166 806 258 q 611 29 700 74 q 415 -15 522 -15 q 143 90 242 -15 q 44 383 44 196 m 428 79 q 532 152 497 79 q 567 378 567 225 q 534 618 567 539 q 425 697 501 697 q 318 624 354 697 q 282 399 282 551 q 317 159 282 239 q 428 79 351 79 m 418 -271 q 351 -245 378 -271 q 325 -182 325 -219 q 353 -108 325 -137 q 429 -78 382 -78 q 501 -103 475 -78 q 526 -167 526 -128 q 499 -241 526 -211 q 419 -271 471 -271 l 418 -271 z "},"ò":{"ha":850,"x_min":44,"x_max":806,"o":"m 451 886 q 353 944 414 900 q 238 1040 293 988 q 161 1131 183 1092 l 289 1246 l 535 951 l 453 886 l 451 886 m 44 383 q 97 608 44 515 q 239 746 150 700 q 433 792 328 792 q 707 686 608 792 q 806 393 806 581 q 753 166 806 258 q 611 29 700 74 q 415 -15 522 -15 q 143 90 242 -15 q 44 383 44 196 m 428 79 q 532 152 497 79 q 567 378 567 225 q 534 618 567 539 q 425 697 501 697 q 318 624 354 697 q 282 399 282 551 q 317 159 282 239 q 428 79 351 79 z "},"ỏ":{"ha":850,"x_min":44,"x_max":806,"o":"m 44 383 q 97 608 44 515 q 239 746 150 700 q 433 792 328 792 q 707 686 608 792 q 806 393 806 581 q 753 166 806 258 q 611 29 700 74 q 415 -15 522 -15 q 143 90 242 -15 q 44 383 44 196 m 428 79 q 532 152 497 79 q 567 378 567 225 q 534 618 567 539 q 425 697 501 697 q 318 624 354 697 q 282 399 282 551 q 317 159 282 239 q 428 79 351 79 m 392 847 q 369 879 382 857 q 357 911 357 901 q 365 938 357 928 q 392 961 374 947 q 417 982 408 974 q 428 1003 425 990 l 428 1008 q 364 1064 428 1060 q 322 1061 328 1064 l 317 1183 q 338 1189 319 1186 q 371 1192 357 1192 q 464 1174 418 1192 q 540 1120 510 1156 q 571 1035 571 1085 q 553 981 571 1003 q 501 935 535 960 l 478 917 q 460 879 460 901 q 464 856 460 871 l 392 847 z "},"ơ":{"ha":850,"x_min":44,"x_max":881,"o":"m 881 911 q 836 767 881 829 q 721 671 792 706 q 806 393 806 564 q 753 166 806 258 q 611 29 700 74 q 415 -15 522 -15 q 143 90 242 -15 q 44 383 44 196 q 97 608 44 515 q 239 746 150 700 q 433 792 328 792 q 581 768 514 792 l 581 772 q 692 817 657 772 q 735 918 726 861 q 736 942 738 936 l 878 942 q 881 911 881 919 m 428 79 q 532 152 497 79 q 567 378 567 225 q 534 618 567 539 q 425 697 501 697 q 318 624 354 697 q 282 399 282 551 q 317 159 282 239 q 428 79 351 79 z "},"ớ":{"ha":850,"x_min":44,"x_max":881,"o":"m 881 911 q 836 767 881 829 q 721 671 792 706 q 806 393 806 564 q 753 166 806 258 q 611 29 700 74 q 415 -15 522 -15 q 143 90 242 -15 q 44 383 44 196 q 97 608 44 515 q 239 746 150 700 q 433 792 328 792 q 581 768 514 792 l 581 772 q 692 817 657 772 q 735 918 726 861 q 736 942 738 936 l 878 942 q 881 911 881 919 m 428 79 q 532 152 497 79 q 567 378 567 225 q 534 618 567 539 q 425 697 501 697 q 318 624 354 697 q 282 399 282 551 q 317 159 282 239 q 428 79 351 79 m 331 951 l 576 1246 l 704 1131 q 571 990 668 1071 q 413 886 474 910 l 331 951 z "},"ợ":{"ha":850,"x_min":44,"x_max":881,"o":"m 881 911 q 836 767 881 829 q 721 671 792 706 q 806 393 806 564 q 753 166 806 258 q 611 29 700 74 q 415 -15 522 -15 q 143 90 242 -15 q 44 383 44 196 q 97 608 44 515 q 239 746 150 700 q 433 792 328 792 q 581 768 514 792 l 581 772 q 692 817 657 772 q 735 918 726 861 q 736 942 738 936 l 878 942 q 881 911 881 919 m 428 79 q 532 152 497 79 q 567 378 567 225 q 534 618 567 539 q 425 697 501 697 q 318 624 354 697 q 282 399 282 551 q 317 159 282 239 q 428 79 351 79 m 418 -271 q 351 -245 378 -271 q 325 -182 325 -219 q 353 -108 325 -137 q 429 -78 382 -78 q 501 -103 475 -78 q 526 -167 526 -128 q 499 -241 526 -211 q 419 -271 471 -271 l 418 -271 z "},"ờ":{"ha":850,"x_min":44,"x_max":881,"o":"m 881 911 q 836 767 881 829 q 721 671 792 706 q 806 393 806 564 q 753 166 806 258 q 611 29 700 74 q 415 -15 522 -15 q 143 90 242 -15 q 44 383 44 196 q 97 608 44 515 q 239 746 150 700 q 433 792 328 792 q 581 768 514 792 l 581 772 q 692 817 657 772 q 735 918 726 861 q 736 942 738 936 l 878 942 q 881 911 881 919 m 428 79 q 532 152 497 79 q 567 378 567 225 q 534 618 567 539 q 425 697 501 697 q 318 624 354 697 q 282 399 282 551 q 317 159 282 239 q 428 79 351 79 m 449 886 q 351 944 411 900 q 235 1040 290 988 q 158 1131 181 1092 l 286 1246 l 532 951 l 450 886 l 449 886 z "},"ở":{"ha":850,"x_min":44,"x_max":881,"o":"m 881 911 q 836 767 881 829 q 721 671 792 706 q 806 393 806 564 q 753 166 806 258 q 611 29 700 74 q 415 -15 522 -15 q 143 90 242 -15 q 44 383 44 196 q 97 608 44 515 q 239 746 150 700 q 433 792 328 792 q 581 768 514 792 l 581 772 q 692 817 657 772 q 735 918 726 861 q 736 942 738 936 l 878 942 q 881 911 881 919 m 428 79 q 532 152 497 79 q 567 378 567 225 q 534 618 567 539 q 425 697 501 697 q 318 624 354 697 q 282 399 282 551 q 317 159 282 239 q 428 79 351 79 m 392 847 q 369 879 382 857 q 357 911 357 901 q 365 938 357 928 q 392 961 374 947 q 417 982 408 974 q 428 1003 425 990 l 428 1008 q 364 1064 428 1060 q 322 1061 328 1064 l 317 1183 q 338 1189 319 1186 q 371 1192 357 1192 q 464 1174 418 1192 q 540 1120 510 1156 q 571 1035 571 1085 q 553 981 571 1003 q 501 935 535 960 l 478 917 q 460 879 460 901 q 464 856 460 871 l 392 847 z "},"ỡ":{"ha":850,"x_min":44,"x_max":881,"o":"m 881 911 q 836 767 881 829 q 721 671 792 706 q 806 393 806 564 q 753 166 806 258 q 611 29 700 74 q 415 -15 522 -15 q 143 90 242 -15 q 44 383 44 196 q 97 608 44 515 q 239 746 150 700 q 433 792 328 792 q 581 768 514 792 l 581 772 q 692 817 657 772 q 735 918 726 861 q 736 942 738 936 l 878 942 q 881 911 881 919 m 428 79 q 532 152 497 79 q 567 378 567 225 q 534 618 567 539 q 425 697 501 697 q 318 624 354 697 q 282 399 282 551 q 317 159 282 239 q 428 79 351 79 m 115 997 q 194 1103 143 1057 q 324 1149 246 1149 q 397 1133 367 1149 q 465 1086 428 1117 q 516 1049 496 1061 q 561 1038 536 1038 q 620 1056 599 1038 q 665 1104 642 1074 l 733 1050 q 533 900 660 900 q 463 915 492 900 q 394 961 433 931 q 340 998 363 986 q 290 1010 318 1010 q 230 992 253 1010 q 182 944 207 975 l 115 997 z "},"ő":{"ha":850,"x_min":44,"x_max":853,"o":"m 501 1139 q 383 1015 471 1090 q 239 906 294 939 l 164 964 l 379 1238 l 501 1139 m 853 1139 q 735 1016 826 1094 q 589 906 644 938 l 515 965 l 738 1236 l 853 1139 m 44 383 q 97 608 44 515 q 239 746 150 700 q 433 792 328 792 q 707 686 608 792 q 806 393 806 581 q 753 166 806 258 q 611 29 700 74 q 415 -15 522 -15 q 143 90 242 -15 q 44 383 44 196 m 428 79 q 532 152 497 79 q 567 378 567 225 q 534 618 567 539 q 425 697 501 697 q 318 624 354 697 q 282 399 282 551 q 317 159 282 239 q 428 79 351 79 z "},"ō":{"ha":850,"x_min":44,"x_max":806,"o":"m 638 1092 l 638 963 l 211 963 l 211 1092 l 638 1092 m 44 383 q 97 608 44 515 q 239 746 150 700 q 433 792 328 792 q 707 686 608 792 q 806 393 806 581 q 753 166 806 258 q 611 29 700 74 q 415 -15 522 -15 q 143 90 242 -15 q 44 383 44 196 m 428 79 q 532 152 497 79 q 567 378 567 225 q 534 618 567 539 q 425 697 501 697 q 318 624 354 697 q 282 399 282 551 q 317 159 282 239 q 428 79 351 79 z "},"ø":{"ha":850,"x_min":44,"x_max":806,"o":"m 44 383 q 97 608 44 515 q 239 746 150 700 q 433 792 328 792 q 517 785 472 792 l 568 938 l 660 911 l 610 757 q 755 619 704 713 q 806 393 806 526 q 753 166 806 258 q 611 29 700 74 q 415 -15 522 -15 q 340 -8 379 -15 l 278 -178 l 183 -150 l 244 18 q 97 156 149 61 q 44 383 44 250 m 282 399 q 321 171 282 247 l 493 671 q 425 697 464 697 q 318 624 354 697 q 282 399 282 551 m 428 79 q 532 152 497 79 q 567 378 567 225 q 529 600 567 529 l 360 106 q 428 79 389 79 z "},"õ":{"ha":850,"x_min":44,"x_max":806,"o":"m 117 997 q 197 1103 144 1057 q 325 1149 249 1149 q 399 1133 368 1149 q 467 1086 429 1117 q 517 1049 497 1061 q 563 1038 538 1038 q 622 1056 600 1038 q 667 1104 643 1074 l 735 1050 q 535 900 661 900 q 464 915 493 900 q 396 961 435 931 q 342 998 364 986 q 292 1010 319 1010 q 231 992 254 1010 q 183 944 208 975 l 117 997 m 44 383 q 97 608 44 515 q 239 746 150 700 q 433 792 328 792 q 707 686 608 792 q 806 393 806 581 q 753 166 806 258 q 611 29 700 74 q 415 -15 522 -15 q 143 90 242 -15 q 44 383 44 196 m 428 79 q 532 152 497 79 q 567 378 567 225 q 534 618 567 539 q 425 697 501 697 q 318 624 354 697 q 282 399 282 551 q 317 159 282 239 q 428 79 351 79 z "},"œ":{"ha":1300,"x_min":44,"x_max":1253,"o":"m 415 -15 q 144 89 243 -15 q 44 382 44 193 q 97 606 44 514 q 240 745 150 699 q 436 792 329 792 q 693 690 610 792 q 806 766 740 740 q 951 792 872 792 q 1173 718 1097 792 q 1251 510 1249 644 q 1242 368 1253 428 l 800 368 q 859 184 807 249 q 1004 119 911 119 q 1114 137 1057 119 q 1207 178 1171 154 l 1242 97 q 1119 21 1204 57 q 944 -15 1033 -15 q 672 93 765 -15 q 560 13 625 40 q 415 -15 494 -15 m 428 81 q 531 151 497 81 q 565 379 565 222 q 532 621 565 544 q 424 697 499 697 q 319 624 354 697 q 283 397 283 551 q 318 156 283 231 q 428 81 353 81 m 1039 458 l 1039 517 q 1015 650 1039 603 q 932 697 990 697 q 837 647 871 697 q 799 458 803 596 l 1039 458 z "},"p":{"ha":886,"x_min":36,"x_max":839,"o":"m 839 411 q 791 199 839 296 q 649 43 743 101 q 425 -15 556 -15 q 374 -11 400 -15 q 333 0 349 -7 l 338 -114 l 338 -235 l 460 -251 l 460 -336 l 36 -336 l 36 -251 l 122 -235 l 122 629 l 38 656 l 38 761 l 281 790 l 283 790 l 319 761 l 319 686 q 410 760 353 729 q 538 792 468 792 q 755 698 671 792 q 839 411 839 604 m 457 667 q 387 651 419 667 q 338 615 354 636 l 338 104 q 372 83 346 92 q 431 75 399 75 q 560 151 511 75 q 608 393 608 226 q 567 599 608 532 q 457 667 525 667 z "},"ṗ":{"ha":886,"x_min":36,"x_max":839,"o":"m 444 897 q 362 929 394 897 q 329 1008 329 961 q 364 1101 329 1064 q 460 1139 399 1139 q 549 1108 517 1139 q 581 1028 581 1076 q 546 934 581 971 q 446 897 511 897 l 444 897 m 839 411 q 791 199 839 296 q 649 43 743 101 q 425 -15 556 -15 q 374 -11 400 -15 q 333 0 349 -7 l 338 -114 l 338 -235 l 460 -251 l 460 -336 l 36 -336 l 36 -251 l 122 -235 l 122 629 l 38 656 l 38 761 l 281 790 l 283 790 l 319 761 l 319 686 q 410 760 353 729 q 538 792 468 792 q 755 698 671 792 q 839 411 839 604 m 457 667 q 387 651 419 667 q 338 615 354 636 l 338 104 q 372 83 346 92 q 431 75 399 75 q 560 151 511 75 q 608 393 608 226 q 567 599 608 532 q 457 667 525 667 z "},"þ":{"ha":871,"x_min":7,"x_max":825,"o":"m 276 1139 l 279 1139 l 322 1111 l 322 706 q 412 767 358 742 q 526 792 465 792 q 742 698 660 792 q 825 411 825 604 q 774 193 825 290 q 630 40 724 96 q 410 -15 536 -15 q 319 -10 372 -15 l 322 -93 l 324 -236 l 454 -253 l 454 -336 l 19 -336 l 19 -253 l 108 -236 l 108 1010 l 7 1028 l 7 1107 l 276 1139 m 443 660 q 373 643 406 660 q 322 604 340 626 l 322 101 q 356 78 329 88 q 417 69 382 69 q 545 151 497 69 q 593 393 593 233 q 553 595 593 531 q 443 660 513 660 z "},"q":{"ha":857,"x_min":47,"x_max":861,"o":"m 401 -253 l 551 -235 l 551 -32 l 556 71 q 463 8 517 32 q 349 -15 408 -15 q 196 26 264 -15 q 88 153 128 67 q 47 369 47 239 q 95 581 47 485 q 238 735 143 678 q 464 792 332 792 q 625 764 535 792 l 733 786 l 767 761 l 767 -236 l 861 -253 l 861 -336 l 401 -336 l 401 -253 m 432 106 q 501 122 468 106 q 551 160 533 139 l 551 669 q 515 691 543 682 q 456 700 488 700 q 328 626 376 700 q 281 386 281 551 q 322 176 281 246 q 432 106 364 106 z "},"r":{"ha":663,"x_min":61,"x_max":638,"o":"m 61 89 l 147 101 l 147 629 l 63 656 l 63 761 l 289 790 l 293 790 l 332 761 l 332 729 l 328 614 l 332 614 q 376 688 342 646 q 465 760 411 729 q 582 792 519 792 q 638 782 618 792 l 638 550 q 526 583 592 583 q 365 539 433 583 l 365 101 l 521 89 l 521 0 l 61 0 l 61 89 z "},"ŕ":{"ha":663,"x_min":61,"x_max":643,"o":"m 61 89 l 147 101 l 147 629 l 63 656 l 63 761 l 289 790 l 293 790 l 332 761 l 332 729 l 328 614 l 332 614 q 376 688 342 646 q 465 760 411 729 q 582 792 519 792 q 638 782 618 792 l 638 550 q 526 583 592 583 q 365 539 433 583 l 365 101 l 521 89 l 521 0 l 61 0 l 61 89 m 269 951 l 515 1246 l 643 1131 q 510 990 607 1071 q 351 886 413 910 l 269 951 z "},"ř":{"ha":663,"x_min":61,"x_max":638,"o":"m 61 89 l 147 101 l 147 629 l 63 656 l 63 761 l 289 790 l 293 790 l 332 761 l 332 729 l 328 614 l 332 614 q 376 688 342 646 q 465 760 411 729 q 582 792 519 792 q 638 782 618 792 l 638 550 q 526 583 592 583 q 365 539 433 583 l 365 101 l 521 89 l 521 0 l 61 0 l 61 89 m 163 1221 l 363 1040 l 565 1222 l 638 1163 l 425 890 l 300 890 l 90 1163 l 163 1221 z "},"ŗ":{"ha":663,"x_min":61,"x_max":638,"o":"m 61 89 l 147 101 l 147 629 l 63 656 l 63 761 l 289 790 l 293 790 l 332 761 l 332 729 l 328 614 l 332 614 q 376 688 342 646 q 465 760 411 729 q 582 792 519 792 q 638 782 618 792 l 638 550 q 526 583 592 583 q 365 539 433 583 l 365 101 l 521 89 l 521 0 l 61 0 l 61 89 m 378 -178 q 356 -269 378 -225 q 307 -343 335 -314 q 261 -379 279 -372 l 258 -379 l 189 -358 l 186 -347 q 211 -315 201 -342 q 221 -260 221 -287 q 194 -211 221 -229 q 164 -146 164 -186 q 196 -85 164 -104 q 265 -65 228 -65 l 271 -65 q 349 -94 319 -65 q 378 -178 378 -124 z "},"s":{"ha":729,"x_min":67,"x_max":685,"o":"m 228 115 q 274 87 238 100 q 349 74 311 74 q 438 99 407 74 q 468 164 468 124 q 430 233 468 207 q 304 299 392 260 l 250 324 q 113 422 158 364 q 67 568 67 479 q 104 682 67 632 q 212 760 142 732 q 376 789 282 789 q 490 781 442 789 q 589 760 539 772 q 638 749 622 750 l 638 561 l 517 561 l 482 667 q 447 691 475 681 q 382 701 418 701 q 300 678 331 701 q 269 615 269 654 q 288 560 269 583 q 335 522 307 538 q 415 483 363 507 l 446 471 q 569 409 519 439 q 652 332 619 379 q 685 218 685 285 q 603 50 685 115 q 364 -15 522 -15 q 230 -3 290 -15 q 106 29 169 10 l 67 40 l 67 225 l 193 225 l 228 115 z "},"ś":{"ha":729,"x_min":67,"x_max":685,"o":"m 228 115 q 274 87 238 100 q 349 74 311 74 q 438 99 407 74 q 468 164 468 124 q 430 233 468 207 q 304 299 392 260 l 250 324 q 113 422 158 364 q 67 568 67 479 q 104 682 67 632 q 212 760 142 732 q 376 789 282 789 q 490 781 442 789 q 589 760 539 772 q 638 749 622 750 l 638 561 l 517 561 l 482 667 q 447 691 475 681 q 382 701 418 701 q 300 678 331 701 q 269 615 269 654 q 288 560 269 583 q 335 522 307 538 q 415 483 363 507 l 446 471 q 569 409 519 439 q 652 332 619 379 q 685 218 685 285 q 603 50 685 115 q 364 -15 522 -15 q 230 -3 290 -15 q 106 29 169 10 l 67 40 l 67 225 l 193 225 l 228 115 m 271 951 l 517 1246 l 644 1131 q 511 990 608 1071 q 353 886 414 910 l 271 951 z "},"š":{"ha":733,"x_min":67,"x_max":685,"o":"m 181 1221 l 382 1040 l 585 1222 l 657 1163 l 444 890 l 318 890 l 108 1163 l 181 1221 m 228 115 q 274 87 238 100 q 349 74 311 74 q 438 99 407 74 q 468 164 468 124 q 430 233 468 207 q 304 299 392 260 l 250 324 q 113 422 158 364 q 67 568 67 479 q 104 682 67 632 q 212 760 142 732 q 376 789 282 789 q 490 781 442 789 q 589 760 539 772 q 638 749 622 750 l 638 561 l 517 561 l 482 667 q 447 691 475 681 q 382 701 418 701 q 300 678 331 701 q 269 615 269 654 q 288 560 269 583 q 335 522 307 538 q 415 483 363 507 l 446 471 q 569 409 519 439 q 652 332 619 379 q 685 218 685 285 q 603 50 685 115 q 364 -15 522 -15 q 230 -3 290 -15 q 106 29 169 10 l 67 40 l 67 225 l 193 225 l 228 115 z "},"ŝ":{"ha":733,"x_min":67,"x_max":685,"o":"m 318 1215 l 443 1215 l 656 944 l 582 885 l 382 1061 l 178 883 l 107 943 l 318 1215 m 228 115 q 274 87 238 100 q 349 74 311 74 q 438 99 407 74 q 468 164 468 124 q 430 233 468 207 q 304 299 392 260 l 250 324 q 113 422 158 364 q 67 568 67 479 q 104 682 67 632 q 212 760 142 732 q 376 789 282 789 q 490 781 442 789 q 589 760 539 772 q 638 749 622 750 l 638 561 l 517 561 l 482 667 q 447 691 475 681 q 382 701 418 701 q 300 678 331 701 q 269 615 269 654 q 288 560 269 583 q 335 522 307 538 q 415 483 363 507 l 446 471 q 569 409 519 439 q 652 332 619 379 q 685 218 685 285 q 603 50 685 115 q 364 -15 522 -15 q 230 -3 290 -15 q 106 29 169 10 l 67 40 l 67 225 l 193 225 l 228 115 z "},"ș":{"ha":733,"x_min":67,"x_max":685,"o":"m 228 115 q 274 87 238 100 q 349 74 311 74 q 438 99 407 74 q 468 164 468 124 q 430 233 468 207 q 304 299 392 260 l 250 324 q 113 422 158 364 q 67 568 67 479 q 104 682 67 632 q 212 760 142 732 q 376 789 282 789 q 490 781 442 789 q 589 760 539 772 q 638 749 622 750 l 638 561 l 517 561 l 482 667 q 447 691 475 681 q 382 701 418 701 q 300 678 331 701 q 269 615 269 654 q 288 560 269 583 q 335 522 307 538 q 415 483 363 507 l 446 471 q 569 409 519 439 q 652 332 619 379 q 685 218 685 285 q 603 50 685 115 q 364 -15 522 -15 q 230 -3 290 -15 q 106 29 169 10 l 67 40 l 67 225 l 193 225 l 228 115 m 476 -178 q 455 -269 476 -225 q 406 -343 433 -314 q 360 -379 378 -372 l 357 -379 l 289 -358 l 286 -347 q 311 -315 301 -342 q 321 -260 321 -287 q 313 -231 321 -242 q 294 -211 306 -219 q 263 -146 263 -187 q 294 -85 263 -104 q 365 -65 326 -65 l 369 -65 q 447 -94 418 -65 q 476 -178 476 -124 z "},"ṡ":{"ha":729,"x_min":67,"x_max":685,"o":"m 364 897 q 281 929 314 897 q 249 1008 249 961 q 283 1101 249 1064 q 379 1139 318 1139 q 468 1108 436 1139 q 500 1028 500 1076 q 465 934 500 971 q 365 897 431 897 l 364 897 m 228 115 q 274 87 238 100 q 349 74 311 74 q 438 99 407 74 q 468 164 468 124 q 430 233 468 207 q 304 299 392 260 l 250 324 q 113 422 158 364 q 67 568 67 479 q 104 682 67 632 q 212 760 142 732 q 376 789 282 789 q 490 781 442 789 q 589 760 539 772 q 638 749 622 750 l 638 561 l 517 561 l 482 667 q 447 691 475 681 q 382 701 418 701 q 300 678 331 701 q 269 615 269 654 q 288 560 269 583 q 335 522 307 538 q 415 483 363 507 l 446 471 q 569 409 519 439 q 652 332 619 379 q 685 218 685 285 q 603 50 685 115 q 364 -15 522 -15 q 230 -3 290 -15 q 106 29 169 10 l 67 40 l 67 225 l 193 225 l 228 115 z "},"ß":{"ha":919,"x_min":31,"x_max":897,"o":"m 108 656 q 162 881 108 782 q 313 1037 215 981 q 536 1093 410 1093 q 739 1045 669 1093 q 808 908 808 997 q 785 814 808 849 q 718 740 763 779 q 669 690 685 711 q 654 640 654 669 q 675 585 654 611 q 742 518 696 560 q 821 440 790 475 q 874 355 851 406 q 897 240 897 304 q 810 53 897 121 q 557 -15 722 -15 q 499 -10 536 -15 q 440 0 461 -6 l 440 115 q 486 101 458 107 q 543 96 514 96 q 629 128 599 96 q 660 210 660 160 q 635 310 660 269 q 560 404 610 351 q 493 487 515 453 q 471 569 471 521 q 485 633 471 607 q 529 694 500 660 q 587 777 567 738 q 607 881 607 817 q 504 993 607 993 q 376 914 421 993 q 332 681 332 835 l 332 0 l 31 0 l 31 89 l 108 103 l 108 656 z "},"ə":{"ha":768,"x_min":44,"x_max":722,"o":"m 353 788 q 632 680 542 788 q 722 386 722 572 q 676 169 722 260 q 544 29 629 78 q 344 -19 458 -19 q 124 54 200 -19 q 44 263 47 128 q 57 404 44 350 l 496 404 q 438 589 489 525 q 292 653 386 653 q 184 635 240 653 q 92 593 128 617 l 56 675 q 177 751 92 715 q 353 788 263 788 m 258 314 l 257 256 q 282 122 257 168 q 365 75 307 75 q 460 126 426 75 q 497 314 493 178 l 258 314 z "},"t":{"ha":567,"x_min":31,"x_max":561,"o":"m 294 -12 q 160 29 204 -12 q 117 160 117 71 l 117 658 l 31 658 l 31 736 l 58 747 q 117 771 92 758 q 160 838 142 792 q 206 979 175 874 l 331 979 l 338 772 l 540 772 l 540 658 l 340 658 l 340 285 q 344 176 340 207 q 361 137 349 146 q 406 128 374 128 q 532 150 465 128 l 561 67 q 447 11 522 35 q 294 -12 371 -12 z "},"ŧ":{"ha":571,"x_min":29,"x_max":563,"o":"m 118 658 l 32 658 l 32 736 q 118 771 117 769 q 160 838 142 793 q 194 939 169 858 l 207 979 l 332 979 l 338 772 l 540 772 l 540 658 l 340 658 l 340 499 l 535 499 l 535 394 l 340 394 l 340 285 q 344 177 340 208 q 362 137 349 146 q 407 128 375 128 q 532 150 465 128 l 533 150 l 563 67 q 447 11 522 35 q 294 -12 371 -12 l 293 -12 q 160 29 203 -12 q 118 160 118 71 l 118 394 l 29 394 l 29 499 l 118 499 l 118 658 z "},"ť":{"ha":567,"x_min":31,"x_max":618,"o":"m 294 -12 q 160 29 204 -12 q 117 160 117 71 l 117 658 l 31 658 l 31 736 l 58 747 q 117 771 92 758 q 160 838 142 792 q 206 979 175 874 l 331 979 l 338 772 l 540 772 l 540 658 l 340 658 l 340 285 q 344 176 340 207 q 361 137 349 146 q 406 128 374 128 q 532 150 465 128 l 561 67 q 447 11 522 35 q 294 -12 371 -12 m 444 861 l 440 878 q 456 956 450 911 q 461 1079 461 1000 q 449 1195 461 1147 q 424 1260 436 1243 l 431 1288 l 579 1319 q 606 1252 594 1300 q 618 1140 618 1204 q 604 1006 618 1069 q 570 897 590 942 q 535 836 550 853 l 444 861 z "},"ţ":{"ha":567,"x_min":31,"x_max":561,"o":"m 561 67 q 483 24 533 44 q 375 -6 433 4 q 434 -87 407 -37 q 461 -189 461 -136 q 410 -317 461 -279 q 257 -354 360 -354 q 206 -349 235 -354 q 158 -335 178 -343 l 158 -210 q 217 -218 188 -218 q 292 -200 269 -218 q 314 -122 314 -182 q 278 -12 314 -75 q 156 33 196 -8 q 117 160 117 75 l 117 658 l 31 658 l 31 736 l 58 747 q 117 771 92 758 q 160 838 142 792 q 206 979 175 874 l 331 979 l 338 772 l 540 772 l 540 658 l 340 658 l 340 285 q 344 176 340 207 q 361 137 349 146 q 406 128 374 128 q 532 150 465 128 l 561 67 z "},"ț":{"ha":567,"x_min":31,"x_max":561,"o":"m 294 -12 q 160 29 204 -12 q 117 160 117 71 l 117 658 l 31 658 l 31 736 l 58 747 q 117 771 92 758 q 160 838 142 792 q 206 979 175 874 l 331 979 l 338 772 l 540 772 l 540 658 l 340 658 l 340 285 q 344 176 340 207 q 361 137 349 146 q 406 128 374 128 q 532 150 465 128 l 561 67 q 447 11 522 35 q 294 -12 371 -12 m 424 -178 q 402 -269 424 -225 q 353 -343 381 -314 q 307 -379 325 -372 l 304 -379 l 235 -358 l 232 -347 q 257 -315 247 -342 q 267 -260 267 -287 q 240 -211 267 -229 q 210 -146 210 -186 q 242 -85 210 -104 q 311 -65 274 -65 l 317 -65 q 394 -94 365 -65 q 424 -178 424 -124 z "},"ṫ":{"ha":567,"x_min":31,"x_max":561,"o":"m 294 -12 q 160 29 204 -12 q 117 160 117 71 l 117 658 l 31 658 l 31 736 l 58 747 q 117 771 92 758 q 160 838 142 792 q 206 979 175 874 l 331 979 l 338 772 l 540 772 l 540 658 l 340 658 l 340 285 q 344 176 340 207 q 361 137 349 146 q 406 128 374 128 q 532 150 465 128 l 561 67 q 447 11 522 35 q 294 -12 371 -12 m 269 1064 q 187 1096 219 1064 q 154 1175 154 1128 q 189 1268 154 1231 q 285 1306 224 1306 q 374 1274 342 1306 q 406 1194 406 1243 q 371 1101 406 1138 q 271 1064 336 1064 l 269 1064 z "},"u":{"ha":892,"x_min":40,"x_max":861,"o":"m 686 -14 q 615 7 638 -14 q 593 68 593 28 l 593 101 q 492 20 560 56 q 357 -15 425 -15 q 165 53 222 -15 q 107 279 107 121 l 107 665 l 40 685 l 40 771 l 294 789 l 296 789 l 326 769 l 326 274 q 349 144 326 181 q 432 107 372 107 q 568 163 506 107 l 568 665 l 479 686 l 479 771 l 749 789 l 753 789 l 786 769 l 786 93 l 861 93 l 861 7 q 774 -8 813 -3 q 686 -14 736 -14 z "},"ú":{"ha":892,"x_min":40,"x_max":861,"o":"m 686 -14 q 615 7 638 -14 q 593 68 593 28 l 593 101 q 492 20 560 56 q 357 -15 425 -15 q 165 53 222 -15 q 107 279 107 121 l 107 665 l 40 685 l 40 771 l 294 789 l 296 789 l 326 769 l 326 274 q 349 144 326 181 q 432 107 372 107 q 568 163 506 107 l 568 665 l 479 686 l 479 771 l 749 789 l 753 789 l 786 769 l 786 93 l 861 93 l 861 7 q 774 -8 813 -3 q 686 -14 736 -14 m 325 951 l 571 1246 l 699 1131 q 565 990 663 1071 q 407 886 468 910 l 325 951 z "},"ŭ":{"ha":892,"x_min":40,"x_max":861,"o":"m 450 903 q 316 933 374 903 q 227 1017 258 964 q 196 1135 196 1069 q 199 1197 196 1183 l 299 1197 q 300 1168 299 1179 q 343 1084 307 1118 q 450 1050 379 1050 q 554 1084 519 1050 q 594 1167 589 1118 q 597 1197 597 1192 l 696 1197 l 697 1136 q 666 1017 697 1071 q 578 933 635 964 q 450 903 521 903 m 686 -14 q 615 7 638 -14 q 593 68 593 28 l 593 101 q 492 20 560 56 q 357 -15 425 -15 q 165 53 222 -15 q 107 279 107 121 l 107 665 l 40 685 l 40 771 l 294 789 l 296 789 l 326 769 l 326 274 q 349 144 326 181 q 432 107 372 107 q 568 163 506 107 l 568 665 l 479 686 l 479 771 l 749 789 l 753 789 l 786 769 l 786 93 l 861 93 l 861 7 q 774 -8 813 -3 q 686 -14 736 -14 z "},"û":{"ha":892,"x_min":40,"x_max":861,"o":"m 385 1215 l 510 1215 l 722 944 l 647 885 l 449 1061 l 244 883 l 174 943 l 385 1215 m 686 -14 q 615 7 638 -14 q 593 68 593 28 l 593 101 q 492 20 560 56 q 357 -15 425 -15 q 165 53 222 -15 q 107 279 107 121 l 107 665 l 40 685 l 40 771 l 294 789 l 296 789 l 326 769 l 326 274 q 349 144 326 181 q 432 107 372 107 q 568 163 506 107 l 568 665 l 479 686 l 479 771 l 749 789 l 753 789 l 786 769 l 786 93 l 861 93 l 861 7 q 774 -8 813 -3 q 686 -14 736 -14 z "},"ü":{"ha":892,"x_min":40,"x_max":861,"o":"m 686 -14 q 615 7 638 -14 q 593 68 593 28 l 593 101 q 492 20 560 56 q 357 -15 425 -15 q 165 53 222 -15 q 107 279 107 121 l 107 665 l 40 685 l 40 771 l 294 789 l 296 789 l 326 769 l 326 274 q 349 144 326 181 q 432 107 372 107 q 568 163 506 107 l 568 665 l 479 686 l 479 771 l 749 789 l 753 789 l 786 769 l 786 93 l 861 93 l 861 7 q 774 -8 813 -3 q 686 -14 736 -14 m 233 908 q 164 940 192 908 q 136 1015 136 972 q 165 1107 136 1072 q 253 1142 194 1142 q 333 1111 306 1142 q 361 1035 361 1081 q 329 943 361 978 q 233 908 297 908 m 575 908 q 506 942 533 908 q 478 1015 478 975 q 508 1106 478 1071 q 594 1142 538 1142 q 675 1111 647 1142 q 703 1035 703 1081 q 671 943 703 978 q 575 908 639 908 z "},"ụ":{"ha":892,"x_min":40,"x_max":861,"o":"m 686 -14 q 615 7 638 -14 q 593 68 593 28 l 593 101 q 492 20 560 56 q 357 -15 425 -15 q 165 53 222 -15 q 107 279 107 121 l 107 665 l 40 685 l 40 771 l 294 789 l 296 789 l 326 769 l 326 274 q 349 144 326 181 q 432 107 372 107 q 568 163 506 107 l 568 665 l 479 686 l 479 771 l 749 789 l 753 789 l 786 769 l 786 93 l 861 93 l 861 7 q 774 -8 813 -3 q 686 -14 736 -14 m 440 -271 q 374 -245 400 -271 q 347 -182 347 -219 q 376 -108 347 -137 q 451 -78 404 -78 q 523 -103 497 -78 q 549 -167 549 -128 q 521 -241 549 -211 q 442 -271 493 -271 l 440 -271 z "},"ù":{"ha":892,"x_min":40,"x_max":861,"o":"m 475 886 q 377 944 438 900 q 262 1040 317 988 q 185 1131 207 1092 l 314 1246 l 558 951 l 476 886 l 475 886 m 686 -14 q 615 7 638 -14 q 593 68 593 28 l 593 101 q 492 20 560 56 q 357 -15 425 -15 q 165 53 222 -15 q 107 279 107 121 l 107 665 l 40 685 l 40 771 l 294 789 l 296 789 l 326 769 l 326 274 q 349 144 326 181 q 432 107 372 107 q 568 163 506 107 l 568 665 l 479 686 l 479 771 l 749 789 l 753 789 l 786 769 l 786 93 l 861 93 l 861 7 q 774 -8 813 -3 q 686 -14 736 -14 z "},"ủ":{"ha":892,"x_min":40,"x_max":861,"o":"m 686 -14 q 615 7 638 -14 q 593 68 593 28 l 593 101 q 492 20 560 56 q 357 -15 425 -15 q 165 53 222 -15 q 107 279 107 121 l 107 665 l 40 685 l 40 771 l 294 789 l 296 789 l 326 769 l 326 274 q 349 144 326 181 q 432 107 372 107 q 568 163 506 107 l 568 665 l 479 686 l 479 771 l 749 789 l 753 789 l 786 769 l 786 93 l 861 93 l 861 7 q 774 -8 813 -3 q 686 -14 736 -14 m 386 847 q 364 879 376 857 q 351 911 351 901 q 360 938 351 928 q 386 961 368 947 q 411 982 403 974 q 422 1003 419 990 l 422 1008 q 358 1064 422 1060 q 317 1061 322 1064 l 311 1183 q 333 1189 314 1186 q 365 1192 351 1192 q 458 1174 413 1192 q 535 1120 504 1156 q 565 1035 565 1085 q 547 981 565 1003 q 496 935 529 960 l 472 917 q 454 879 454 901 q 458 856 454 871 l 386 847 z "},"ư":{"ha":892,"x_min":40,"x_max":990,"o":"m 990 911 q 932 749 990 817 q 786 653 874 681 l 786 93 l 861 93 l 861 7 q 774 -8 813 -3 q 686 -14 736 -14 q 615 7 638 -14 q 593 68 593 28 l 593 101 q 492 20 560 56 q 357 -15 425 -15 q 165 53 222 -15 q 107 279 107 121 l 107 665 l 40 685 l 40 771 l 294 789 l 296 789 l 326 769 l 326 274 q 349 144 326 181 q 432 107 372 107 q 568 163 506 107 l 568 665 l 479 686 l 479 771 l 749 789 l 753 789 l 758 786 q 844 918 828 817 q 846 942 847 936 l 988 942 q 990 911 990 919 z "},"ứ":{"ha":892,"x_min":40,"x_max":990,"o":"m 990 911 q 932 749 990 817 q 786 653 874 681 l 786 93 l 861 93 l 861 7 q 774 -8 813 -3 q 686 -14 736 -14 q 615 7 638 -14 q 593 68 593 28 l 593 101 q 492 20 560 56 q 357 -15 425 -15 q 165 53 222 -15 q 107 279 107 121 l 107 665 l 40 685 l 40 771 l 294 789 l 296 789 l 326 769 l 326 274 q 349 144 326 181 q 432 107 372 107 q 568 163 506 107 l 568 665 l 479 686 l 479 771 l 749 789 l 753 789 l 758 786 q 844 918 828 817 q 846 942 847 936 l 988 942 q 990 911 990 919 m 325 951 l 571 1246 l 699 1131 q 565 990 663 1071 q 407 886 468 910 l 325 951 z "},"ự":{"ha":892,"x_min":40,"x_max":990,"o":"m 990 911 q 932 749 990 817 q 786 653 874 681 l 786 93 l 861 93 l 861 7 q 774 -8 813 -3 q 686 -14 736 -14 q 615 7 638 -14 q 593 68 593 28 l 593 101 q 492 20 560 56 q 357 -15 425 -15 q 165 53 222 -15 q 107 279 107 121 l 107 665 l 40 685 l 40 771 l 294 789 l 296 789 l 326 769 l 326 274 q 349 144 326 181 q 432 107 372 107 q 568 163 506 107 l 568 665 l 479 686 l 479 771 l 749 789 l 753 789 l 758 786 q 844 918 828 817 q 846 942 847 936 l 988 942 q 990 911 990 919 m 440 -271 q 374 -245 400 -271 q 347 -182 347 -219 q 376 -108 347 -137 q 451 -78 404 -78 q 523 -103 497 -78 q 549 -167 549 -128 q 521 -241 549 -211 q 442 -271 493 -271 l 440 -271 z "},"ừ":{"ha":892,"x_min":40,"x_max":990,"o":"m 990 911 q 932 749 990 817 q 786 653 874 681 l 786 93 l 861 93 l 861 7 q 774 -8 813 -3 q 686 -14 736 -14 q 615 7 638 -14 q 593 68 593 28 l 593 101 q 492 20 560 56 q 357 -15 425 -15 q 165 53 222 -15 q 107 279 107 121 l 107 665 l 40 685 l 40 771 l 294 789 l 296 789 l 326 769 l 326 274 q 349 144 326 181 q 432 107 372 107 q 568 163 506 107 l 568 665 l 479 686 l 479 771 l 749 789 l 753 789 l 758 786 q 844 918 828 817 q 846 942 847 936 l 988 942 q 990 911 990 919 m 443 886 q 345 944 406 900 q 230 1040 285 988 q 153 1131 175 1092 l 281 1246 l 526 951 l 444 886 l 443 886 z "},"ử":{"ha":892,"x_min":40,"x_max":990,"o":"m 990 911 q 932 749 990 817 q 786 653 874 681 l 786 93 l 861 93 l 861 7 q 774 -8 813 -3 q 686 -14 736 -14 q 615 7 638 -14 q 593 68 593 28 l 593 101 q 492 20 560 56 q 357 -15 425 -15 q 165 53 222 -15 q 107 279 107 121 l 107 665 l 40 685 l 40 771 l 294 789 l 296 789 l 326 769 l 326 274 q 349 144 326 181 q 432 107 372 107 q 568 163 506 107 l 568 665 l 479 686 l 479 771 l 749 789 l 753 789 l 758 786 q 844 918 828 817 q 846 942 847 936 l 988 942 q 990 911 990 919 m 386 847 q 364 879 376 857 q 351 911 351 901 q 360 938 351 928 q 386 961 368 947 q 411 982 403 974 q 422 1003 419 990 l 422 1008 q 358 1064 422 1060 q 317 1061 322 1064 l 311 1183 q 333 1189 314 1186 q 365 1192 351 1192 q 458 1174 413 1192 q 535 1120 504 1156 q 565 1035 565 1085 q 547 981 565 1003 q 496 935 529 960 l 472 917 q 454 879 454 901 q 458 856 454 871 l 386 847 z "},"ữ":{"ha":892,"x_min":40,"x_max":990,"o":"m 990 911 q 932 749 990 817 q 786 653 874 681 l 786 93 l 861 93 l 861 7 q 774 -8 813 -3 q 686 -14 736 -14 q 615 7 638 -14 q 593 68 593 28 l 593 101 q 492 20 560 56 q 357 -15 425 -15 q 165 53 222 -15 q 107 279 107 121 l 107 665 l 40 685 l 40 771 l 294 789 l 296 789 l 326 769 l 326 274 q 349 144 326 181 q 432 107 372 107 q 568 163 506 107 l 568 665 l 479 686 l 479 771 l 749 789 l 753 789 l 758 786 q 844 918 828 817 q 846 942 847 936 l 988 942 q 990 911 990 919 m 110 997 q 189 1103 138 1057 q 318 1149 240 1149 q 392 1133 361 1149 q 460 1086 422 1117 q 510 1049 490 1061 q 556 1038 531 1038 q 615 1056 593 1038 q 660 1104 636 1074 l 728 1050 q 528 900 654 900 q 457 915 486 900 q 389 961 428 931 q 335 998 357 986 q 285 1010 313 1010 q 224 992 247 1010 q 176 944 201 975 l 110 997 z "},"ű":{"ha":892,"x_min":40,"x_max":876,"o":"m 525 1139 q 406 1015 494 1090 q 263 906 318 939 l 186 964 l 403 1238 l 525 1139 m 876 1139 q 758 1017 850 1094 q 611 906 667 939 l 538 965 l 760 1236 l 876 1139 m 686 -14 q 615 7 638 -14 q 593 68 593 28 l 593 101 q 492 20 560 56 q 357 -15 425 -15 q 165 53 222 -15 q 107 279 107 121 l 107 665 l 40 685 l 40 771 l 294 789 l 296 789 l 326 769 l 326 274 q 349 144 326 181 q 432 107 372 107 q 568 163 506 107 l 568 665 l 479 686 l 479 771 l 749 789 l 753 789 l 786 769 l 786 93 l 861 93 l 861 7 q 774 -8 813 -3 q 686 -14 736 -14 z "}}}
